<?xml version="1.0" encoding="utf-8"?>
<!-- Generator: Adobe Illustrator 16.0.0, SVG Export Plug-In . SVG Version: 6.00 Build 0)  -->
<!DOCTYPE svg PUBLIC "-//W3C//DTD SVG 1.1//EN" "http://www.w3.org/Graphics/SVG/1.1/DTD/svg11.dtd">
<svg version="1.1" id="图层_1" xmlns="http://www.w3.org/2000/svg" xmlns:xlink="http://www.w3.org/1999/xlink" x="0px" y="0px"
	 width="230px" height="80px" viewBox="95 20 230 80" enable-background="new 95 20 230 80" xml:space="preserve">
<g>
	<path fill="#2ECC71" d="M321.818,61c0,16.568-13.431,30-30,30H128.182c-16.568,0-30-13.432-30-30l0,0c0-16.569,13.432-30,30-30
		h163.637C308.388,31,321.818,44.431,321.818,61L321.818,61z"/>
	<g enable-background="new    ">
		<path fill="#FFFFFF" d="M154.778,71.533l7.498-19.522h2.783l7.99,19.522h-2.944l-2.277-5.913h-8.163l-2.145,5.913H154.778
			L154.778,71.533z M160.411,63.516h6.619l-2.038-5.406c-0.622-1.643-1.083-2.992-1.385-4.049c-0.249,1.252-0.599,2.495-1.052,3.729
			L160.411,63.516z"/>
		<path fill="#FFFFFF" d="M174.807,71.533V57.391h2.157v2.01c1.039-1.553,2.539-2.329,4.501-2.329c0.852,0,1.635,0.153,2.35,0.46
			s1.25,0.709,1.604,1.205s0.604,1.087,0.746,1.771c0.089,0.443,0.133,1.221,0.133,2.331v8.695h-2.397V62.93
			c0-0.977-0.094-1.706-0.28-2.191c-0.187-0.483-0.517-0.87-0.992-1.159c-0.475-0.286-1.032-0.431-1.672-0.431
			c-1.021,0-1.902,0.324-2.643,0.971c-0.741,0.647-1.113,1.877-1.113,3.689v7.724L174.807,71.533L174.807,71.533L174.807,71.533z"/>
		<path fill="#FFFFFF" d="M199.149,71.533v-1.784c-0.896,1.402-2.215,2.104-3.955,2.104c-1.128,0-2.164-0.311-3.11-0.933
			c-0.945-0.621-1.677-1.488-2.197-2.603s-0.779-2.396-0.779-3.842c0-1.411,0.235-2.692,0.706-3.842
			c0.471-1.15,1.176-2.032,2.118-2.644c0.94-0.613,1.993-0.92,3.156-0.92c0.853,0,1.611,0.182,2.277,0.539
			c0.666,0.36,1.207,0.83,1.625,1.405v-7.003h2.384v19.523L199.149,71.533L199.149,71.533z M191.572,64.475
			c0,1.811,0.382,3.165,1.146,4.063c0.763,0.896,1.665,1.344,2.703,1.344c1.047,0,1.938-0.428,2.67-1.284s1.098-2.164,1.098-3.923
			c0-1.934-0.373-3.354-1.119-4.261c-0.746-0.906-1.665-1.357-2.756-1.357c-1.066,0-1.956,0.435-2.67,1.305
			C191.93,61.231,191.572,62.603,191.572,64.475z"/>
		<path fill="#FFFFFF" d="M205.116,71.533V57.391h2.157v2.144c0.55-1.003,1.059-1.665,1.525-1.984
			c0.465-0.319,0.979-0.479,1.538-0.479c0.808,0,1.629,0.258,2.463,0.772l-0.825,2.224c-0.586-0.347-1.172-0.519-1.758-0.519
			c-0.523,0-0.995,0.157-1.411,0.473c-0.417,0.314-0.715,0.752-0.893,1.312c-0.266,0.852-0.399,1.783-0.399,2.796v7.405H205.116
			L205.116,71.533z"/>
		<path fill="#FFFFFF" d="M213.332,64.462c0-2.619,0.729-4.558,2.184-5.82c1.215-1.047,2.699-1.571,4.447-1.571
			c1.944,0,3.533,0.637,4.768,1.912c1.234,1.273,1.852,3.034,1.852,5.28c0,1.819-0.272,3.25-0.818,4.294
			c-0.546,1.043-1.341,1.854-2.384,2.43c-1.044,0.578-2.182,0.866-3.417,0.866c-1.979,0-3.58-0.635-4.801-1.903
			C213.941,68.679,213.332,66.85,213.332,64.462z M215.796,64.462c0,1.81,0.395,3.167,1.185,4.067
			c0.79,0.901,1.784,1.354,2.983,1.354c1.19,0,2.179-0.453,2.97-1.358c0.79-0.906,1.185-2.285,1.185-4.143
			c0-1.748-0.398-3.074-1.19-3.975c-0.795-0.901-1.783-1.352-2.965-1.352c-1.198,0-2.193,0.447-2.983,1.345
			C216.19,61.297,215.796,62.65,215.796,64.462z"/>
		<path fill="#FFFFFF" d="M229.405,54.767V52.01h2.396v2.756H229.405z M229.405,71.533V57.391h2.396v14.143H229.405L229.405,71.533z
			"/>
		<path fill="#FFFFFF" d="M244.626,71.533v-1.784c-0.897,1.402-2.216,2.104-3.955,2.104c-1.128,0-2.163-0.311-3.109-0.933
			c-0.944-0.621-1.678-1.488-2.197-2.603s-0.779-2.396-0.779-3.842c0-1.411,0.235-2.692,0.706-3.842
			c0.471-1.15,1.177-2.032,2.117-2.644c0.941-0.613,1.993-0.92,3.156-0.92c0.853,0,1.611,0.182,2.277,0.539
			c0.666,0.36,1.208,0.83,1.625,1.405v-7.003h2.383v19.523L244.626,71.533L244.626,71.533z M237.05,64.475
			c0,1.811,0.381,3.165,1.145,4.063c0.763,0.896,1.666,1.344,2.703,1.344c1.048,0,1.938-0.428,2.672-1.284
			c0.731-0.856,1.099-2.164,1.099-3.923c0-1.934-0.374-3.354-1.119-4.261c-0.744-0.906-1.665-1.357-2.757-1.357
			c-1.065,0-1.955,0.435-2.671,1.305C237.405,61.229,237.05,62.603,237.05,64.475z"/>
	</g>
	<g enable-background="new    ">
		<path fill="#FFFFFF" d="M253.139,51.005h22.796v1.331H264.13v19.656h-1.427V52.335h-9.564V51.005z M273.514,63.721
			c-3.189-1.917-6.161-3.603-8.919-5.057l0.815-1.198c3.308,1.7,6.316,3.303,9.025,4.806L273.514,63.721z"/>
		<path fill="#FFFFFF" d="M289.31,71.848c-0.24-0.28-0.556-0.593-0.947-0.936c2.135-1.59,3.76-3.103,4.878-4.543
			c-0.776-2.172-1.314-5.164-1.619-8.976c-0.007-0.087-0.02-0.216-0.034-0.384c-0.017-0.176-0.028-0.304-0.036-0.384h-13.998v-1.102
			h5.992v-2.696h-5.012v-1.079h5.012v-2.433h1.259v2.433h4.662v1.079h-4.662v2.696h6.675c-0.104-1.733-0.155-3.852-0.155-6.352
			h1.284c0,2.053,0.056,4.17,0.167,6.352h7.982v1.102h-7.91c0.008,0.089,0.02,0.228,0.035,0.42c0.016,0.184,0.028,0.324,0.035,0.42
			c0.265,3.236,0.684,5.788,1.26,7.658c1.078-1.534,2.165-3.596,3.26-6.185l1.186,0.515c-1.342,3.005-2.659,5.362-3.954,7.072
			c1.071,2.725,2.149,4.082,3.236,4.076c0.504-0.024,0.854-0.413,1.055-1.164c0.17-0.566,0.365-1.613,0.589-3.141
			c0.383,0.177,0.778,0.325,1.185,0.444c-0.261,1.693-0.519,2.92-0.766,3.68c-0.368,0.959-1.023,1.467-1.966,1.522
			c-1.59,0.038-3.004-1.376-4.242-4.243C292.55,69.146,291.067,70.528,289.31,71.848z M278.091,69.198l-0.19-1.223
			c2.195-0.128,4.298-0.26,6.304-0.396v-2.625h-5.297v-1.282c0.566-0.591,1.302-1.623,2.205-3.092h-2.961v-1.079h3.606
			c0.328-0.535,0.736-1.285,1.222-2.254l1.332,0.336c-0.376,0.67-0.764,1.311-1.164,1.918h7.3v1.079h-7.958
			c-0.703,1.119-1.454,2.217-2.254,3.296h3.967v-2.218h1.259v2.218h4.59v1.078h-4.59v2.529c0.422-0.031,1.051-0.079,1.881-0.144
			c1.343-0.103,2.317-0.18,2.925-0.228c-0.033,0.47-0.04,0.839-0.024,1.103c-1.175,0.079-2.769,0.203-4.782,0.371v3.608h-1.259
			v-3.513C282.71,68.795,280.672,68.966,278.091,69.198z M294.475,51.185l0.875-0.814c0.081,0.064,0.196,0.155,0.349,0.275
			c1.422,1.119,2.461,1.986,3.116,2.602l-1.007,0.935C296.984,53.342,295.874,52.343,294.475,51.185z"/>
	</g>
	<path fill="#FEFEFE" d="M122.418,68.99c0,1.193,0.943,2.164,2.102,2.164h1.517c-0.051,0.18-0.08,0.372-0.08,0.567v4.325
		c0,1.131,0.892,2.049,1.991,2.049c1.1,0,1.99-0.918,1.99-2.049v-4.325c0-0.196-0.029-0.388-0.079-0.567h3.697
		c-0.051,0.18-0.079,0.372-0.079,0.567v4.325c0,1.131,0.891,2.049,1.99,2.049c1.098,0,1.99-0.918,1.99-2.049v-4.325
		c0-0.196-0.029-0.388-0.081-0.567h1.517c1.16,0,2.101-0.971,2.101-2.164V53.967h-18.578V68.99H122.418z M119.1,53.967
		c-1.101,0-1.991,0.917-1.991,2.048v8.762c0,1.131,0.89,2.049,1.991,2.049c1.098,0,1.99-0.918,1.99-2.049v-8.761
		C121.09,54.883,120.198,53.966,119.1,53.967L119.1,53.967L119.1,53.967z M144.313,53.967c-1.099,0-1.989,0.917-1.989,2.048v8.762
		c0,1.131,0.891,2.049,1.989,2.049c1.099,0,1.99-0.918,1.99-2.049v-8.761C146.303,54.883,145.412,53.966,144.313,53.967
		L144.313,53.967L144.313,53.967z M136.274,45.768l1.57-2.424c0.102-0.157,0.06-0.369-0.091-0.473
		c-0.154-0.105-0.359-0.063-0.462,0.095l-0.886,1.369l-0.374,0.575l-0.378,0.584c-1.198-0.479-2.536-0.746-3.947-0.746
		c-1.411,0-2.747,0.269-3.946,0.746l-0.75-1.16l-0.889-1.369c-0.101-0.157-0.308-0.2-0.46-0.095
		c-0.151,0.105-0.193,0.316-0.092,0.473l1.57,2.424c-2.815,1.349-4.721,3.907-4.721,6.833h18.578
		C140.994,49.674,139.09,47.118,136.274,45.768L136.274,45.768L136.274,45.768z M127.726,49.869c-0.549,0-0.996-0.459-0.996-1.024
		c0-0.563,0.446-1.022,0.996-1.022c0.549,0,0.996,0.458,0.996,1.022C128.721,49.411,128.274,49.869,127.726,49.869L127.726,49.869z
		 M135.688,49.869c-0.551,0-0.996-0.459-0.996-1.024c0-0.563,0.445-1.022,0.996-1.022c0.549,0,0.994,0.458,0.994,1.022
		C136.682,49.411,136.237,49.869,135.688,49.869z"/>
</g>
</svg>
