<?xml version="1.0" encoding="utf-8"?>
<!-- Generator: Adobe Illustrator 16.0.0, SVG Export Plug-In . SVG Version: 6.00 Build 0)  -->
<!DOCTYPE svg PUBLIC "-//W3C//DTD SVG 1.1//EN" "http://www.w3.org/Graphics/SVG/1.1/DTD/svg11.dtd">
<svg version="1.1" id="图层_1" xmlns="http://www.w3.org/2000/svg" xmlns:xlink="http://www.w3.org/1999/xlink" x="0px" y="0px"
	 width="230px" height="80px" viewBox="-10 -10 230 80" enable-background="new -10 -10 230 80" xml:space="preserve">
<g>
	<path fill="#2ECC71" d="M216.818,20c0,16.568-13.431,30-30,30H23.182c-16.569,0-30-13.432-30-30l0,0c0-16.569,13.432-30,30-30
		h163.637C203.388-10,216.818,3.431,216.818,20L216.818,20z"/>
	<path fill="#FEFEFE" d="M35.651,20.491c-0.042-4.193,3.421-6.205,3.575-6.305c-1.945-2.846-4.976-3.237-6.055-3.283
		c-2.58-0.259-5.031,1.519-6.341,1.519c-1.305,0-3.324-1.479-5.464-1.438c-2.811,0.042-5.402,1.634-6.85,4.15
		c-2.92,5.067-0.749,12.574,2.099,16.685c1.39,2.012,3.049,4.272,5.227,4.191c2.098-0.084,2.89-1.356,5.424-1.356
		c2.533,0,3.249,1.356,5.467,1.315c2.256-0.043,3.686-2.05,5.068-4.069c1.596-2.333,2.255-4.593,2.293-4.709
		C40.044,27.167,35.695,25.504,35.651,20.491L35.651,20.491z M31.481,8.185c1.154-1.402,1.936-3.348,1.723-5.289
		c-1.667,0.067-3.684,1.108-4.876,2.507c-1.073,1.239-2.012,3.221-1.76,5.124C28.428,10.672,30.324,9.582,31.481,8.185z"/>
	<g enable-background="new    ">
		<path fill="#FFFFFF" d="M55.992,13.767V11.01h2.397v2.757H55.992z M55.992,30.533V16.39h2.397v14.143H55.992z"/>
		<path fill="#FFFFFF" d="M62.345,30.533V11.01h7.363c1.296,0,2.286,0.063,2.969,0.187c0.96,0.16,1.762,0.464,2.411,0.912
			c0.649,0.449,1.169,1.079,1.565,1.886c0.395,0.809,0.593,1.697,0.593,2.664c0,1.66-0.529,3.065-1.585,4.215
			c-1.057,1.151-2.966,1.725-5.727,1.725h-5.006v7.937L62.345,30.533L62.345,30.533z M64.929,20.292h5.046
			c1.669,0,2.854-0.311,3.556-0.933c0.702-0.622,1.053-1.496,1.053-2.622c0-0.818-0.207-1.517-0.619-2.099
			c-0.413-0.581-0.957-0.964-1.632-1.151c-0.436-0.114-1.239-0.172-2.411-0.172h-4.995L64.929,20.292L64.929,20.292z"/>
		<path fill="#FFFFFF" d="M80.229,30.533V11.01h2.396v7.005c1.119-1.298,2.531-1.945,4.234-1.945c1.049,0,1.958,0.206,2.73,0.619
			c0.772,0.414,1.326,0.985,1.658,1.711c0.333,0.729,0.5,1.785,0.5,3.17v8.962h-2.398v-8.964c0-1.197-0.258-2.069-0.779-2.617
			c-0.519-0.545-1.253-0.819-2.204-0.819c-0.711,0-1.379,0.184-2.004,0.554c-0.626,0.368-1.071,0.867-1.338,1.499
			c-0.267,0.63-0.401,1.499-0.401,2.609v7.738H80.229z"/>
		<path fill="#FFFFFF" d="M94.504,23.462c0-2.62,0.728-4.559,2.184-5.82c1.216-1.048,2.698-1.571,4.448-1.571
			c1.943,0,3.534,0.636,4.768,1.911c1.231,1.273,1.851,3.035,1.851,5.28c0,1.818-0.272,3.251-0.819,4.294
			c-0.547,1.044-1.341,1.854-2.384,2.43c-1.045,0.577-2.181,0.867-3.416,0.867c-1.98,0-3.581-0.635-4.801-1.904
			C95.116,27.679,94.504,25.85,94.504,23.462z M96.968,23.462c0,1.812,0.397,3.166,1.186,4.067c0.79,0.901,1.785,1.353,2.984,1.353
			c1.189,0,2.179-0.454,2.969-1.359s1.186-2.285,1.186-4.142c0-1.749-0.397-3.074-1.191-3.975c-0.795-0.901-1.783-1.352-2.963-1.352
			c-1.198,0-2.194,0.447-2.984,1.345C97.365,20.298,96.968,21.65,96.968,23.462z"/>
		<path fill="#FFFFFF" d="M110.564,30.533V16.39h2.157v2.011c1.039-1.553,2.54-2.33,4.502-2.33c0.854,0,1.636,0.153,2.353,0.459
			c0.714,0.308,1.248,0.709,1.603,1.206c0.355,0.498,0.604,1.089,0.746,1.771c0.087,0.443,0.133,1.221,0.133,2.331v8.696h-2.396
			V21.93c0-0.976-0.093-1.707-0.279-2.19c-0.188-0.485-0.518-0.872-0.993-1.159c-0.475-0.29-1.031-0.433-1.671-0.433
			c-1.021,0-1.902,0.325-2.644,0.971c-0.741,0.648-1.113,1.878-1.113,3.688v7.726H110.564L110.564,30.533z"/>
		<path fill="#FFFFFF" d="M135.414,25.979l2.478,0.306c-0.391,1.448-1.115,2.571-2.171,3.37c-1.058,0.799-2.407,1.198-4.049,1.198
			c-2.07,0-3.709-0.639-4.921-1.911c-1.211-1.273-1.817-3.06-1.817-5.358c0-2.38,0.612-4.228,1.839-5.54
			c1.225-1.315,2.813-1.971,4.767-1.971c1.893,0,3.436,0.644,4.635,1.931s1.799,3.099,1.799,5.435c0,0.141-0.006,0.355-0.014,0.639
			h-10.548c0.089,1.554,0.528,2.743,1.318,3.569c0.792,0.826,1.776,1.237,2.957,1.237c0.878,0,1.628-0.229,2.252-0.693
			C134.557,27.727,135.051,26.988,135.414,25.979z M127.544,22.102h7.897c-0.106-1.188-0.41-2.082-0.905-2.675
			c-0.765-0.924-1.755-1.386-2.971-1.386c-1.102,0-2.025,0.37-2.775,1.105C128.039,19.883,127.624,20.869,127.544,22.102z"/>
	</g>
	<g enable-background="new    ">
		<path fill="#FFFFFF" d="M145.956,10.55h22.797v1.329h-11.804v19.656h-1.428V11.881h-9.565V10.55z M166.331,23.266
			c-3.188-1.917-6.159-3.604-8.917-5.057l0.815-1.198c3.308,1.702,6.314,3.304,9.023,4.807L166.331,23.266z"/>
		<path fill="#FFFFFF" d="M182.127,31.393c-0.239-0.279-0.555-0.592-0.947-0.936c2.134-1.591,3.76-3.103,4.879-4.544
			c-0.776-2.171-1.315-5.164-1.62-8.975c-0.007-0.088-0.02-0.216-0.035-0.383c-0.016-0.175-0.027-0.304-0.033-0.383h-13.999v-1.103
			h5.992v-2.696h-5.011v-1.08h5.011V8.861h1.258v2.433h4.661v1.08h-4.661v2.696h6.676c-0.104-1.732-0.156-3.852-0.156-6.352h1.282
			c0,2.055,0.056,4.171,0.168,6.352h7.982v1.103h-7.909c0.008,0.088,0.02,0.229,0.035,0.42c0.017,0.183,0.028,0.324,0.035,0.42
			c0.264,3.236,0.683,5.789,1.261,7.658c1.077-1.535,2.165-3.595,3.258-6.184L191.44,19c-1.342,3.007-2.661,5.362-3.954,7.073
			c1.069,2.724,2.147,4.082,3.236,4.075c0.503-0.024,0.854-0.412,1.053-1.164c0.168-0.565,0.363-1.613,0.588-3.139
			c0.384,0.175,0.78,0.324,1.188,0.442c-0.265,1.694-0.52,2.921-0.769,3.681c-0.367,0.959-1.022,1.466-1.966,1.522
			c-1.588,0.039-3.003-1.376-4.241-4.244C185.367,28.691,183.885,30.073,182.127,31.393z M170.909,28.744l-0.191-1.225
			c2.197-0.128,4.299-0.258,6.305-0.394v-2.625h-5.299v-1.282c0.567-0.592,1.303-1.623,2.205-3.091h-2.961v-1.082h3.608
			c0.329-0.533,0.734-1.283,1.222-2.253l1.33,0.336c-0.377,0.672-0.763,1.312-1.162,1.917h7.299v1.082h-7.958
			c-0.701,1.117-1.454,2.216-2.253,3.294h3.967v-2.219h1.258v2.219h4.591v1.079h-4.591v2.529c0.423-0.031,1.051-0.078,1.881-0.145
			c1.343-0.103,2.316-0.179,2.925-0.227c-0.031,0.472-0.039,0.838-0.022,1.102c-1.177,0.078-2.77,0.202-4.783,0.372v3.605h-1.258
			v-3.511C175.527,28.34,173.49,28.511,170.909,28.744z M187.293,10.731l0.876-0.815c0.079,0.063,0.195,0.155,0.346,0.275
			c1.421,1.117,2.461,1.987,3.117,2.601l-1.008,0.933C189.803,12.887,188.691,11.888,187.293,10.731z"/>
	</g>
</g>
</svg>
