<?xml version="1.0" encoding="utf-8"?>
<!-- Generator: Adobe Illustrator 16.0.0, SVG Export Plug-In . SVG Version: 6.00 Build 0)  -->
<!DOCTYPE svg PUBLIC "-//W3C//DTD SVG 1.1//EN" "http://www.w3.org/Graphics/SVG/1.1/DTD/svg11.dtd">
<svg version="1.1" id="_x37C_" xmlns="http://www.w3.org/2000/svg" xmlns:xlink="http://www.w3.org/1999/xlink" x="0px" y="0px"
	 width="100.8px" height="34.2px" viewBox="0 2.9 100.8 34.2" enable-background="new 0 2.9 100.8 34.2" xml:space="preserve">
<g>
	<path opacity="0.4" fill="#2ECC71" enable-background="new    " d="M31.182,25.063c0.11,0.08,0.002,0.045,0.113,0.086
		c-0.084,0.125-0.086,0.104-0.198,0.026C31.147,25.079,31.1,25.122,31.182,25.063L31.182,25.063z M50.377,13.827
		c-0.747,0-1.49,0.011-2.232,0.031c-0.014,0.005-0.041,0.01-0.102,0.014c-0.096,0.007-0.213,0.005-0.327,0.002
		c-0.869,0.028-1.734,0.07-2.595,0.125c-0.017,0.007-0.048,0.012-0.127,0.015c-0.049,0.001-0.093,0.002-0.134,0.002
		c-0.247,0.016-0.495,0.028-0.741,0.047c-0.075,0.015-0.209,0.024-0.363,0.031c-0.401,0.032-0.801,0.068-1.201,0.107l-0.024,0.005
		c-0.038,0.007-0.084,0.009-0.135,0.009c-4.614,0.447-9.116,1.276-13.474,2.458c-0.432,0.567-1.485,0.739-2.043,0.743h-0.531
		c-0.81,0.249-1.614,0.509-2.414,0.782h4.761l0.752-0.185c0.156-0.045,0.332-0.06,0.5,0.003l0.104,0.037
		c0,0.069,0.007,0.108-0.004,0.146h2.018c0.307,0,0.307,0.47,0,0.47h-2.583c0.036,0.047,0.073,0.09,0.089,0.148
		c-0.045,0.067-0.034,0.03-0.056,0.113c-0.395,0,0.001,0.18-0.583-0.124c-0.12-0.063-0.142-0.073-0.145-0.138h-6.19
		c-5.032,1.815-9.834,4.11-14.354,6.831L4.83,27.771c-0.005,0.004-0.012,0.01-0.016,0.012c-0.224,0.176-0.471,0.313-0.693,0.494
		l-1.715,1.309C2.402,29.59,2.395,29.595,2.391,29.6c-0.004,0.004-0.011,0.01-0.015,0.014c-0.005,0.004-0.011,0.011-0.016,0.014
		l-0.173,0.139c-0.033,0.024-0.042,0.035-0.076,0.064l-0.672,0.539c-0.108,0.072-0.204,0.152-0.301,0.236
		c-0.004,0.004-0.011,0.01-0.015,0.014l-0.122,0.104c-0.059,0.055-0.099,0.084-0.153,0.131L0.414,31.21
		c-0.093,0.069-0.096,0.037-0.099,0.183c0.11-0.024,0.101-0.043,0.174-0.106c0.004-0.004,0.011-0.011,0.015-0.015l1.683-1.227
		c0.238-0.188,0.517-0.329,0.755-0.518l0.031-0.024c0.114-0.088,0.443-0.269,0.678-0.451l0.668-0.436
		c0.005-0.005,0.011-0.009,0.016-0.013c0.04-0.026,0.014-0.013,0.067-0.047c0.104-0.07,0.191-0.125,0.29-0.188l1.543-0.974
		C6.29,27.361,6.34,27.341,6.4,27.309l1.157-0.68c0.005-0.003,0.012-0.008,0.017-0.014l0.431-0.244
		c0.005-0.004,0.012-0.01,0.018-0.012l1.23-0.689c0.023-0.014,0.074-0.039,0.093-0.048l1.032-0.552
		c0.085-0.037,0.092-0.039,0.173-0.08l1.216-0.619c0.006-0.004,0.014-0.008,0.02-0.01c0.005-0.004,0.013-0.006,0.019-0.008
		l0.866-0.436c0.322-0.167,0.656-0.287,0.982-0.459l1.19-0.532c0.029-0.013,0.053-0.022,0.078-0.034l0.648-0.283
		c0.124-0.041,0.184-0.105,0.303-0.148l0.427-0.166c0.045-0.02,0.012-0.008,0.079-0.034c0.058-0.021,0.097-0.032,0.163-0.063
		c0.559-0.265,0.672-0.259,1.142-0.468l1.861-0.711c0.146,0.099,0.184,0.198,0.293,0.301c0.364,0.339,0.642,0.166,0.864,0.38
		c0.001,0,0.031,0.028,0.043,0.041l0.097,0.102c0.003,0.005,0.007,0.013,0.011,0.019l0.053,0.088
		c0.003,0.007,0.008,0.013,0.012,0.018l0.111,0.143c0.003,0.007,0.009,0.014,0.013,0.019c0.08,0.097,0.162,0.124,0.283,0.168
		l0.08,0.031c0.083,0.05,0.086,0.051,0.042,0.146c-0.032,0.067-0.035-0.029-0.039,0.137c0.1,0.047,0.397,0.06,0.48,0.142
		c0.118,0.245-0.088,0.151,0.242,0.295c0.052,0.022,0.058,0.028,0.095,0.047l0.092,0.05c0.116,0.071,0.005,0.063,0.221,0.063v-0.168
		c-0.345-0.082-0.248-0.129-0.458-0.361c-0.15-0.167-0.125-0.044-0.281-0.255c-0.059-0.078-0.006-0.021-0.073-0.069l-0.241-0.183
		c-0.074-0.069-0.096-0.067-0.104-0.179c0.265-0.063,0.246,0.016,0.553,0.322l0.344,0.248c0.069,0.057,0.153,0.098,0.289,0.106
		c0.032,0.136,0.068,0.167,0.194,0.229c0.043,0.021,0.084,0.043,0.127,0.068c0.134,0.081,0.274,0.152,0.391,0.26
		c0.079,0.072,0.169,0.137,0.219,0.232c-0.13,0.244-0.077,0.266,0.173,0.363l1.118,0.322c0.006,0.002,0.013,0.006,0.02,0.008
		l0.092,0.021c0.039,0.008,0.077,0.018,0.138,0.03c0.105,0.024,0.21,0.047,0.299,0.067c0.282,0.067,0.343,0.004,0.6-0.041
		c0.137-0.021,0.264,0.045,0.37,0.114c0.026,0.019,0.027,0.019,0.051,0.034l0.297,0.154c0.152,0.062,0.433,0.076,0.591,0.115
		c0.177,0.043,0.158,0.006,0.317-0.008c0.025,0.108,0.013,0.107,0.083,0.172c0.046,0.041,0.087,0.063,0.157,0.098l0.079,0.033
		c0.08,0.047,0.1,0.172,0.133,0.265l0.141-0.058c0.164,0.004,0.262,0.17,0.471,0.233c0.065,0.021,0.071,0.015,0.141,0.027
		c0.047,0.011,0.093,0.026,0.152,0.051c0.003,0.001,0.058,0.021,0.06,0.022c0.018,0.009,0.055,0.025,0.055,0.025
		c0.086,0.036,0.031,0.031,0.166,0.031c0.033-0.072,0.02-0.057,0-0.143c0.182-0.004,0.155-0.104,0.318-0.064l0.269,0.154
		c0.129,0.104,0.133,0.604-0.03,0.664c-0.146,0.058-0.104-0.025-0.263,0.162l-0.117,0.107c-0.005,0.003-0.012,0.007-0.017,0.012
		l-0.038,0.021c-0.11,0.055-0.166,0.104-0.245,0.208c-0.091,0.115-0.162,0.23-0.329,0.234c0.02,0.238,0.252,0.113,0.384,0.233
		c0.054,0.048,0.035,0.08-0.026,0.236c-0.002,0.008-0.006,0.015-0.008,0.021c-0.022,0.059-0.04,0.063-0.033,0.124
		c0.011,0.112,0.063,0.104,0.144,0.165c0.069,0.055,0.001-0.005,0.058,0.057l0.198,0.196c0.114,0.134,0.256,0.242,0.334,0.4
		c0.066,0.136,0.165,0.231,0.293,0.325c0.005,0.007,0.012,0.011,0.017,0.015l0.721,0.322c0.231,0.104,0.497,0.194,0.619,0.428
		c0.144,0.272-0.014,0.759-0.088,1.051c-0.052,0.206-0.028,0.224-0.131,0.382c-0.105,0.16,0.031,0.08-0.031,0.192
		c-0.049,0.089-0.014-0.032-0.063,0.077c-0.043,0.099,0.084,0.209,0.028,0.423c-0.037,0.14-0.112,0.271-0.193,0.373l-0.153,0.13
		c-0.005,0.003-0.013,0.007-0.018,0.01c-0.027,0.021-0.105,0.01-0.104,0.176c0.001,0.207,0.083,0.184-0.057,0.371
		c-0.128,0.172-0.111,0.285,0,0.451c-0.048,0.032-0.063,0.047-0.107,0.09c-0.076,0.074-0.054,0.043-0.09,0.138
		c-0.054,0.142-0.113,0.134-0.113,0.313c0.134-0.012,0.054-0.012,0.174-0.005c0.026,0.002,0.052,0.003,0.078,0.005h1.642h0.027
		c-0.028-0.077,0.001-0.059-0.113-0.085v-0.085l0.336-0.112c0.139-0.059,0.138-0.101,0.217-0.207
		c0.044-0.063,0.022-0.058,0.113-0.084c0.141-0.047,0.194,0.017,0.209-0.16c-0.393,0-0.397-0.123-0.231-0.145
		c0.092-0.01,0.216,0.014,0.313-0.001c0.125-0.016,0.131-0.059,0.229-0.083c0-0.296,0.005-0.229,0.231-0.207
		c0.233,0.021,0.72-0.101,0.963-0.208c0.079-0.034,0.091-0.061,0.132-0.12c-0.089-0.171-0.169-0.055-0.169-0.281
		c-0.111-0.025-0.142-0.01-0.198-0.084c0.084,0.006,0.219,0.039,0.29,0.047c0.342,0.041,0.46,0.166,0.807-0.108l0.269-0.237
		c0.083-0.072,0.178-0.092,0.263-0.162l0.243-0.209c0.023-0.028,0.012-0.02,0.036-0.049c0.101-0.131,0.214-0.18,0.236-0.356
		c0.03-0.242,0.114-0.3,0.328-0.378l0.266-0.072c0.128-0.021,0.139-0.037,0.249-0.091c0.161-0.075,0.458-0.052,0.656-0.052
		c0.069-0.104,0.047-0.142,0.226-0.142c0.002-0.095,0.034-0.142,0.057-0.168c0.005-0.007,0.022-0.022,0.027-0.028l0.075-0.096
		c0.027-0.033,0.016-0.016,0.053-0.061l0.059-0.082c0.003-0.006,0.008-0.014,0.012-0.02l0.079-0.115
		c0.048-0.08,0.153-0.236,0.169-0.313c0.014-0.063,0.013-0.147-0.003-0.21c-0.029-0.113-0.048-0.016-0.048-0.208
		c0.085-0.011,0.188-0.07,0.25-0.117c0.085-0.063,0.11-0.127,0.196-0.198c0.146-0.119,0.458-0.248,0.523-0.408
		c0.018-0.043,0.007-0.017,0.011-0.06l0.001-0.039c0-0.006,0-0.016,0-0.021c0.01-0.213-0.064-0.371-0.216-0.435
		c-0.042-0.018-0.033-0.015-0.092-0.021c-0.456-0.051-0.551-0.26-0.848-0.311c-0.21-0.035-0.562,0.045-0.744-0.019
		c-0.062-0.022-0.022-0.029-0.113-0.058c-0.077-0.021-0.099-0.002-0.168-0.028c-0.179-0.069-0.156-0.207-0.58-0.214
		c-0.168-0.002-0.242,0.027-0.368,0.031c-0.008-0.019-0.005-0.024-0.009-0.043c-0.017-0.065,0.014,0-0.019-0.07l-0.4-0.064
		c0.236-0.16,0.019-0.211-0.042-0.303c-0.05-0.075-0.032-0.137-0.032-0.253c-0.079-0.041-0.149-0.08-0.235-0.132
		c-0.109-0.063-0.122-0.107-0.251-0.146c-0.568-0.155-0.959,0.16-1.444-0.278c-0.09-0.082-0.025-0.035-0.146-0.08
		c-0.007-0.002-0.014-0.006-0.021-0.008c-0.198-0.072-0.284-0.022-0.302-0.229c-0.009-0.1,0.036,0.023,0.055-0.146
		c-0.198,0.006-0.078,0.025-0.198,0.113c-0.005-0.004-0.013-0.018-0.016-0.014c-0.003,0.006-0.013-0.01-0.016-0.012l-0.12-0.078
		c-0.117-0.037-0.311,0.008-0.354,0.021l-0.042,0.017c-0.195,0.058-0.345,0.015-0.554,0.011c-0.072-0.003-0.215,0.011-0.276-0.009
		c-0.183-0.053-0.03-0.135-0.402-0.135c-0.045-0.065-0.034-0.029-0.057-0.111h-0.113c-0.002,0.109,0.008,0.064-0.028,0.143
		c-0.243,0-0.126,0.053-0.311,0.057c0.029-0.107,0.046-0.084,0.169-0.111c-0.017-0.073-0.026-0.084-0.056-0.143
		c-0.049,0-0.01-0.004-0.05,0.008l-0.084,0.026c-0.006,0.003-0.014,0.007-0.02,0.011l-0.264,0.131
		c-0.121,0.041-0.201,0.01-0.316,0.051l-0.226,0.027c-0.013,0.057-0.032,0.105-0.05,0.146c-0.041,0.089-0.021,0.066-0.108,0.118
		c-0.27,0.159-0.417-0.063-0.687-0.069c-0.096-0.004-0.232-0.011-0.304,0.037c-0.078,0.051-0.108,0.105-0.21,0.085
		c-0.023-0.005-0.073-0.021-0.088-0.026l-0.111-0.061c-0.004-0.005-0.011-0.012-0.015-0.014c-0.098-0.075-0.069-0.025-0.206-0.161
		c-0.187-0.188,0.028-0.364,0.028-0.707c-0.109-0.011-0.149-0.039-0.278-0.062c-0.39-0.065-0.221-0.025-0.571,0.002
		c-0.146,0.014-0.23-0.002-0.337-0.024l0.12-0.417c0.043-0.071,0.069-0.082,0.111-0.174c0.031-0.069,0.06-0.144,0.08-0.229
		c-0.18-0.042-0.288-0.034-0.461-0.009c-0.229,0.031-0.251,0.015-0.343,0.193c-0.046,0.088-0.164,0.236-0.272,0.256
		c-0.044,0.006-0.118-0.021-0.22-0.019c-0.419,0.023-0.205,0.103-0.663-0.045c-0.063-0.021-0.032-0.003-0.081-0.032
		c-0.072-0.045-0.103-0.138-0.202-0.224c-0.052-0.045-0.012-0.008-0.057-0.058c-0.02-0.021-0.053-0.057-0.067-0.072
		c-0.062-0.078-0.07-0.301-0.055-0.412c0.012-0.093,0.057-0.104,0.105-0.175c-0.07-0.263-0.34-0.31,0.306-0.456
		c0.062-0.016,0.047-0.016,0.065-0.021c0.007-0.002,0.014-0.006,0.021-0.008l0.042-0.015c0.348-0.114,0.216-0.155,0.618-0.104
		c0.219,0.028,0.399,0.035,0.642,0.035c0.034-0.07,0.02-0.055,0-0.143c0.191,0,0.713-0.021,0.864,0.013
		c0.184,0.041,0.107,0.079,0.378,0.074c0.057-0.001,0.169-0.009,0.22,0.006c0.032,0.008,0.039,0.004,0.075,0.037
		c0.031,0.028,0.046,0.032,0.047,0.086c0.006,0.264,0.068,0.272,0.29,0.453c0.137,0.108,0.233,0.063,0.356-0.019
		c0-0.189-0.03-0.227-0.104-0.35l-0.135-0.203c-0.068-0.087,0.038-0.025-0.072-0.068c0-0.265,0.19-0.336,0.409-0.438l0.738-0.309
		c0.006-0.002,0.014-0.006,0.021-0.008c0.042-0.014,0.028-0.01,0.074-0.011c0.003-0.124,0.02-0.088,0.028-0.196
		c-0.09-0.023-0.113-0.086-0.139-0.173c-0.028-0.092-0.002-0.106-0.002-0.253h0.028c0,0.018-0.002,0.07,0,0.085
		c0.016,0.103-0.016-0.028,0.01,0.048c0.002,0.006,0.005,0.014,0.008,0.021c0.03,0.064,0.061,0.093,0.152,0.104
		c0.067-0.101,0.056-0.063,0.056-0.228c0.113,0.055,0.188,0.003,0.25-0.091c0.108-0.16,0.206-0.141,0.391-0.2
		c0.127-0.043,0.309,0.009,0.422-0.06c0.055-0.033,0.02-0.021,0.067-0.047c-0.033-0.062-0.037-0.065-0.084-0.111
		c0.105-0.012,0.174-0.11,0.265-0.158L32,20.03c0.177-0.017,0.183-0.05,0.34-0.085l0.339-0.111c-0.053,0.196-0.247,0.02-0.254,0.313
		c0.056,0,0.145,0.004,0.197,0l0.304-0.121c0.06-0.031,0.098-0.043,0.177-0.049l0.353-0.07c0.04-0.014,0.052-0.012,0.089-0.023
		c0.105-0.035,0.12-0.076,0.263-0.076v-0.056c-0.127-0.015-0.071,0.042-0.085-0.085c-0.219,0.005-0.121,0.141-0.452,0.141v-0.056
		c0.161,0,0.109,0.024,0.142-0.058c-0.057-0.026-0.191-0.055-0.277-0.023c-0.078,0.027-0.03-0.023-0.062,0.053
		c-0.132-0.012-0.069,0.043-0.056-0.113l-0.227,0.059c-0.019-0.068-0.077-0.173-0.113-0.227c0.119,0,0.114,0.013,0.198-0.028
		c-0.034-0.095-0.016-0.054-0.131-0.097c-0.006-0.002-0.014-0.006-0.021-0.008c-0.312-0.113-0.425,0.021-0.612,0.021
		c0.177-0.168,0.036-0.124,0.347-0.162c0.219-0.027,0.313,0.021,0.501,0.021c0.016,0.033,0.01-0.006,0.008,0.041
		c0,0.002-0.008,0.063-0.008,0.07c0.188,0,0.351,0.104,0.367-0.085l-0.141-0.026c0.322,0,0.588,0.019,0.884-0.104l0.275-0.09
		c0.157-0.022,0.07,0.03,0.196-0.06c-0.022,0.129,0.042,0.059-0.056,0.084l-0.261,0.248c-0.096,0.086-0.205,0.154-0.219,0.289
		c0.186,0,0.672-0.022,0.827,0.021c0.36,0.107,0.076-0.018,0.359-0.021c0.006,0.274,0.294,0.172,0.311-0.026
		c-0.113-0.041,0.013,0.01-0.067-0.044l-0.039-0.024c-0.002-0.002-0.009-0.006-0.012-0.008c-0.072-0.047-0.085-0.047-0.115-0.109
		c-0.002-0.004-0.003-0.013-0.005-0.016l-0.055-0.069c-0.065-0.042-0.092-0.04-0.188-0.04l-0.142,0.058
		c-0.052-0.146-0.108-0.049-0.197-0.17c0.142-0.037,0.15-0.068,0.169-0.142l-0.146-0.043c0.093-0.045,0.049-0.005,0.089-0.126
		c0-0.096-0.036-0.107-0.084-0.198l-0.425-0.112c-0.135-0.051-0.313-0.059-0.452-0.113c-0.126-0.05-0.126-0.085-0.31-0.085
		c0-0.223-0.149-0.256-0.389-0.431c-0.096-0.071-0.258-0.102-0.289-0.22c-0.117,0-0.166,0.019-0.234,0.105
		c-0.054,0.067-0.072,0.09-0.159,0.124c-0.006,0.002-0.013,0.005-0.02,0.008l-0.069,0.017c-0.09,0.012-0.267,0.001-0.367,0.002
		c-0.188,0.001-0.2-0.046-0.338-0.058l-0.002-0.237c-0.001-0.018-0.114-0.044,0.148-0.096l0.53-0.092
		c0.142-0.014,0.059-0.031,0.215-0.067c0.181-0.042,0.356-0.038,0.533-0.089c0.111-0.032-0.026-0.012,0.106-0.034l0.644-0.119
		c0.084-0.021,0.189-0.018,0.271-0.041l0.267-0.043c0.144-0.002,0.335-0.068,0.5-0.093l0.313-0.054
		c0.139-0.03,0.023-0.047,0.203-0.052c0.057,0.214,0.158-0.036,0.226,0.255h0.142c0.019-0.074-0.011-0.032,0.056-0.057
		c-0.035,0.066-0.048,0.074-0.056,0.17c0.102,0.049,0.228,0.071,0.302,0.149l0.115,0.083c0.227,0.104,0.318,0.212,0.679,0.188
		c0.375-0.024,0.309,0.118,0.577,0.141c0.117,0.009,0.189-0.042,0.254-0.129c0.069-0.094,0.109-0.104,0.218-0.177
		c-0.08-0.12-0.223-0.112,0.025-0.141c0.146-0.018,0.161-0.054,0.286-0.113c0.003-0.121,0.043-0.135,0-0.226
		c0.1-0.002,0.188-0.03,0.294-0.045c0.19-0.025,0.185,0.032,0.271-0.097c0.077,0.052,0.061,0.058,0.197,0.061l0.437-0.076
		c0.049-0.014,0.024-0.013,0.08-0.033c0.19-0.068,0.143-0.001,0.332-0.121l0.037-0.019c0.485-0.215,0.69-0.063,1.262-0.15
		c0.138-0.021,0.045-0.035,0.199-0.056c0.078-0.011,0.168,0.01,0.247-0.007c0.172-0.036,0.427-0.131,0.655-0.136V16.17
		c0.123-0.003,0.154-0.028,0.311-0.028V16l-0.142-0.057l1.439-0.114c0.096-0.002,0.221,0.011,0.313,0.002
		c0.175-0.015,0.028-0.061,0.564-0.057c0.186,0,0.401-0.014,0.581-0.041l1.819-0.073c0.241,0,0.369-0.03,0.593-0.029l0.934,0.001
		c0.201,0.001,0.272-0.106,0.497-0.044c0.007,0.002,0.014,0.006,0.021,0.008c0.093,0.028,0.148-0.019,0.241-0.024
		c0.127-0.007,2.117-0.024,2.346,0.002c0.161,0.019,0.02,0.006,0.129,0.04c0.194,0.059,1.934-0.002,2.422,0.065
		c0.364,0.05,0.824-0.008,1.198,0.043c0.343,0.047,0.709,0.032,1.054,0.047c0.03,0.001,0.049,0.001,0.078,0.007
		c0.086,0.019,0.036,0.014,0.063,0.023c0.007,0.002,0.013,0.006,0.021,0.009L59,15.969c0.146,0.014,0.09,0.049,0.254,0.057
		c0.485,0.023,0.218,0.085,0.849,0.084c0.271-0.001,0.573-0.014,0.826,0.077l0.159,0.038c0.052,0.002,0.117-0.002,0.172-0.002
		c0,0.192-0.028,0.198-0.309,0.179c-0.084-0.005-0.115-0.035-0.197-0.033c-0.068,0.002-0.135,0.024-0.256,0.024
		c-0.483,0-0.424,0.084-1.021,0.058c-0.233-0.01-0.058-0.026-0.203-0.054c-0.128-0.024-0.144,0.027-0.229,0.044
		c-0.125,0.025-0.219,0.011-0.336,0.058c-0.063,0.026-0.049,0.017-0.107,0.033c-0.063,0.017-0.036,0.007-0.087,0.025l-0.104,0.04
		c-0.32,0.142-0.134,0.141-0.516,0.05c-0.079-0.019-0.029,0.011-0.111-0.029c0.031-0.089,0.01-0.084,0.197-0.084
		c-0.034-0.126-0.059-0.075-0.172-0.111c-0.01-0.002-0.032-0.012-0.042-0.015c-0.058-0.016-0.031-0.01-0.099-0.016L57.3,16.333
		v0.085c0.191,0.021-0.032,0.056,0.228,0.056c-0.036,0.14-0.053,0.019-0.057,0.198c0.082,0.02,0.04-0.003,0.085,0.057
		c-0.26,0-0.469-0.027-0.648,0.029c-0.076,0.023-0.047,0.012-0.142,0.029c-0.115,0.021-0.052,0.013-0.108,0.031
		c-0.074,0.023-0.035,0.023-0.146,0.023c-0.024,0.05-0.033,0.091-0.058,0.142c-0.146-0.003-0.539-0.11-0.648-0.057
		c0.014,0.134,0.025,0.073,0.049,0.092c0.068,0.059,0.1,0.05,0.205,0.05v0.028c-0.132,0-0.182,0.011-0.287-0.023l-0.225-0.06
		c-0.133-0.058-0.158-0.191-0.221-0.23L55.155,16.7c0.204,0,0.616,0.057,0.903,0.057c0.21,0,0.486,0.022,0.688-0.018
		c0.127-0.026,0.103-0.005,0.159-0.095c-0.03-0.119-0.243-0.189-0.396-0.198c-0.09-0.005-0.096,0.009-0.182-0.016l-1.274-0.137
		c-0.171-0.048-0.153-0.038-0.353-0.042c-0.138-0.003-0.091-0.009-0.166-0.033c-0.01-0.002-0.017-0.005-0.021-0.008
		c-0.008-0.002-0.016-0.004-0.021-0.006l-0.111-0.026c-0.111-0.063,0.021,0.021-0.045-0.126c-0.156,0-0.354,0.024-0.496-0.018
		c-0.109-0.034-0.016-0.076-0.17,0.002c-0.135,0.068-0.045,0.056-0.361,0.027c-0.29-0.025-0.438,0.042-0.699,0.07
		c-0.133,0.014-0.186-0.017-0.298,0.011c-0.317,0.078-0.42-0.029-0.728,0.122c-0.199,0.097-0.187,0.104-0.393,0.112
		c-0.102,0.004-0.066,0.035-0.162,0.098v-0.085h-0.311c-0.021,0.038-0.015,0.031-0.028,0.085c-0.049-0.024-0.056-0.036-0.142-0.032
		c-0.107,0.005-0.089,0.003-0.112,0.089h0.254v-0.057h0.312l-0.265,0.132c-0.204,0.093-0.37,0.069-0.551,0.267
		c-0.004,0.005-0.009,0.011-0.013,0.016c-0.093,0.102-0.206,0.127-0.21,0.128c-0.101,0.033-0.231,0.014-0.337,0.059
		c-0.006,0.003-0.013,0.006-0.019,0.009l-0.333,0.09c-0.007,0.002-0.014,0.005-0.021,0.008s-0.014,0.006-0.02,0.009l-0.204,0.051
		c-0.152,0.028-0.317,0.118-0.457,0.192c0,0.26-0.051,0.292,0.142,0.451c0.212,0.177,0.558,0.133,0.787,0.026l0.296-0.103
		c0.169-0.031,0.241,0.194,0.372,0.288c0.116,0.083,0.16,0.153,0.238,0.27l0.332-0.035c0.054-0.018,0.055-0.013,0.112-0.029
		c0.008-0.002,0.016-0.003,0.022-0.005c0.453-0.132,0.241-0.115,0.396-0.339c0.102-0.143,0.368-0.029,0.482-0.167
		c0.057-0.066,0.024,0.043,0.037-0.103l-0.201-0.082c-0.108-0.037-0.105-0.03-0.192-0.088c0.065-0.281,0.534-0.328,0.587-0.346
		c0.085-0.028,0.173-0.049,0.241-0.097c0.084-0.059,0.104-0.146,0.194-0.2c0.013-0.007,0.055-0.029,0.058-0.029
		c0.101-0.046,0.305-0.046,0.417-0.007c0.008,0.002,0.016,0.006,0.021,0.008c0.008,0.002,0.015,0.006,0.021,0.008l0.239,0.041
		c-0.057,0.079-0.141,0.077-0.25,0.116l-0.146,0.054c-0.007,0.003-0.014,0.006-0.021,0.009c-0.109,0.045-0.389,0.158-0.518,0.161
		c0.012,0.155-0.003,0.025,0.031,0.108c0.02,0.044,0.033,0.079,0.046,0.124c0.039,0.149,0.002,0.162,0.14,0.201
		c0.533,0.153,0.959-0.052,1.039-0.041l0.053,0.018c0.281,0.072,0.234-0.126,0.479,0.03c0.005,0.003,0.013,0.008,0.019,0.012
		c-0.115,0.009-0.146,0.055-0.266,0.075l-0.641-0.02c-0.161,0-0.215,0.026-0.338,0.029v0.142c0.131,0.03,0.146,0.072,0.188,0.181
		l0.037,0.074c-0.242,0-0.164-0.045-0.289-0.077c-0.066-0.016-0.119-0.002-0.188-0.013c-0.111-0.017-0.031-0.022-0.146-0.052
		c-0.081,0.156-0.022,0.071-0.171,0.142c0,0.203,0.021,0.086,0.059,0.226l-0.242,0.041c-0.301,0.086-0.659-0.003-0.957,0.087
		L50.71,18.57c-0.215-0.02-0.042-0.048-0.2-0.084c-0.009-0.002-0.097-0.007-0.109-0.007c-0.099,0-0.104,0.001-0.176,0.027
		c-0.088,0.032-0.194,0.074-0.3,0.031l-0.135-0.065c-0.065-0.046-0.06-0.037-0.068-0.13c0.079-0.038,0.055-0.028,0.169-0.028
		c0-0.446-0.064-0.256-0.313-0.228c-0.133,0.015-0.212,0.014-0.308,0.115l0.045,0.096c0.053,0.095,0.113,0.141,0.124,0.272
		c-0.15,0.08-0.445,0.05-0.583,0.095l-0.193,0.061c-0.189,0.058-0.124,0.061-0.284,0.14l-0.114,0.056
		c-0.131,0.064-0.338,0.043-0.459,0.134l-0.383,0.213c-0.063,0.021-0.114,0.012-0.169-0.006c-0.099-0.029,0.018-0.037-0.158-0.041
		c-0.017,0.073-0.025,0.082-0.057,0.143H46.46c0.024,0.285,0.283,0.078,0.491,0.242c0.038,0.028,0.021,0.018,0.049,0.035
		l0.032,0.024c0.005,0.003,0.012,0.009,0.017,0.012c0.068,0.048,0.008,0.015,0.089,0.054l0.113,0.057
		c-0.017,0.152-0.006,0.018-0.044,0.125l-0.097,0.271c-0.198,0-0.196-0.06-0.395-0.059c-0.231,0.002-0.478,0.021-0.708,0.002
		c-0.224-0.02-0.12-0.104-0.357-0.021c-0.088,0.03-0.131,0.021-0.235,0.021c0,0.178,0.055,0.255,0.061,0.28
		c0.047,0.176-0.061,0.241-0.146,0.368c0.07,0.104,0.166,0.229,0.198,0.367l0.282-0.057c0.329,0.008,0.008,0.219,0.83,0.096
		c0.238-0.035,0.228,0.022,0.428-0.08l0.352-0.156v-0.254c0.116-0.043-0.007,0.002,0.074-0.039c0.142-0.071,0.232-0.139,0.375-0.161
		l0.286-0.082c0.003-0.127,0.019-0.198,0.132-0.235c0.278-0.089,0.467,0.108,1.018-0.111l0.185-0.043
		c0.29-0.037,0.234,0.025,0.37,0.154c0.056,0.053,0.003,0.006,0.069,0.045l0.126,0.07c0.008,0.004,0.031,0.016,0.039,0.02
		l0.057,0.027c0.005,0.002,0.013,0.007,0.018,0.01l0.244,0.096c0.238,0.088,0.224,0.11,0.53,0.203l0.042,0.016
		c0.052,0.02-0.006,0,0.062,0.023c0.061,0.022,0.053,0.014,0.104,0.037c-0.012,0.143-0.024,0.057-0.063,0.145
		c-0.049,0.115,0.033,0.115,0.129,0.068l0.188-0.129c-0.021-0.078-0.075-0.103-0.112-0.169c0.108-0.009,0.11-0.053,0.209-0.012
		c0.125,0.053-0.061,0.067,0.215,0.067v-0.086c-0.119-0.01-0.157-0.058-0.288-0.104c-0.068-0.023-0.442-0.177-0.698-0.177
		c-0.063-0.271-0.224-0.259-0.452-0.313V19.9c0.073-0.021,0.032,0.011,0.057-0.058h0.198c0.022,0.063,0.04,0.095,0.112,0.104
		c0.134,0.019,0.078-0.051,0.353,0.107l0.349,0.135c0.329,0.115,0.237,0.11,0.571,0.188v0.254c0.307,0.204,0.393,0.202,0.791,0.169
		v-0.195c0.049,0.02,0.234-0.037,0.313-0.059c0.085-0.021,0.053,0.021,0.084-0.058h0.085c0.038,0.096-0.028,0.032,0.104,0.067
		c0.043,0.012,0.102,0.019,0.18,0.019c-0.075,0.155-0.018,0.157,0.085,0.226c-0.046,0.067-0.034,0.03-0.058,0.113
		c0.127,0.066,0.112,0.1,0.189,0.146c0.436,0.273,0.723,0.088,0.771,0.08c0.211-0.031,0.354,0.092,0.59,0.086
		c0.152-0.004,0.152-0.035,0.275-0.065c0.07-0.021,0.203-0.021,0.316-0.021c-0.045,0.188-0.006,0.275-0.148,0.473
		c-0.086,0.117-0.229,0.248-0.355,0.32c-0.268,0.154-0.266-0.17-0.805-0.015c-0.076,0.021-0.014,0.015-0.131,0.042
		c-0.229,0.051-0.361-0.018-0.567-0.054c-0.052-0.011-0.104-0.007-0.157-0.015c-0.078-0.01-0.184-0.035-0.286-0.053
		c-0.134-0.021-0.28-0.038-0.397-0.107c-0.006-0.004-0.014-0.008-0.02-0.012c-0.126-0.078-0.254-0.084-0.385-0.054
		c-0.221,0.051-0.309,0.12-0.359,0.347c-0.275,0.022-0.306,0.002-0.586-0.035c-0.236-0.033-0.4-0.182-0.627-0.221
		c-0.144-0.025-0.037-0.012-0.131-0.039c-0.183-0.051-0.405-0.031-0.577-0.102c-0.152-0.063-0.088-0.057-0.311-0.057l0.169-0.113
		c0-0.041-0.01-0.161-0.009-0.184c0.006-0.111,0.028-0.023,0.065-0.128l-0.286-0.112c-0.099-0.015-0.14,0.016-0.204,0.047
		c-0.262,0.129-0.426-0.031-0.675,0.027c-0.25,0.061-0.633,0.014-0.897,0.01c-0.312-0.002-0.735,0.192-1.016,0.199l-0.229,0.041
		c-0.095,0.002-0.076-0.054-0.246-0.02c-0.208,0.042-0.213-0.173-0.527,0.133l-0.251,0.146c-0.275,0.08-0.463,0.18-0.384,0.52
		l-0.768,0.334c-0.386,0.189-0.349,0.391-0.587,0.57l-0.141,0.117c-0.004,0.004-0.01,0.01-0.015,0.015l-0.148,0.134
		c-0.004,0.005-0.01,0.012-0.014,0.016c-0.004,0.004-0.01,0.011-0.014,0.015L43.557,23.4c0.05,0.097,0.128,0.115,0.177,0.22
		c0.016,0.035,0.072,0.278,0.071,0.313c-0.014,0.238-0.22,0.332-0.22,0.57c0.136,0.049-0.022,0.007,0.113,0.057
		c-0.044,0.084-0.076,0.095-0.085,0.197c0.2,0.004,0.036-0.011,0.171,0.083c0.193,0.134,0.121-0.024,0.34,0.224l0.105,0.095
		c0.005,0.006,0.011,0.011,0.016,0.014c0.172,0.113,0.204,0.087,0.327,0.269c0.114,0.166,0.354,0.252,0.537,0.34l0.039,0.018
		c0.256,0.111,0.538,0.215,0.825,0.141c0.314-0.084,0.34-0.107,0.702-0.058c0.248,0.036,0.497,0.028,0.729-0.067l0.211-0.069
		c0.25-0.063,0.625-0.138,0.902-0.009l0.345,0.25c0.099,0.041,0.146-0.01,0.211-0.023c0.114-0.029,0.288-0.027,0.4,0.005
		c0.282,0.081,0.309,0.163,0.195,0.364c-0.062,0.107-0.021,0.092-0.011,0.215c-0.259,0.063-0.087,0.278,0.013,0.41
		c0.004,0.005,0.009,0.013,0.012,0.018c0.067,0.09,0.067,0.068,0.175,0.137l0.364,0.344c0.344,0.443,0.111,0.443,0.279,0.652
		c0.098,0.121,0.089,0.1,0.089,0.307c-0.253,0.17-0.242,0.123-0.335,0.371l-0.071,0.185c-0.087,0.282-0.025,0.267,0.114,0.443
		c0.031,0.041,0.043,0.062,0.076,0.095l0.305,0.346c0.207,0.24-0.025,0.18,0.172,0.563c0.226,0.439,0.336,0.334,0.502,0.627
		c0.062,0.107,0.042,0.063,0.135,0.146c0.028,0.025,0.043,0.041,0.07,0.07c0.021,0.021,0.019,0.021,0.038,0.045l0.039,0.047
		c-0.027,0.104-0.028,0.037-0.057,0.142l0.352,0.302c0.281,0.159,0.184-0.002,0.447-0.064c0.056-0.015,0.063-0.01,0.113-0.023
		c0.219-0.066,0.563-0.037,0.813-0.037c0.205-0.002,0.557-0.139,0.746-0.243l0.207-0.134c0.074-0.045,0.125-0.088,0.197-0.139
		l0.211-0.188c0.104-0.073,0.223-0.196,0.285-0.309c0.071-0.127,0.055-0.142-0.013-0.235c0.087-0.021,0.084-0.033,0.162-0.063
		c0.168-0.064,0.338-0.117,0.485-0.221c0-0.438-0.176-0.365-0.137-0.557c0.014-0.064,0.073-0.119,0.119-0.141
		c0.037-0.016,0.03-0.008,0.066-0.019c0.007-0.003,0.015-0.004,0.021-0.007l0.427-0.193c0.189-0.063,0.713-0.216,0.717-0.441
		c-0.021-0.1-0.055-0.121-0.084-0.201c-0.078-0.217,0.201-0.385-0.227-0.59c0-0.109,0.02-0.258-0.02-0.352
		c-0.002-0.007-0.006-0.014-0.008-0.021c-0.063-0.123-0.174-0.229,0.088-0.476l0.031-0.024c0.004-0.004,0.012-0.009,0.016-0.013
		l0.576-0.439c0.004-0.005,0.012-0.011,0.017-0.014l0.034-0.021c0.005-0.003,0.012-0.009,0.018-0.012l0.957-0.513l0.395-0.368
		c0.117-0.132,0.729-0.739,0.554-0.919c-0.063-0.063-0.156-0.006-0.233,0.021c-0.029,0.009-0.064,0.017-0.097,0.021
		c-0.104,0.02-0.241,0.031-0.371,0.054l-0.296,0.043c-0.186,0.06-0.73,0.123-0.797-0.146l-0.008-0.032
		c-0.028-0.085-0.223-0.207-0.303-0.255c-0.285-0.17-0.479-0.196-0.524-0.235l-0.028-0.028c-0.004-0.004-0.009-0.011-0.012-0.017
		l-0.057-0.101c-0.047-0.106-0.062-0.213-0.152-0.268c-0.193-0.113-0.282-0.05-0.301-0.345c-0.008-0.121,0.039-0.027-0.028-0.146
		c-0.087-0.146-0.229-0.157-0.33-0.293c-0.101-0.133-0.166-0.252-0.294-0.356c-0.093-0.073-0.128-0.17-0.184-0.271h0.17
		c0.005-0.146-0.023-0.082,0.059-0.142c0.004,0.17,0.146,0.15,0.438,0.494c0.174,0.201,0.188,0.164,0.377,0.303
		c0.004,0.004,0.013,0.009,0.017,0.012c0.005,0.004,0.013,0.01,0.019,0.014l0.112,0.082c-0.021,0.084-0.026,0.086-0.026,0.198
		l0.373,0.247c0.16,0.107-0.102-0.089,0.033,0.023l0.104,0.121c0.313,0.326,0.218,0.039,0.431,0.588
		c0.05,0.125,0.043,0.213,0.146,0.279c0.084,0.059,0.037,0.059,0.158,0.066c0.043-0.105,0.103-0.05,0.303-0.093
		c0.039-0.009,0.104-0.026,0.162-0.036l0.408-0.071c0.01-0.001,0.016-0.002,0.023-0.004l0.35-0.131
		c0.12-0.028,0.201-0.038,0.324-0.071c0.083-0.021-0.014,0.004,0.063-0.021c0.009-0.002,0.017-0.005,0.021-0.007
		c0.157-0.053,0.199-0.096,0.342-0.168c0.16-0.086,0.232-0.049,0.459-0.049l0.567-0.338c0.161-0.07,0.03-0.007,0.099-0.127
		c0.045-0.078,0.055-0.062,0.135-0.094c0.142-0.061,0.176-0.145,0.304-0.177v-0.144c-0.125-0.033-0.084-0.07-0.181-0.131
		c-0.131-0.081-0.313-0.042-0.44-0.123l-0.052-0.033c-0.077-0.063-0.092-0.143-0.092-0.25c-0.141,0.004-0.063-0.004-0.156,0.041
		l-0.51,0.25c-0.008-0.002-0.053-0.018-0.054-0.018c-0.005-0.001-0.014-0.003-0.021-0.004l-0.035,0.003
		c-0.072,0.015-0.034,0.051-0.184,0.04c-0.146-0.01-0.041-0.021-0.172-0.059c0.043-0.063,0.021-0.039,0.08-0.086
		c0.104-0.086,0.036,0.045,0.088-0.084c-0.072-0.033-0.113-0.017-0.143-0.086h-0.143c-0.024,0.065-0.008,0.039-0.063,0.076
		c-0.063,0.042,0.007,0.024-0.104,0.037l0.03-0.168l-0.332-0.184c-0.059-0.043-0.161-0.229-0.209-0.299
		c0.188,0,0.296-0.028,0.511-0.028c0.039,0.149,0.354,0.345,0.504,0.397c0.078,0.026,0.023,0.004,0.104,0.039
		c0.489,0.215,0.438,0.016,0.89,0.016l0.144,0.227c0.557,0,0.466,0.041,0.79,0.059c0.217,0.01,1.096-0.074,1.201-0.047
		c0.082,0.021,0.099,0.061,0.162,0.094l0.51,0.309c0.064,0.055,0.003,0.016-0.01,0.125l0.375,0.162
		c0.209,0.053,0.309-0.042,0.389-0.135c0.07,0.854,0.22,0.793,0.451,1.158c0.06,0.088,0.104,0.125,0.164,0.23l0.144,0.279
		c0.074,0.218,0.2,0.363,0.456,0.363c0.053-0.145,0.129-0.168,0.281-0.168c0.076-0.328,0.226-0.031,0.229-0.365
		c0.004-0.217-0.008-0.377,0.063-0.529c0.051-0.109,0.188-0.111,0.291-0.162l0.058-0.025c0.008-0.004,0.016-0.008,0.021-0.011
		c0.007-0.003,0.014-0.006,0.02-0.009l0.746-0.412c0.1-0.042,0.271-0.048,0.328-0.124c0.02-0.022,0.031-0.075,0.059-0.11
		c0.047-0.063,0.086-0.084,0.193-0.09c0.202-0.009,0.37,0.002,0.543-0.05c0.132-0.04,0.184,0.007,0.223-0.089h0.086
		c0.045,0.128,0,0,0.055,0.084l0.171,0.198c0.005,0.004,0.012,0.009,0.017,0.012c0.659,0.479,0.204,0.646,0.438,0.692
		c0.074,0.019,0.238-0.014,0.287-0.021c0.141-0.029,0.156-0.021,0.191-0.117H69.6c0.062,0.26,0.272,0.48,0.312,0.738
		c0.024,0.182-0.057,0.262-0.095,0.415c-0.067,0.276,0.144,0.104,0.271,0.228c0.039,0.039,0.043,0.088,0.103,0.151
		c0.063,0.067,0.086,0.062,0.11,0.144c0.025,0.084,0.004,0.115,0.05,0.207c0.104,0.209,0.635,0.455,0.862,0.405
		c-0.021-0.239-0.146,0.007-0.17-0.396c-0.01-0.182-0.158-0.27-0.289-0.359l-0.088-0.053c-0.035-0.014-0.033-0.008-0.068-0.018
		l-0.225-0.088c-0.141-0.104-0.07-0.242-0.289-0.304c0.002-0.13,0-0.063,0.029-0.142c0,0,0.021-0.038,0.026-0.057
		c0.051-0.104,0.129-0.246,0.14-0.369c0.264,0,0.184,0.092,0.377,0.158c0.012,0.004,0.141,0.053,0.146,0.055
		c0.109,0.061,0.178,0.222,0.293,0.229c0.104,0.007-0.045-0.009,0.064-0.004l0.168,0.099c0.036,0.068,0.024,0.041,0.024,0.145
		c0.34,0,0.354-0.156,0.487-0.217c0.136-0.061,0.305-0.076,0.437-0.158c0.021-0.012,0.035-0.027,0.063-0.047
		c-0.01-0.107-0.022-0.076-0.027-0.198c-0.003-0.065,0.008-0.164-0.001-0.226c-0.021-0.149-0.42-0.328-0.574-0.5
		c-0.026-0.03-0.021-0.028-0.055-0.062c-0.069-0.069-0.08-0.048-0.134-0.12c0.041-0.061,0.086-0.113,0.147-0.16l0.433-0.223
		c0.09-0.023,0.162,0.016,0.295,0.016c0,0.122-0.024,0.127,0.058,0.17c-0.166,0.118-0.229,0.004-0.282,0.228
		c0.166,0.228,0.342,0.03,0.51-0.058c-0.021-0.099,0.002-0.014-0.031-0.082c-0.049-0.092-0.006,0.043-0.053-0.088l0.084-0.119
		c0.006-0.006,0.012-0.013,0.019-0.017c0.006-0.006,0.015-0.013,0.021-0.019c0.006-0.004,0.017-0.01,0.021-0.018
		c0.091,0.035,0.12,0.021,0.197,0.004l0.287-0.053c0.009-0.002,0.016-0.006,0.021-0.008l0.113-0.027
		c0.188-0.021,0.217-0.074,0.396-0.085c0.154-0.008,0.188-0.022,0.317-0.077l0.38-0.211c0.121-0.064,0.055,0.032,0.165-0.09
		c0.086-0.092,0.097-0.172,0.188-0.234l0.445-0.373c0.063-0.055,0.094-0.053,0.141-0.115c-0.146-0.069-0.117-0.028-0.313-0.028
		c0.084-0.114,0.136,0.011,0.144-0.255c-0.188-0.043-0.23-0.248-0.395-0.344c-0.064-0.039-0.098-0.043-0.146-0.108
		c0.205-0.108,0.406-0.233,0.649-0.254c-0.015-0.164-0.153-0.131-0.308-0.147c-0.127-0.016-0.266-0.016-0.314,0.119
		c-0.072-0.049-0.145-0.101-0.17-0.197c-0.128,0-0.189,0.017-0.281-0.027c0.039-0.107,0.002-0.066,0.221-0.089
		c0.162-0.017,0.174-0.025,0.203-0.108h0.281c0.049-0.18,0.146-0.15,0.312-0.111c-0.029,0.026,0.015-0.002-0.05,0.035
		c-0.211,0.125-0.116,0.041-0.127,0.211c0,0.006-0.066,0.014,0.014,0.041l0.504-0.146c0.025-0.01-0.034-0.01,0.088-0.027
		c0.125-0.02,0.186,0.03,0.277,0.057c-0.04,0.115-0.057,0.078-0.057,0.197c0.121,0.064,0.104,0.058,0.282,0.058
		c0.024,0.098,0.019,0.028,0.028,0.075l0.056,0.235c-0.097,0.024-0.103,0.05-0.112,0.169c0.138,0.051-0.021,0.016,0.1,0.049
		c0.035,0.011,0.078,0.015,0.119,0.004c0.01,0,0.018-0.004,0.023-0.006l0.223-0.063c0.01-0.002,0.033-0.012,0.041-0.016
		c0.106-0.037,0.313-0.111,0.313-0.25c0.003-0.146-0.226-0.258-0.34-0.34c-0.071-0.051-0.087-0.05-0.11-0.143
		c0.053-0.025,0.036-0.014,0.082-0.029c0.153-0.057,0.243-0.062,0.356-0.18c0.006-0.005,0.012-0.012,0.016-0.016
		c0.015-0.015,0.058-0.053,0.073-0.066c0.104-0.085,0.202-0.114,0.32-0.158c0.063-0.023-0.019,0.002,0.063-0.023
		c0.094-0.033,0.117-0.031,0.215-0.006c0.1,0.023,0.119,0.063,0.229,0.057c0.135-0.012,0.328-0.118,0.464-0.219
		c0.114-0.084,0.171-0.058,0.298-0.004c0.006,0.002,0.014,0.006,0.02,0.008l0.194,0.061c0.39,0.146,0.468,0.018,0.468,0.662
		l-0.468,0.299c-0.208,0.066-0.192,0-0.21-0.044c-0.115,0.011-0.219,0.156-0.255,0.255c-0.226,0-0.435-0.02-0.638,0.039
		l-0.463,0.131c0,0.159,0,0.053-0.084,0.088c-0.127,0.051-0.269-0.05-0.285,0.166c0.158,0.015,0.125,0.101,0.199,0.254
		c0.184,0,0.187-0.008,0.271-0.123c0.099-0.131,0.095-0.15,0.065-0.327c0.098,0.036,0.055,0.026,0.168,0.026L77.589,21.7
		c0.097,0.021,0.141,0.026,0.226-0.032c0.044-0.029,0.017-0.027,0.063-0.035L78,21.648c0.025-0.006,0.078-0.045,0.15-0.063V21.5
		c-0.148,0-0.042,0-0.085-0.027h0.17c0.002,0.004,0.001,0.008,0.002,0.016c0.007,0.127,0.122,0.127,0.252,0.127
		c0.031-0.061,0.039-0.067,0.058-0.143c0.17,0,0.615,0.02,0.733-0.143c0.073,0.02,0.031-0.012,0.058,0.057h0.143
		c0.05-0.137,0.007,0.024,0.063-0.109c0.053-0.137,0.033-0.313,0.164-0.4c0.229-0.16-0.006-0.342-0.057-0.479
		c0.1,0.01,0.102,0.021,0.176,0.053l0.105,0.033c0.008,0.002,0.016,0.004,0.021,0.006l2.543,0.933
		c0.006,0.003,0.014,0.007,0.021,0.009l2.147,0.873c0.006,0.002,0.017,0.006,0.021,0.008l1.01,0.431
		c0.031,0.016,0.049,0.026,0.096,0.049l0.315,0.136c0.006,0.002,0.015,0.006,0.021,0.01l0.057,0.028
		c0.008,0.004,0.029,0.015,0.039,0.019l1.492,0.682c0.008,0.002,0.015,0.006,0.021,0.009c0.007,0.003,0.015,0.009,0.021,0.011
		l0.076,0.035c0.008,0.004,0.015,0.006,0.021,0.01c0.005,0.002,0.033,0.017,0.039,0.02l1.688,0.822
		c0.164,0.095,0.346,0.148,0.512,0.25l0.281,0.146c0.244,0.097,0.459,0.263,0.696,0.376c0.164,0.078-0.114-0.063,0.038,0.021
		c0.006,0.002,0.014,0.006,0.02,0.01l0.183,0.103c0.009,0.004,0.03,0.016,0.039,0.018l0.147,0.078
		c0.006,0.004,0.012,0.009,0.019,0.011l0.353,0.188c0.008,0.004,0.026,0.018,0.034,0.021l1.122,0.628
		c0.064,0.04,0.109,0.063,0.165,0.09c0.062,0.03,0.021,0.004,0.074,0.039c0.005,0.003,0.012,0.008,0.017,0.012l0.051,0.037
		c0.004,0.002,0.012,0.008,0.017,0.01l1.373,0.806c0.041,0.026,0.007,0.006,0.051,0.032l0.242,0.152
		c0.006,0.004,0.013,0.008,0.018,0.012c0.034,0.022,0.011,0.011,0.05,0.035c0.074,0.056,0.088,0.047,0.164,0.092
		c0.006,0.005,0.012,0.009,0.018,0.013l1.904,1.201c0.049,0.03,0.041,0.034,0.078,0.063c0.049,0.035,0.104,0.063,0.153,0.101
		l0.806,0.554c0.006,0.002,0.014,0.007,0.018,0.012c0.064,0.038,0.021,0.004,0.084,0.059l1.568,1.113
		c0.021,0.018,0.022,0.021,0.049,0.035l0.492,0.383c0.045,0.029,0.057,0.03,0.096,0.049l0.146,0.107
		c0.054,0.059,0.038,0.084,0.158,0.098c-0.017-0.14-0.29-0.311-0.411-0.406l-0.412-0.352c-0.09-0.076-0.193-0.18-0.291-0.246
		l-1.91-1.509c-0.252-0.198-0.547-0.388-0.791-0.595L96.88,28.33C83.66,19.182,67.646,13.827,50.377,13.827L50.377,13.827z
		 M81.479,29.499c0-0.06-0.005-0.013,0.03-0.01c0.084,0.009-0.004-0.058,0.013,0.01C81.541,29.563,81.479,29.53,81.479,29.499
		L81.479,29.499z M50.33,16.612c-0.068-0.041-0.038-0.007-0.057-0.084h0.085C50.345,16.581,50.351,16.574,50.33,16.612L50.33,16.612
		z M78.373,26.9c0.002-0.102,0.074-0.145,0.112,0H78.373L78.373,26.9z M0.004,31.646c0.025-0.019,0.072-0.045,0.099-0.071
		c0.047-0.05,0.064,0.013,0.014-0.099C0.008,31.557,0.013,31.563,0.004,31.646L0.004,31.646z M75.181,25.654
		c0.004-0.094,0.05-0.084,0.143-0.086v0.086H75.181L75.181,25.654z M81.196,32.493c-0.034,0.101-0.127,0.133-0.141-0.027
		C81.166,32.469,81.123,32.458,81.196,32.493L81.196,32.493z M58.435,16.273c0.035-0.043,0.29-0.028,0.367-0.028
		c-0.004,0.158-0.016,0.17-0.282,0.17C58.464,16.332,58.462,16.376,58.435,16.273L58.435,16.273z M50.358,20.991v-0.084h0.649
		c-0.014,0.155-0.053,0.104-0.084,0.227h-0.229c-0.03-0.077-0.002-0.024-0.075-0.063l-0.08-0.033
		C50.479,21.014,50.422,20.998,50.358,20.991L50.358,20.991z M74.814,23.027c0.079-0.021,0.033-0.01,0.102-0.067
		c0.004-0.004,0.01-0.011,0.018-0.015c0.229-0.191,0.382-0.055,0.213,0.186L75.11,23.18c-0.065,0.092-0.063,0.071-0.149,0.131
		C74.835,23.23,74.814,23.225,74.814,23.027L74.814,23.027z M65.58,25.486c0-0.123,0.02-0.045,0.041-0.155
		c0.01-0.042,0.014-0.127,0.022-0.149c0.042-0.106,0.099-0.08,0.173-0.02c0.025,0.021,0.012,0.014,0.044,0.044
		c0.101,0.094,0.284,0.302,0.313,0.423c-0.041,0.027-0.148,0.113-0.198,0.113C65.792,25.738,65.58,25.68,65.58,25.486L65.58,25.486z
		 M81.225,32.748c0,0.016-0.144,0.227-0.177,0.249c-0.073,0.048-0.213,0.089-0.301,0.062c-0.006-0.002-0.016-0.004-0.021-0.008
		c-0.006-0.002-0.016-0.005-0.021-0.008c-0.113-0.046-0.104-0.052-0.215-0.154c-0.094-0.089-0.134-0.146-0.145-0.279
		c0.087,0,0.158-0.008,0.24,0.013c0.473,0.104,0.11-0.013,0.604-0.013C81.21,32.671,81.225,32.672,81.225,32.748L81.225,32.748z
		 M75.21,25.458c0.17-0.017,0.104-0.079,0.27-0.13c0.091-0.027,0.092-0.014,0.162,0.008c0.081,0.021-0.025,0.055,0.12,0l0.278-0.096
		c0.123-0.047,0.104-0.117,0.299-0.123c-0.012,0.142-0.021,0.048-0.112,0.228c0.28,0.421-0.197,0.197-0.198,0.197
		c0.033,0.067,0.073,0.196-0.056,0.196c-0.209,0-0.035,0.008-0.159-0.039c-0.145-0.053-0.131-0.03-0.145-0.131
		c-0.01-0.08,0.035-0.041-0.01-0.09c-0.056-0.059-0.354,0.062-0.449,0.063V25.458L75.21,25.458z M45.303,18.562l0.165-0.089
		c0.008-0.003,0.032-0.013,0.041-0.016c0.179-0.074,0.514-0.192,0.67,0.02c-0.035,0.129-0.045,0.049-0.084,0.142
		c-0.047,0.112-0.014-0.013,0.028,0.141l-0.427,0.138c-0.164,0.046-0.292,0.06-0.505,0.06c0.012-0.137,0.031-0.1,0.078-0.177
		C45.323,18.689,45.303,18.695,45.303,18.562L45.303,18.562z M74.843,24.214c0-0.151,0.045-0.231,0.057-0.366
		c0.251,0,0.405-0.004,0.439,0.127c0.041,0.156-0.098,0.293-0.215,0.324c0.033,0.119,0.033,0.055,0.063,0.104
		c0.032,0.054,0.033,0.063,0.047,0.121c0.136-0.09,0.147-0.146,0.427,0v0.17c-0.084,0.021-0.047,0.014-0.113,0.059
		c-0.098-0.063-0.063-0.093-0.152-0.13l-0.197-0.06c-0.063-0.017-0.091-0.012-0.158-0.012c0.043,0.028-0.063,0.028,0.082,0.029
		l0.031,0.169c-0.099,0-0.084,0.017-0.145-0.026c-0.006-0.004-0.012-0.01-0.016-0.014c-0.043-0.044-0.033-0.092-0.033-0.092
		l-0.004-0.036c-0.012-0.054-0.031-0.041-0.002-0.171c-0.152,0.072-0.146,0.014-0.211-0.127c-0.018-0.03-0.027-0.049-0.043-0.071
		L74.843,24.214L74.843,24.214z M42.422,16.895L42.422,16.895L42.422,16.895z M43.185,16.838c0.111,0,0.002-0.021,0.121-0.048
		c0.103-0.024,0.314,0.005,0.464-0.017c0.367-0.052,0.406,0.05,0.544,0.064v0.169c-0.162,0.014-0.012-0.005-0.13,0.04l-0.041,0.016
		c-0.008,0.003-0.033,0.012-0.041,0.015c-0.119,0.043-0.068,0.029-0.209,0.045c-0.108,0.013-0.127,0.02-0.258,0.024
		c-0.24,0.009-0.122,0.058-0.197,0.058c-0.085,0-0.137-0.038-0.205-0.05c-0.07-0.012-0.146-0.008-0.219-0.007
		c-0.191,0.002-0.257-0.028-0.424-0.028l0.023-0.081c0.015-0.058,0.025,0.024,0.005-0.033h-0.282c-0.034-0.073-0.021-0.055,0-0.141
		h-0.142v-0.085c0.102,0,0.213-0.004,0.313-0.001c0.199,0.005,0.131,0.058,0.224,0.058h0.454V16.838z M75.774,26.418
		c0.044-0.117,0.104-0.145,0.226-0.084c-0.026,0.04-0.022,0.027-0.053,0.059l-0.27,0.188c-0.186,0.046-0.014-0.046-0.297-0.05
		l-0.539,0.002c-0.094,0.441,0.482,0.084,0.594,0.084c0.16,0,0.095,0.054,0.085,0.171c-0.095,0-0.158-0.013-0.235,0.019l-0.16,0.15
		c0.18,0,0.199,0.021,0.199,0.197c0.071,0,0.209-0.01,0.152,0.146c-0.03,0.088-0.083,0.125-0.184,0.137
		c-0.037-0.158-0.021-0.051-0.201-0.195c-0.104-0.082-0.137-0.084-0.137-0.258c-0.235,0.271-0.018,0.041-0.113,0.453h-0.197v-0.313
		c-0.114,0-0.091,0.009-0.169-0.028l0.046-0.123c0.09-0.201-0.003-0.093,0.1-0.24c0.151-0.223-0.031-0.248,0.146-0.306
		C74.857,26.402,75.617,26.418,75.774,26.418L75.774,26.418z M46.093,18.025c0.03,0,0.116-0.049,0.155-0.071
		c0.071-0.042,0.055-0.07,0.128-0.07c0.399,0,0.269,0.035,0.305,0.085c0.093,0.127,0.147-0.021,0.344,0.084
		c-0.088,0.133-0.115,0.07-0.197,0.228c0.328,0,0.203,0.055,0.278,0.145c0.101,0.122,0.131-0.015,0.247,0.12l0.023,0.034
		c0.003,0.005,0.007,0.012,0.011,0.017c0.003,0.005,0.008,0.012,0.011,0.017c0.108,0.132,0.143,0.022,0.342,0.107
		c0.069,0.029,0.103,0.011,0.103,0.097c0,0.113,0.003,0.021-0.047,0.068l-0.047,0.032c-0.058,0.053-0.022,0.014-0.037,0.069
		c-0.041,0.161,0.05-0.074-0.011,0.057c-0.246,0-0.772-0.038-0.981,0.036l-0.087,0.022c-0.104,0.028-0.165,0.054-0.315,0.054
		c0.022-0.085,0-0.032,0.052-0.089l0.046-0.039c0.005-0.002,0.013-0.006,0.018-0.01c0.109-0.065,0.064,0.012,0.138-0.088
		c-0.119,0-0.114,0.012-0.198-0.028v-0.085c0.131-0.011,0.049,0.031,0.113-0.056c-0.171-0.004-0.083,0.019-0.113-0.057
		c0.093-0.044,0.102-0.026,0.228-0.026c0.189,0,0.241-0.051,0.089-0.176c-0.106-0.088-0.208-0.051-0.374-0.051
		c0.04-0.149,0.051-0.063,0.028-0.114c-0.11,0.009-0.074,0.026-0.198,0.028c-0.066-0.283-0.141,0.084-0.141-0.339H46.093
		L46.093,18.025z M57.475,29.188c0-0.071,0.087-0.225,0.278-0.258c0.424-0.076,0.138-0.021,0.391-0.117
		c0.279-0.109,0.077,0.031,0.305-0.203c0.063-0.068,0.078-0.047,0.147-0.105l0.12-0.135c0.242,0.162,0.07,0.361,0.228,0.425
		c-0.004,0.14-0.003,0.138-0.142,0.142c0,0.27-0.029,0.412-0.215,0.689c-0.002,0.005-0.008,0.012-0.012,0.018
		c-0.031,0.047-0.011,0.01-0.037,0.051l-0.021,0.031c-0.034,0.053-0.078,0.119-0.109,0.176c-0.084,0.144-0.117,0.313-0.183,0.381
		c-0.06,0.062-0.534,0.199-0.754-0.014c-0.005-0.004-0.011-0.01-0.015-0.015c-0.004-0.004-0.013-0.012-0.017-0.017
		c-0.073-0.09-0.069-0.157-0.104-0.266c-0.047-0.158-0.041-0.145,0.111-0.302C57.718,29.391,57.475,29.443,57.475,29.188
		L57.475,29.188z M71.255,27.49c-0.062-0.039-0.063-0.059-0.127-0.1c-0.021-0.011-0.063-0.031-0.073-0.037
		c-0.039-0.021-0.015-0.011-0.056-0.031c-0.097-0.051-0.182-0.088-0.271-0.149c-0.221-0.151-0.204-0.075-0.346-0.306
		c-0.139-0.225-0.2-0.172-0.325-0.297c-0.207-0.205,0.021-0.18-0.423-0.424c-0.141-0.078-0.455-0.219-0.504-0.322
		c-0.084-0.176,0.08-0.065,0.203-0.059c0.129,0.012,0.219-0.025,0.32,0.02l0.055,0.033c0.246,0.16,0.146,0.136,0.396,0.254
		c0.211,0.103,0.063,0.115,0.274,0.147c0.219,0.035,0.17,0.062,0.39,0.146c0.006,0.004,0.013,0.007,0.021,0.009l0.326,0.125
		c-0.02,0.073-0.049,0.104-0.084,0.17c0.104,0.057,0.248,0.1,0.281,0.227h0.086c0.034-0.127,0.086-0.084,0.254-0.084
		c0.028,0.104,0.061,0.114,0.17,0.143v0.085c-0.152,0.034-0.06,0.004-0.227,0v0.366c0.221,0,0.078,0.012,0.226,0.058
		c0.179,0.058,0.228-0.006,0.392,0.091c0.113,0.066,0.158,0.081,0.342,0.021c0.297-0.104,0.258,0.03,0.258,0.03h0.283
		c0.029,0.136,0.014,0.103,0.156,0.125l0.406,0.019v0.142c-0.302,0-0.176-0.014-0.38-0.046c-0.153-0.024-0.1,0.027-0.262,0.013
		l-0.421-0.033c-0.387-0.108-0.344,0.007-0.557-0.063c-0.076-0.024,0.053-0.01-0.107-0.034c-0.434-0.065-0.16-0.058-0.365-0.086
		c-0.035-0.005-0.102-0.002-0.141-0.002c0.019-0.162,0.041-0.01,0.084-0.195C71.333,27.438,71.386,27.462,71.255,27.49L71.255,27.49
		z M72.725,26.334c0.015-0.066,0.013-0.072,0.054-0.116c0.002-0.002,0.037-0.028,0.049-0.036c0.006-0.002,0.014-0.007,0.021-0.01
		c0.006-0.002,0.014-0.006,0.021-0.008c0.145-0.063,0.322-0.096,0.418-0.146c0.221-0.131-0.05-0.045,0.375-0.19
		c0.27-0.093,0.073-0.254,0.592-0.254c0.033,0.122,0.065,0.104,0.188,0.149c0.008,0.002,0.014,0.008,0.02,0.01
		c0.146,0.058,0.145,0.052,0.162,0.121c-0.205,0-0.291,0.097-0.396,0.256c0.041,0.057,0.011,0.005,0.041,0.043
		c0.032,0.046,0.006,0.005,0.032,0.054c0.039,0.069-0.016,0.011,0.049,0.094c0.093,0.119,0.094,0.005,0.133,0.148
		c-0.087,0.043-0.016,0.026-0.255,0.026l-0.028,0.228c-0.046,0.021-0.082,0.022-0.123,0.047c-0.111,0.063-0.131,0.249-0.131,0.379
		c-0.072,0.008-0.035,0.021-0.123,0.045c-0.039,0.011-0.089,0.019-0.132,0.017c-0.262-0.006-0.067-0.09-0.228-0.09
		c-0.149,0,0.037,0.043-0.121,0.01c-0.125-0.025,0.027-0.037-0.104-0.037c-0.259,0,0.11,0.07-0.396,0.002
		c-0.354-0.049-0.189-0.021-0.366-0.113c0-0.113-0.011-0.092,0.026-0.169c-0.149,0-0.195-0.021-0.223-0.146
		c-0.021-0.104-0.031-0.224-0.031-0.338C72.382,26.277,72.561,26.33,72.725,26.334L72.725,26.334z M77.723,26.927l-0.44-0.096
		c-0.053-0.017-0.14-0.063-0.166-0.122c-0.039-0.082-0.017-0.148,0.07-0.148c0.281,0,0.119,0.01,0.152,0.06
		c0.035,0.052-0.129,0.056,0.242,0.056c0.021-0.054-0.058-0.066,0.104-0.056c0.021,0,0.294,0.069,0.318,0.106
		c0.106,0.146-0.092,0.131,0.226,0.344c0.047-0.014,0.201-0.088,0.229-0.107c0.045-0.029,0.02-0.009,0.047-0.039
		c0.097-0.104,0-0.105,0.119-0.105h0.396c0.083,0,0.033,0.022,0.14,0.062l0.975,0.211c0.556,0.128,0.305,0.095,0.595,0.281
		c0.079,0.053,0.085,0.026,0.168,0.06l0.076,0.036c0.075,0.033,0.019,0.026,0.14,0.029v0.142h-0.142
		c0.052,0.071,0.05,0.045,0.116,0.108c0.004,0.006,0.01,0.012,0.015,0.017c0.004,0.004,0.01,0.012,0.015,0.017
		c0.271,0.274,0.338,0.028,0.393,0.229h0.084c0.029-0.127,0.074-0.143,0.229-0.143c0.184,0,0.094,0.028,0.085,0.063
		c-0.01,0.055,0.005-0.017-0.021,0.04c-0.002,0.001-0.066,0.015,0.052,0.12l0.319,0.1c0.088,0.039,0.211,0.071,0.24,0.158
		c-0.072,0.036,0.023,0.027-0.084,0.027c-0.152,0-0.104-0.087-0.168-0.087c-0.363,0-0.129,0.104-0.461-0.049l-0.246-0.063
		c-0.098-0.005-0.554-0.105-0.648-0.197c-0.114-0.104-0.281-0.196-0.367-0.196c-0.482,0-0.234,0.026-0.404,0.159
		c-0.104,0.082-0.502,0.037-0.543,0.024l-0.308-0.147c-0.11-0.041-0.063-0.002-0.187,0.019c-0.06,0.009-0.164,0.003-0.228,0.003
		c0.021-0.229,0.117-0.088,0.17-0.281c-0.077-0.113-0.161-0.138-0.313-0.193l-0.564-0.168c-0.156-0.033-0.391,0.08-0.561-0.176
		c0.051-0.07,0.02-0.022,0.063-0.051c0.007-0.004,0.032-0.017,0.038-0.019L77.723,26.927L77.723,26.927z M79.417,29.159
		c0.244,0,0.244-0.714,0.299-0.89c0.035-0.113,0.027,0.031,0.041-0.131h0.168c0.037,0.154,0.135,0.24,0.18,0.389
		c0.066,0.222,0.125,0.115,0.316,0.222c0.123,0.065,0.086,0.065,0.146,0.192c0.22,0.474,0.187,0.457,0.427,0.504l0.244,0.097
		c0.11,0.046-0.027,0.026,0.129,0.041c0.01,0.121,0.082,0.165,0.143,0.255c0.215-0.021-0.045-0.033,0.171-0.058
		c0.073,0.165-0.069,0.011,0.071,0.179c0.108,0.129,0.265,0.215,0.406,0.302c0.008,0.005,0.027,0.019,0.035,0.021
		c0.088,0.046-0.057,0.021,0.105,0.034c0,0.106-0.006,0.168,0.017,0.268c0.063,0.294,0.021,0.674-0.167,0.827
		c-0.195,0.159-0.166-0.004-0.396,0.394c-0.383,0.653-0.313,0.311-0.738,0.477c-0.297,0.113-0.208,0.113-0.455,0.045
		c-0.008-0.002-0.016-0.004-0.02-0.004c-0.004-0.002-0.014-0.002-0.018-0.002c-0.008-0.002-0.029-0.002-0.037-0.004
		c-0.109-0.02-0.025-0.065-0.188-0.021c-0.121,0.033-0.053,0.061-0.146,0.061c-1.249,0-0.747-0.604-1.29-0.414
		c-0.007,0.002-0.013,0.006-0.021,0.008c-0.104,0.031-0.272,0.021-0.354-0.02c0.103-0.139,0.521,0.061,0.396-0.195
		c-0.072,0.029-0.053-0.061-0.057,0.11h-0.197c0.02-0.209,0.138-0.067,0.143-0.313c-0.199,0.104-0.27,0.256-0.536,0.256
		c-0.001-0.006-0.063-0.158-0.063-0.161c-0.049-0.079-0.4-0.225-0.418-0.229c-0.149-0.061-0.549-0.092-0.762-0.092
		c-0.156,0-0.47,0.143-0.533,0.143c-0.229,0-0.119-0.063-0.351-0.01c-0.03,0.006-0.05,0.006-0.071,0.012
		c-0.189,0.043-0.359,0.199-0.65,0.197c-0.157,0-0.377-0.026-0.521,0.02l-0.078,0.029c-0.201,0.06-0.308,0.084-0.533,0.093
		c-0.158,0.005-0.106,0.022-0.184,0.036c-0.104,0.021-0.32-0.096-0.438-0.12c0.019-0.206,0.183-0.106,0.115-0.341
		c-0.057-0.191-0.134-0.398-0.305-0.574l-0.177-0.189c-0.062-0.076-0.062-0.037-0.089-0.14c0.051-0.073,0.029-0.075,0.143-0.084
		V30.32c-0.063-0.022-0.045-0.016-0.08-0.063c-0.113-0.159,0.074-0.153,0.08-0.419c0.059,0,0.104,0.006,0.159-0.011
		c0.065-0.022,0.002,0,0.058-0.029c0.311-0.175,0.674-0.214,1.025-0.271l0.479-0.145c0.067-0.029,0.119-0.063,0.199-0.082
		c0-0.242,0.114-0.303,0.287-0.197l-0.031-0.17c0.125,0.004,0.088,0.021,0.196,0.028c0.074-0.155,0.021-0.147,0.192-0.229
		c0.109-0.053,0.332-0.148,0.451-0.137l0.223,0.094c0.508,0.302,0.102-0.271,0.998-0.35c-0.063-0.087,0.018-0.046-0.113-0.059
		v-0.084c0.23,0,0.107,0.011,0.27,0.072c0.178,0.067,0.651,0.098,0.86,0.098c-0.004,0.18-0.054,0.095-0.255,0.367
		c0.059,0.086,0.115,0.115,0.212,0.154l0.384,0.127c0.006,0.004,0.014,0.008,0.021,0.01c0.056,0.021,0.075,0.018,0.132,0.035
		C79.227,29.123,79.21,29.159,79.417,29.159L79.417,29.159z M54.904,22.18c0.034,0.055,0.031-0.063,0.023,0.059
		c-0.004,0.06-0.004,0.022-0.023,0.056V22.18L54.904,22.18z M53.774,20.54h0.142v0.026h-0.142V20.54L53.774,20.54z M31.634,19.493
		l0.008,0.01C31.642,19.502,31.631,19.497,31.634,19.493L31.634,19.493z M31.775,19.439c-0.038,0.027,0.059,0.027-0.085,0.027
		C31.725,19.441,31.659,19.448,31.775,19.439L31.775,19.439z M31.803,19.409l-0.028,0.028L31.803,19.409z M31.803,19.409
		c0.046-0.039,0.1-0.076,0.174-0.076c0.057-0.001-0.016-0.041,0.08,0.021C31.973,19.373,31.896,19.402,31.803,19.409L31.803,19.409z
		 M63.771,16.725v-0.057c0.175-0.019-0.012-0.041,0.211-0.069c0.074-0.01,0.158,0.012,0.27,0.012
		C64.113,16.7,63.994,16.725,63.771,16.725L63.771,16.725z M41.659,16.019l0.138,0.031c0.17,0.056,0.193,0.022,0.257,0.11h-0.396
		L41.659,16.019L41.659,16.019z"/>
	<path fill="#2ECC71" d="M21.041,3.5h10.016c1.984,0,3.607,1.624,3.607,3.607v10.016c0,1.982-1.623,3.605-3.607,3.605H21.041
		c-1.984,0-3.607-1.623-3.607-3.605V7.107C17.434,5.123,19.057,3.5,21.041,3.5L21.041,3.5z M32.066,18.668
		c0.307,0,0.307-0.47,0-0.47h-9.675c-0.409-0.035-0.845-0.423-0.84-0.769v-0.261v-1.349v-3.796v-0.47h-1.549h-0.26
		c-0.307,0-0.307,0.47,0,0.47h0.26v3.805v1.34V17.4c0.043,0.992,1.531,1.264,2.234,1.269L32.066,18.668L32.066,18.668z
		 M20.001,11.026h1.549v-0.957c0-0.283-0.347-0.512-0.775-0.512c-0.428,0-0.774,0.229-0.774,0.512V11.026L20.001,11.026z
		 M23.471,9.968c-0.307,0-0.307,0.47,0,0.47h5.274c0.307,0,0.307-0.47,0-0.47H23.471L23.471,9.968z M28.344,13.933h0.017H28.344
		L28.344,13.933L28.344,13.933z M25.549,16.946c-0.409-0.035-0.845-0.423-0.84-0.768v-3.754h4.903c0.307,0,0.307-0.47,0-0.47h-7.008
		c-0.307,0-0.307,0.47,0,0.47h0.551c-0.006,0.95,0.004,3.268,0.004,3.724c0.043,0.992,1.531,1.263,2.234,1.268h1.486
		c0.703-0.005,2.191-0.276,2.234-1.268v-1.549c5.874-0.279,4.5-5.737,1.247-6.035c-0.27-3.565-5.385-4.557-7.385-1.831
		c-1.302-0.451-2.856,0.27-2.925,1.945c0.233-0.127,0.484-0.193,0.752-0.196c0.21-0.94,1.259-1.501,2.14-1.037l0.276,0.146
		l0.165-0.265c1.593-2.565,6.345-1.667,6.322,1.557L29.702,9.22c3.33-0.126,4.176,4.874-1.26,4.718
		c-0.026-0.002-0.053-0.004-0.08-0.005H28.34c-0.428,0-0.775,0.229-0.775,0.512v1.733c0.004,0.345-0.432,0.733-0.84,0.768H25.549
		L25.549,16.946z"/>
	<path fill="#2ECC71" d="M42.429,5.826h6.022c0.36,0,0.36,0.552,0,0.552h-6.022C42.068,6.379,42.068,5.826,42.429,5.826z"/>
	<polygon fill="#2ECC71" points="39.328,20.559 39.328,17.913 40.776,17.913 40.776,18.151 39.594,18.151 39.594,19.104 
		40.736,19.104 40.736,19.341 39.594,19.341 39.594,20.318 40.776,20.318 40.776,20.559 	"/>
	<path fill="#2ECC71" d="M40.984,20.559l1.133-2.646h0.294l1.135,2.646h-0.289l-0.381-0.893h-1.23l-0.387,0.893H40.984
		L40.984,20.559z M41.747,19.428L41.747,19.428h1.027l-0.51-1.213L41.747,19.428z"/>
	<path fill="#2ECC71" d="M43.624,19.818h0.283c0.015,0.146,0.057,0.267,0.125,0.354c0.046,0.061,0.108,0.107,0.184,0.145
		c0.076,0.035,0.154,0.056,0.234,0.056c0.069,0,0.14-0.017,0.211-0.047c0.072-0.031,0.132-0.072,0.181-0.125
		c0.095-0.101,0.143-0.22,0.143-0.355c0-0.151-0.061-0.278-0.182-0.382c-0.083-0.068-0.22-0.129-0.41-0.179
		c-0.137-0.034-0.24-0.067-0.31-0.101s-0.132-0.076-0.187-0.133c-0.124-0.123-0.186-0.28-0.186-0.473
		c0-0.196,0.067-0.361,0.201-0.494c0.145-0.145,0.325-0.217,0.542-0.217c0.208,0,0.382,0.069,0.522,0.207
		c0.14,0.138,0.211,0.309,0.211,0.511h-0.277c-0.01-0.143-0.059-0.258-0.148-0.347c-0.088-0.089-0.198-0.133-0.329-0.133
		c-0.123,0-0.226,0.042-0.312,0.124c-0.097,0.094-0.145,0.208-0.145,0.341c0,0.133,0.042,0.235,0.125,0.306
		c0.068,0.058,0.2,0.114,0.393,0.167c0.158,0.044,0.265,0.078,0.321,0.102c0.055,0.023,0.112,0.063,0.172,0.109
		c0.083,0.068,0.147,0.154,0.193,0.258c0.046,0.103,0.069,0.208,0.069,0.319c0,0.202-0.073,0.38-0.221,0.53
		c-0.159,0.164-0.354,0.246-0.586,0.246c-0.137,0-0.264-0.029-0.382-0.086c-0.118-0.06-0.215-0.14-0.29-0.24
		C43.681,20.152,43.631,20,43.624,19.818z"/>
	<polygon fill="#2ECC71" points="46.246,20.559 46.246,19.675 45.328,17.913 45.621,17.913 46.376,19.4 47.151,17.913 
		47.439,17.913 46.512,19.675 46.512,20.559 	"/>
	<path fill="#2ECC71" d="M49.976,17.865c0.283,0,0.543,0.08,0.784,0.238c0.216,0.143,0.378,0.328,0.486,0.554
		c0.086,0.182,0.129,0.375,0.129,0.577c0,0.354-0.121,0.658-0.361,0.92c-0.126,0.137-0.274,0.242-0.443,0.318
		c-0.189,0.09-0.386,0.133-0.588,0.133c-0.286,0-0.548-0.078-0.788-0.238c-0.214-0.143-0.376-0.325-0.484-0.553
		c-0.088-0.184-0.132-0.381-0.132-0.595c0-0.229,0.06-0.448,0.178-0.654c0.125-0.218,0.303-0.392,0.533-0.521
		C49.495,17.929,49.726,17.869,49.976,17.865L49.976,17.865z M49.975,18.103L49.975,18.103c-0.315,0-0.584,0.114-0.809,0.343
		c-0.105,0.107-0.186,0.231-0.242,0.372c-0.056,0.137-0.083,0.273-0.083,0.411c0,0.285,0.093,0.535,0.278,0.75
		c0.107,0.119,0.234,0.215,0.382,0.283c0.152,0.07,0.312,0.106,0.478,0.106c0.229,0,0.442-0.067,0.637-0.202
		c0.174-0.12,0.305-0.273,0.393-0.466c0.066-0.146,0.101-0.302,0.101-0.464c0-0.206-0.054-0.398-0.159-0.58
		c-0.109-0.181-0.26-0.322-0.453-0.424C50.339,18.149,50.165,18.106,49.975,18.103z"/>
	<path fill="#2ECC71" d="M51.8,20.559v-2.646h0.738c0.164,0,0.297,0.012,0.4,0.035c0.104,0.023,0.199,0.063,0.285,0.118
		c0.102,0.066,0.178,0.154,0.234,0.264c0.063,0.114,0.094,0.24,0.094,0.378c0,0.256-0.098,0.456-0.284,0.599
		c-0.16,0.123-0.382,0.186-0.665,0.186h-0.539v1.066H51.8L51.8,20.559z M52.066,19.253L52.066,19.253h0.496
		c0.223,0,0.387-0.034,0.495-0.104c0.071-0.045,0.127-0.106,0.169-0.188c0.041-0.08,0.063-0.166,0.063-0.258
		c0-0.157-0.056-0.288-0.166-0.39c-0.092-0.084-0.207-0.135-0.351-0.153c-0.049-0.007-0.155-0.01-0.321-0.01h-0.385V19.253z"/>
	<polygon fill="#2ECC71" points="53.933,20.559 53.933,17.913 55.38,17.913 55.38,18.151 54.199,18.151 54.199,19.104 
		55.341,19.104 55.341,19.341 54.199,19.341 54.199,20.318 55.38,20.318 55.38,20.559 	"/>
	<path fill="#2ECC71" d="M55.854,20.559v-2.646h0.673c0.27,0,0.467,0.025,0.594,0.074c0.135,0.052,0.248,0.131,0.338,0.238
		c0.129,0.154,0.192,0.335,0.192,0.543c0,0.221-0.073,0.406-0.221,0.558c-0.146,0.15-0.335,0.232-0.563,0.246l0.745,0.986H57.28
		l-0.897-1.197c0.197,0,0.33-0.002,0.397-0.008c0.068-0.008,0.134-0.021,0.193-0.039c0.12-0.041,0.218-0.106,0.29-0.199
		c0.081-0.104,0.121-0.224,0.121-0.356c0-0.15-0.051-0.282-0.152-0.396c-0.066-0.076-0.15-0.13-0.25-0.163
		c-0.1-0.033-0.232-0.048-0.398-0.048h-0.463v2.409h-0.267V20.559z"/>
	<path fill="#2ECC71" d="M57.824,20.559l1.133-2.646h0.295l1.138,2.646H60.1l-0.384-0.893h-1.229L58.1,20.559H57.824L57.824,20.559z
		 M58.587,19.428L58.587,19.428h1.023l-0.509-1.213L58.587,19.428z"/>
	<polygon fill="#2ECC71" points="60.878,20.559 60.878,18.151 60.267,18.151 60.267,17.913 61.746,17.913 61.746,18.151 
		61.144,18.151 61.144,20.559 	"/>
	<rect x="62.08" y="17.913" fill="#2ECC71" width="0.268" height="2.646"/>
	<polygon fill="#2ECC71" points="62.914,20.559 62.914,17.913 63.273,17.913 64.755,20.111 64.755,17.913 65.021,17.913 
		65.021,20.559 64.755,20.559 63.18,18.233 63.18,20.559 	"/>
	<path fill="#2ECC71" d="M66.47,19.341h1.796c-0.024,0.313-0.144,0.582-0.354,0.812c-0.134,0.144-0.293,0.254-0.475,0.334
		c-0.184,0.08-0.373,0.121-0.568,0.121c-0.354,0-0.67-0.117-0.938-0.353c-0.155-0.133-0.275-0.292-0.36-0.479
		c-0.081-0.178-0.118-0.357-0.118-0.545c0-0.27,0.077-0.521,0.236-0.753c0.141-0.203,0.314-0.359,0.534-0.467
		c0.194-0.097,0.409-0.145,0.642-0.145c0.328,0,0.617,0.097,0.867,0.291c0.193,0.15,0.318,0.304,0.376,0.462h-0.3
		c-0.073-0.131-0.188-0.245-0.335-0.34c-0.185-0.117-0.386-0.175-0.604-0.175c-0.217,0-0.418,0.056-0.604,0.169
		c-0.182,0.108-0.321,0.258-0.422,0.449c-0.086,0.165-0.129,0.335-0.129,0.513c0,0.221,0.063,0.428,0.189,0.623
		c0.112,0.172,0.266,0.305,0.457,0.396c0.167,0.077,0.34,0.116,0.52,0.116c0.302,0,0.563-0.107,0.781-0.322
		c0.146-0.145,0.241-0.299,0.284-0.467H66.47V19.341z"/>
	<path fill="#2ECC71" d="M69.446,19.818h0.282c0.016,0.146,0.059,0.267,0.126,0.354c0.046,0.061,0.106,0.107,0.185,0.145
		c0.076,0.037,0.153,0.056,0.233,0.056c0.069,0,0.14-0.017,0.211-0.047c0.072-0.031,0.132-0.072,0.183-0.125
		c0.094-0.101,0.145-0.22,0.145-0.355c0-0.151-0.063-0.278-0.184-0.382c-0.084-0.068-0.221-0.129-0.41-0.179
		c-0.137-0.034-0.237-0.067-0.311-0.101c-0.07-0.033-0.132-0.076-0.188-0.133c-0.122-0.123-0.186-0.28-0.186-0.473
		c0-0.196,0.065-0.361,0.199-0.494c0.146-0.145,0.325-0.217,0.542-0.217c0.208,0,0.384,0.069,0.521,0.207
		c0.142,0.138,0.211,0.309,0.211,0.511H70.73c-0.01-0.143-0.063-0.258-0.146-0.347c-0.088-0.089-0.197-0.133-0.33-0.133
		c-0.123,0-0.228,0.042-0.313,0.124c-0.098,0.094-0.146,0.208-0.146,0.341c0,0.133,0.041,0.235,0.125,0.306
		c0.068,0.058,0.199,0.114,0.396,0.167c0.158,0.044,0.269,0.078,0.319,0.102c0.057,0.023,0.111,0.063,0.173,0.109
		c0.083,0.068,0.146,0.154,0.19,0.258c0.047,0.103,0.069,0.208,0.069,0.319c0,0.202-0.073,0.38-0.221,0.53
		c-0.158,0.164-0.354,0.246-0.587,0.246c-0.137,0-0.264-0.029-0.383-0.086c-0.117-0.06-0.213-0.14-0.289-0.24
		C69.503,20.152,69.453,20,69.446,19.818z"/>
	<polygon fill="#2ECC71" points="71.509,20.559 71.509,17.913 72.957,17.913 72.957,18.151 71.774,18.151 71.774,19.104 
		72.917,19.104 72.917,19.341 71.774,19.341 71.774,20.318 72.957,20.318 72.957,20.559 	"/>
	<path fill="#2ECC71" d="M73.432,20.559v-2.646h0.672c0.269,0,0.467,0.025,0.595,0.074c0.135,0.052,0.246,0.131,0.336,0.238
		c0.129,0.154,0.194,0.335,0.194,0.543c0,0.221-0.074,0.406-0.222,0.558c-0.146,0.15-0.336,0.232-0.564,0.246l0.746,0.986h-0.331
		l-0.897-1.197c0.195,0,0.33-0.002,0.397-0.008c0.067-0.008,0.132-0.021,0.192-0.039c0.121-0.041,0.219-0.106,0.291-0.199
		c0.08-0.104,0.121-0.224,0.121-0.356c0-0.15-0.051-0.282-0.152-0.396c-0.066-0.076-0.15-0.13-0.25-0.163
		c-0.102-0.032-0.232-0.048-0.398-0.048h-0.463v2.409h-0.267V20.559z"/>
	<polygon fill="#2ECC71" points="76.4,20.559 75.31,17.913 75.601,17.913 76.533,20.229 77.47,17.913 77.755,17.913 76.658,20.559 	
		"/>
	<rect x="78.03" y="17.913" fill="#2ECC71" width="0.267" height="2.646"/>
	<path fill="#2ECC71" d="M81.026,19.864h0.294c-0.124,0.229-0.295,0.409-0.513,0.543c-0.218,0.133-0.453,0.196-0.706,0.196
		c-0.245,0-0.477-0.061-0.691-0.182c-0.229-0.131-0.408-0.313-0.533-0.542c-0.104-0.2-0.155-0.415-0.155-0.644
		c0-0.269,0.067-0.514,0.209-0.736c0.136-0.217,0.317-0.382,0.555-0.496c0.195-0.094,0.399-0.141,0.615-0.141
		c0.323,0,0.61,0.101,0.86,0.303c0.174,0.14,0.291,0.281,0.353,0.423h-0.294c-0.081-0.12-0.186-0.22-0.305-0.299
		c-0.188-0.125-0.396-0.188-0.615-0.188c-0.204,0-0.396,0.06-0.586,0.178c-0.176,0.11-0.309,0.26-0.4,0.45
		c-0.084,0.169-0.126,0.338-0.126,0.506c0,0.209,0.062,0.408,0.183,0.6c0.107,0.178,0.262,0.313,0.453,0.409
		c0.16,0.081,0.319,0.122,0.479,0.122c0.109,0,0.229-0.021,0.345-0.063c0.117-0.039,0.226-0.095,0.313-0.164
		C80.847,20.077,80.936,19.986,81.026,19.864z"/>
	<polygon fill="#2ECC71" points="81.71,20.559 81.71,17.913 83.158,17.913 83.158,18.151 81.976,18.151 81.976,19.104 
		83.119,19.104 83.119,19.341 81.976,19.341 81.976,20.318 83.158,20.318 83.158,20.559 	"/>
	<path fill="#2ECC71" d="M79.966,4.075l1.518-0.382c0.631-0.158,0.568,1.346-0.018,1.561l-1.518,0.381
		C79.294,5.807,79.312,4.247,79.966,4.075L79.966,4.075z M73.156,9.073L73.156,9.073l-0.771,4.11h1.074c0.354,0,0.354,0.54,0,0.54
		h-1.883c-0.06-0.02-0.119-0.017-0.181-0.017c-0.491,0-0.853-0.204-0.804-0.454L71.38,9.05c0.016-0.084,0.076-0.163,0.166-0.231
		c-0.049,0.004-0.103,0.006-0.151,0.006c-0.491,0-0.853-0.203-0.804-0.454l0.789-4.202c0.033-0.185,0.281-0.353,0.604-0.424
		c0.146-0.028,1.475,0,1.475,0c0.354,0,0.354,0.54,0,0.54h-0.319l-0.769,4.086c-0.013,0.057-0.041,0.111-0.088,0.162h1.176
		c0.354,0,0.354,0.54,0,0.54H73.156L73.156,9.073z M55.298,7.022L55.298,7.022h0.354h1.378c0.403,0,0.724,0.43,0.724,0.87v4.363
		v1.83v0.355c-0.006,0.468,0.586,0.995,1.143,1.042h8.701c0.416,0,0.416,0.638,0,0.638h-8.912c-0.954-0.006-2.975-0.375-3.03-1.72
		v-0.315v-1.818V7.659H55.3C54.882,7.659,54.882,7.022,55.298,7.022L55.298,7.022z M55.651,5.755L55.651,5.755V4.456
		c0-0.383,0.472-0.694,1.052-0.694s1.051,0.311,1.051,0.694v1.298C57.753,6.654,55.651,6.642,55.651,5.755L55.651,5.755z
		 M59.475,4.32L59.475,4.32h6.721c0.416,0,0.416,0.638,0,0.638h-6.721C59.059,4.958,59.059,4.32,59.475,4.32L59.475,4.32z
		 M47.998,7.469L47.998,7.469h1.062c0.48-0.041,0.993-0.498,0.987-0.903V4.344c0-0.332,0.408-0.602,0.91-0.602
		c0.504,0,0.912,0.27,0.912,0.602v2.188c-0.052,1.166-1.8,1.484-2.625,1.49H48h-6.56c-3.059,0-3.059-3.921,0-3.921h7.027
		c0.36,0,0.36,0.552,0,0.552h-6.425c-1.893,0.25-1.627,2.859,0.304,2.809L47.998,7.469L47.998,7.469z M42.48,9.033L42.48,9.033
		h9.454l0.001,5.537c-0.053,1.127-1.808,1.404-2.626,1.404h-1.314c-0.153,0-0.276-0.124-0.276-0.276
		c0-0.152,0.124-0.276,0.276-0.276h1.314c0.413,0,0.785-0.472,0.805-0.855l-0.001-4.98H48.86l-1.921,6.07
		c-0.091,0.265-0.403,0.465-0.906,0.465c-0.503,0-0.946-0.26-0.89-0.525l1.896-6.009h-1.49l-1.922,6.07
		c-0.069,0.256-0.403,0.465-0.905,0.465c-0.503,0-0.946-0.316-0.882-0.543l1.888-5.992h-1.421l-1.064,3.366
		c-0.097,0.261-0.408,0.465-0.911,0.465s-0.934-0.306-0.866-0.589l1.39-4.418h1.821L42.48,9.033L42.48,9.033z M70.951,15.499
		L70.951,15.499h2.502c0.354,0,0.354,0.54,0,0.54h-2.502C70.598,16.039,70.598,15.499,70.951,15.499L70.951,15.499z M74.837,4.411
		c-0.654,0.171-0.672,1.732-0.004,1.566v9.607c0,0.251,0.396,0.454,0.89,0.454h4.897H83.1c0.354,0,0.354-0.54,0-0.54h-1.595v-2.451
		h1.479c0.354,0,0.354-0.54,0-0.54h-1.479V9.335h1.479c0.354,0,0.354-0.54,0-0.54h-1.479V6.356h1.479c0.354,0,0.354-0.54,0-0.54
		h-4.65c-0.354,0-0.354,0.54,0,0.54h1.396v2.439h-1.396c-0.354,0-0.354,0.54,0,0.54h1.396v3.172h-1.396c-0.354,0-0.354,0.54,0,0.54
		h1.396v2.452h-3.118V5.514l1.027-0.318c0.586-0.215,0.646-1.719,0.02-1.561L74.837,4.411L74.837,4.411L74.837,4.411z M64.921,9.672
		c-0.118,0-0.203,0.052-0.254,0.126c-0.047,0.046-0.073,0.11-0.073,0.201l0.432,2.744c0.007,0.468-0.585,0.995-1.14,1.042h-1.594
		c-0.557-0.047-1.146-0.574-1.142-1.042l1.601-5.092h4.619c0.416,0,0.416-0.637,0-0.637H58.99c-0.416,0-0.416,0.637,0,0.637
		l1.652,0.001c0,0-1.592,4.431-1.592,5.05c0.059,1.345,2.076,1.714,3.031,1.721h2.015c0.954-0.007,2.973-0.375,3.03-1.721
		l-0.369-2.392h0.447c0.416,0,0.416-0.638,0-0.638H64.921L64.921,9.672z"/>
	<polygon fill="#2ECC71" points="28.344,13.933 28.36,13.933 28.344,13.932 	"/>
	<path fill="#2ECC71" d="M9.874,27.128h0.032c0.06,0.021,0.153,0.151,0.275,0.396l0.122,0.063l0.428-0.063l0.184,0.187v0.092
		c-0.04,0.082-0.235,0.214-0.581,0.396c-0.082,0.082-0.153,0.35-0.214,0.795l0.122,0.063c0.388-0.103,0.583-0.226,0.583-0.367
		v-0.062l-0.031-0.03c0.042-0.082,0.072-0.123,0.092-0.123c0.346,0.082,0.52,0.176,0.52,0.275v0.152
		c0,0.063-0.184,0.123-0.551,0.186c-0.041,0.104-0.255,0.192-0.643,0.273c-0.225,0.267-0.337,0.459-0.337,0.582v0.029
		c0,0.063,0.041,0.092,0.123,0.092c0.408-0.144,0.714-0.213,0.918-0.213h0.153c0.367,0.039,0.551,0.172,0.551,0.396
		c-0.041,0.225-0.52,0.714-1.438,1.469v0.096c0.02,0.062,0.295,0.215,0.826,0.459c0.163,0.144,0.245,0.264,0.245,0.365
		c-0.041,0.063-0.102,0.111-0.184,0.152c-1.082-0.449-1.663-0.755-1.745-0.918v-0.061c0-0.063,0.164-0.123,0.49-0.187
		c0.532-0.39,0.929-0.786,1.194-1.194v-0.062c0-0.122-0.062-0.185-0.183-0.185c-0.082,0-0.49,0.174-1.225,0.521H9.507
		c-0.123-0.063-0.185-0.134-0.185-0.216l0.153-0.551l-0.153-0.094l-0.551,0.217H8.68c-0.102,0-0.184-0.054-0.244-0.152v-0.063
		c0.122-0.184,0.397-0.47,0.826-0.856l0.521-0.672v-0.063l-0.091-0.092H9.66l-0.458,0.092H9.109
		c-0.183-0.041-0.276-0.092-0.276-0.151c0-0.146,0.083-0.216,0.246-0.216h0.276c0.326-0.042,0.49-0.153,0.49-0.337l-0.062-0.308
		v-0.029L9.874,27.128L9.874,27.128z M9.17,29.393v0.031l0.092,0.092c0.246,0,0.388-0.15,0.43-0.459l-0.093-0.092H9.537L9.17,29.393
		L9.17,29.393z M19.071,27.191c0.184,0.121,0.275,0.213,0.275,0.272v0.152L19.225,27.8l0.335,0.337V28.2
		c0,0.062-0.265,0.123-0.795,0.185l-0.398,0.092c-0.265-0.162-0.428-0.244-0.49-0.244h-0.062c-0.122,0-0.223,0.063-0.305,0.185
		v0.306l0.03,0.31c-0.122,0.876-0.224,1.479-0.306,1.807v0.216h0.092l0.214-0.216c0.082,0.144,0.144,0.216,0.184,0.216h0.062
		c0.53-0.123,0.795-0.274,0.795-0.461V30.47c0-0.04-0.132-0.11-0.397-0.214c-0.061-0.163-0.102-0.479-0.123-0.947
		c0.041-0.186,0.102-0.274,0.184-0.274l0.274,0.028h0.031c0-0.184,0.225-0.338,0.674-0.459c0.203,0.041,0.305,0.092,0.305,0.152
		v0.029l-0.091,0.094l-0.307-0.063L19.008,29c0.021,0.063,0.093,0.123,0.216,0.186l0.153-0.029c0.183,0.041,0.275,0.123,0.275,0.244
		c0,0.041-0.102,0.151-0.307,0.338v0.092l0.184,0.244l-0.123,0.152l-0.153-0.029h-0.062c-0.163,0.021-0.244,0.123-0.244,0.307
		l0.183,0.184l0.918-0.061h0.062c0.53,0.08,0.796,0.307,0.796,0.673c-0.47,0.755-0.867,1.132-1.193,1.132
		c-0.267-0.061-0.398-0.162-0.398-0.306h0.03l0.398,0.062c0.347-0.184,0.632-0.511,0.857-0.979v-0.123
		c-0.123-0.225-0.357-0.338-0.704-0.338h-0.091c-0.572,0.021-0.857,0.094-0.857,0.216v0.093c0,0.041,0.102,0.103,0.306,0.185
		l0.062,0.123l-0.246,0.579l-0.153,0.031h-0.214l-0.52,0.338l-0.031-0.03v-0.063c0.347-0.326,0.521-0.51,0.521-0.551
		c-0.083-0.408-0.195-0.611-0.337-0.611c-0.51,0.244-0.765,0.428-0.765,0.551l0.03,0.646c0,0.103-0.041,0.174-0.121,0.215h-0.032
		c-0.062,0-0.112-0.112-0.152-0.338l0.03-0.028v-0.703l-0.092-0.094h-0.123l-0.397,1.227c-0.062,0.103-0.173,0.184-0.337,0.242
		l-0.582-0.15l-0.49,0.063l-0.031-0.031c0-0.122,0.337-0.225,1.011-0.307c0.204,0,0.499-0.918,0.887-2.755l0.061-0.429v-0.675
		l-0.03-0.028c0-0.188,0.081-0.318,0.244-0.398l0.153,0.029h0.428c0.409-0.021,0.613-0.133,0.613-0.337
		c-0.02-0.081-0.081-0.121-0.183-0.121l-0.674,0.121c-0.083-0.021-0.143-0.069-0.185-0.151
		C17.602,27.402,18.092,27.271,19.071,27.191L19.071,27.191z M26.921,27.249c0.144,0,0.214,0.071,0.214,0.216
		c-0.408,0.407-0.611,0.645-0.611,0.704c0,0.511,0.091,0.767,0.276,0.767h0.03l0.337-0.186c0.143,0,0.244,0.051,0.306,0.152v0.029
		c-0.225,0.163-0.479,0.297-0.765,0.397l-0.062,0.092l0.214,2.692c-0.02,0.326-0.173,0.49-0.459,0.49h-0.307l-0.122,0.029
		c-0.225-0.042-0.337-0.082-0.337-0.123v-0.06c0-0.041,0.235-0.122,0.704-0.245l0.123-0.153v-0.184
		c-0.062-1.511-0.123-2.267-0.184-2.267l-0.123-0.063c-0.081,0-0.458,0.123-1.132,0.367c-0.082,0-0.164-0.07-0.245-0.217
		c0-0.061,0.53-0.65,1.591-1.772v-0.092l-0.061-0.063h-0.184l-0.428,0.094H25.45c-0.183-0.041-0.276-0.094-0.276-0.152v-0.063
		l0.214-0.063h0.521L26.921,27.249L26.921,27.249z M25.299,29.209v0.03c0.021,0.122,0.051,0.185,0.091,0.185h0.031
		c0.571-0.122,0.857-0.273,0.857-0.459v-0.367c-0.041-0.082-0.102-0.123-0.184-0.123c-0.081,0-0.274,0.187-0.581,0.553
		C25.371,29.107,25.299,29.168,25.299,29.209L25.299,29.209z M34.375,27.495h0.091c0.081,0.021,0.123,0.11,0.123,0.274l-0.031,0.459
		l0.091,0.063h0.062c0.062,0,0.246-0.081,0.551-0.245c0.123,0.041,0.194,0.093,0.214,0.151v0.031
		c-0.02,0.063-0.143,0.133-0.367,0.215c-0.081,0.162-0.123,0.418-0.123,0.766l0.46,0.273c0.062,0.082,0.092,0.153,0.092,0.216
		c0,0.104-0.316,0.43-0.949,0.979c-0.061,0-0.275,0.122-0.644,0.368h-0.03c0.286-0.286,0.449-0.472,0.49-0.554V30.43l-0.123-0.488
		c0-0.082,0.144-0.254,0.428-0.521l0.032-0.122V28.9c0-0.145-0.102-0.234-0.307-0.274l-0.306-0.337h-0.091l-0.246,0.428
		c-0.041,0.042-0.153,0.063-0.337,0.063c-0.183,0.145-0.275,0.267-0.275,0.368v0.062l0.093,0.337h0.183
		c0.021-0.081,0.051-0.122,0.093-0.122l0.062,0.093v0.092l-0.184,1.5l-0.03,0.029h-0.062c-0.123,0-0.214-0.214-0.275-0.643
		l0.03-0.612c0-0.306-0.051-0.459-0.153-0.459h-0.092l-0.796,0.644h-0.092l-0.091-0.092v-0.062l0.766-0.644l1.01-1.073
		c0-0.123,0.153-0.233,0.46-0.337C34.18,27.68,34.271,27.557,34.375,27.495L34.375,27.495z M34.925,29.883l0.031,0.031h0.153
		l0.062-0.063v-0.095l-0.062-0.063h-0.062C34.966,29.739,34.925,29.802,34.925,29.883L34.925,29.883z M33.885,31.075l-0.245,0.093
		c-0.062,0-0.46,0.355-1.194,1.071v0.063c0,0.021,0.041,0.052,0.123,0.093l0.244-0.093l0.583,0.063l1.623-0.03l0.367,0.091
		c0.04-0.021,0.081-0.068,0.123-0.15c-0.042,0-0.062-0.053-0.062-0.153c-0.246-0.121-0.367-0.202-0.367-0.243v-0.122l0.092-0.094
		H35.6l0.03,0.03l-0.03,0.274v0.03l0.03,0.029l0.521-0.029l0.398,0.029l0.03-0.094c-0.204-0.347-0.643-0.521-1.316-0.521
		c-0.449,0.041-0.673,0.134-0.673,0.274c0,0.063,0.051,0.164,0.153,0.308c0,0.062-0.041,0.11-0.123,0.151h-1.041
		c-0.367,0-0.551-0.053-0.551-0.151v-0.093C33.436,31.577,33.722,31.301,33.885,31.075L33.885,31.075z M42.836,27.68h0.031
		c0.122,0,0.214,0.226,0.275,0.674l-0.154,0.644c0.042,0.104,0.083,0.153,0.123,0.153l0.704-0.031c0.572,0,0.857,0.285,0.857,0.855
		c0,0.432-0.223,0.979-0.673,1.653c-0.326,0.409-0.581,0.611-0.765,0.611c-0.428,0-0.704-0.314-0.827-0.948
		c0-0.268,0.214-0.459,0.643-0.581c0.225,0.08,0.337,0.244,0.337,0.488c-0.041,0.122-0.081,0.186-0.123,0.186
		c-0.041,0-0.122-0.093-0.245-0.274l-0.031-0.03h-0.091c-0.164,0.122-0.245,0.233-0.245,0.337v0.092
		c0,0.123,0.102,0.246,0.306,0.368h0.184c0.224,0,0.531-0.337,0.918-1.013c0.183-0.365,0.276-0.684,0.276-0.946
		c0-0.308-0.214-0.49-0.644-0.552h-0.06c-0.347,0-0.756,0.143-1.225,0.429h-0.03l-0.093-0.095v-0.027
		c0.327-0.471,0.5-0.878,0.521-1.224l-0.153-0.188v-0.215C42.653,27.883,42.713,27.76,42.836,27.68L42.836,27.68z M40.938,28.016
		c0.062,0,0.123,0.082,0.184,0.245l-0.337,0.855l0.123,0.093l0.458-0.029c0.184,0,0.307,0.122,0.367,0.366h0.123
		c0.041,0,0.133-0.144,0.275-0.43h0.032l0.06,0.063c-0.386,0.795-0.581,1.227-0.581,1.284c-0.225,0.675-0.408,1.011-0.551,1.011
		h-0.03c-0.123-0.082-0.184-0.184-0.184-0.307V30.71l-0.062-0.49l0.031-0.03h0.091l0.184,0.187h0.062
		c0.102-0.021,0.153-0.267,0.153-0.733c0-0.063-0.062-0.11-0.184-0.153c-0.509,0.043-0.765,0.122-0.765,0.245l-0.153,0.216v0.243
		c0.123,0.308,0.214,0.773,0.275,1.408v0.092c0,0.082-0.072,0.151-0.214,0.216c-0.123-0.041-0.184-0.152-0.184-0.339v-0.672
		c0-0.186-0.081-0.479-0.244-0.89l0.337-0.46c0.224-0.367,0.439-0.855,0.643-1.47L40.938,28.016L40.938,28.016z M50.933,27.587
		c0.163,0.042,0.244,0.146,0.244,0.308c0,0.039-0.215,0.267-0.643,0.674c-0.083,0.082-0.123,0.162-0.123,0.244v0.063l0.093,0.029
		l0.49-0.123c0.145,0.063,0.215,0.163,0.215,0.309l-0.396,0.703v0.063l0.092,0.092l0.43-0.063c0.146,0.104,0.215,0.194,0.215,0.274
		c-0.08,0.267-0.203,0.396-0.366,0.396c-0.041-0.203-0.081-0.307-0.123-0.307h-0.151c-0.185,0.021-0.409,0.104-0.674,0.245H50.17
		l-0.184-0.152c0-0.063,0.214-0.327,0.642-0.797l0.153-0.214v-0.093l-0.094-0.093l-0.612,0.244l-0.244,0.031
		c-0.102-0.021-0.153-0.052-0.153-0.092V29.3c0-0.123,0.295-0.446,0.887-0.979l0.153-0.215c-0.021-0.082-0.082-0.121-0.184-0.121
		l-0.429,0.062l-0.091-0.122v-0.029C50.014,27.75,50.32,27.65,50.933,27.587L50.933,27.587z M48.329,28.046h0.031
		c0.53,0.164,0.795,0.286,0.795,0.367v0.062c0,0.041-0.051,0.072-0.153,0.094c-0.49-0.163-0.734-0.284-0.734-0.366v-0.093
		L48.329,28.046L48.329,28.046z M48.391,29.546L48.3,29.607l0.03,0.367l-0.06,0.336c0,0.082,0.112,0.377,0.336,0.89v0.093
		l-0.03,0.15l-0.52,0.337c-0.368,0.104-0.551,0.204-0.551,0.31c0.04,0.186,0.121,0.274,0.244,0.274h0.062
		c0.184-0.146,0.846-0.31,1.989-0.489l0.398,0.027l0.337-0.09c0.184,0,0.326,0.021,0.427,0.063l0.582-0.031h0.431
		c0.284,0,0.653,0.063,1.101,0.188l0.094-0.094v-0.029c0-0.188-0.123-0.316-0.369-0.398l-0.149,0.031l-0.245-0.031L50.2,31.479
		l-0.948,0.063l-0.154-0.031l-0.458-1.19v-0.063l0.061-0.366c-0.061-0.226-0.123-0.338-0.184-0.338h-0.125L48.391,29.546
		L48.391,29.546z M58.783,27.005c0.266,0.144,0.396,0.378,0.396,0.704c0.367,0.083,0.552,0.134,0.552,0.152l0.031,0.029
		c0,0.082-0.235,0.133-0.704,0.152c-0.145,0.081-0.297,0.245-0.46,0.489v0.123l0.091,0.092l0.46-0.031l0.582,0.063l0.122-0.029
		c0.529,0,0.796,0.111,0.796,0.338c0,0.163-0.267,0.355-0.796,0.581h-0.063v-0.062l0.43-0.431v-0.09
		c0-0.104-0.389-0.151-1.162-0.151c-0.286,0-0.838,0.119-1.654,0.365l-0.031-0.031v-0.062c0.084-0.103,0.328-0.217,0.735-0.336
		l0.338-0.489v-0.029c0-0.123-0.062-0.186-0.185-0.186h-0.03c-0.163,0.063-0.511,0.122-1.041,0.186h-0.123l-0.062-0.063v-0.095
		c0.408-0.062,0.613-0.143,0.613-0.241l-0.095-0.397l0.03-0.093h0.092c0.041,0,0.109,0.109,0.214,0.336
		c0.269,0,0.396,0.054,0.396,0.154l0.152,0.028c0.229,0,0.389-0.151,0.49-0.461V27.4c0-0.145-0.07-0.215-0.215-0.215l-0.152,0.03
		C58.619,27.115,58.701,27.046,58.783,27.005L58.783,27.005z M56.792,29.088c-0.123,0.104-0.186,0.203-0.186,0.305
		c-0.309,0.613-0.46,0.971-0.46,1.071c0.021,0.146,0.063,0.216,0.123,0.216h0.092c0.04,0,0.112-0.093,0.216-0.273
		c0.164-0.553,0.314-0.868,0.459-0.949c0-0.104-0.07-0.227-0.213-0.366L56.792,29.088L56.792,29.088z M58.813,29.546
		c-0.144,0.021-0.214,0.052-0.214,0.093v0.03c0.102,0.103,0.152,0.192,0.152,0.274c-0.145,0.285-0.285,0.459-0.428,0.521
		c-0.123,0-0.188-0.062-0.188-0.184v-0.366c0-0.163-0.04-0.257-0.121-0.275h-0.031c-0.104,0.041-0.15,0.174-0.15,0.397v0.459
		l-0.063,0.429l0.187,0.367l-0.123,0.979c0.021,0.162,0.063,0.244,0.123,0.244c0.103-0.062,0.15-0.162,0.15-0.308
		c0.063-0.511,0.408-0.767,1.041-0.767h0.063l0.094,0.092v0.094c-0.43,0.447-0.645,0.734-0.645,0.855
		c0.202,0.285,0.541,0.43,1.01,0.43c0.123,0,0.215-0.053,0.274-0.153v-0.028l-0.063-0.093c-0.487-0.104-0.731-0.216-0.731-0.337
		V32.27c0.367-0.431,0.554-0.717,0.554-0.856v-0.029c-0.063-0.104-0.162-0.174-0.31-0.216l-0.029,0.03h-0.03
		c-0.283,0-0.569,0.063-0.855,0.186h-0.029l-0.094-0.093l0.031-0.123l0.49-0.396l-0.092-0.273v-0.092
		c0.184-0.227,0.273-0.408,0.273-0.553V29.76C58.998,29.657,58.916,29.588,58.813,29.546L58.813,29.546z M66.755,27.527
		c0.062,0.021,0.093,0.082,0.093,0.184c0,0.104-0.195,0.43-0.583,0.979l-0.03,0.188v0.063l0.093,0.151
		c-0.103,0.326-0.152,0.929-0.152,1.808l0.029,0.028l-0.029,0.093c0.121,0.162,0.186,0.285,0.186,0.367
		c-0.104,0.57-0.186,0.856-0.244,0.856h-0.063c-0.123,0-0.186-0.315-0.186-0.949l0.029-0.337l-0.063-0.337l0.063-0.552
		c-0.063,0-0.102-0.094-0.123-0.274c0.186-0.367,0.309-0.653,0.369-0.854v-0.123h-0.063c-0.227,0.184-0.377,0.274-0.459,0.274
		h-0.031v-0.063h-0.03c0.552-0.674,0.918-1.174,1.103-1.5H66.755L66.755,27.527z M65.347,27.617l0.123,0.092v0.029
		c-0.104,0.367-0.358,0.797-0.766,1.287l-0.031,0.121c0.164,0.244,0.244,0.397,0.244,0.459l-0.308,0.856v0.03l0.063,0.582v0.123
		l0.093,0.092h0.062c0.407-0.553,0.611-0.867,0.611-0.948h0.031l0.063,0.062c0,0.164-0.258,0.662-0.767,1.5
		c-0.144,0.308-0.255,0.459-0.337,0.459c-0.143-0.062-0.215-0.161-0.215-0.307c0.162-0.326,0.244-0.684,0.244-1.07l-0.092-0.582
		c0.243-0.447,0.365-0.715,0.365-0.797c0-0.123-0.122-0.285-0.365-0.489l-0.029-0.027v-0.032c0.266-0.283,0.58-0.755,0.947-1.406
		h0.063V27.617L65.347,27.617z M67.673,27.771c-0.104,0.063-0.174,0.162-0.215,0.307c0,0.205-0.186,0.326-0.551,0.369v0.121
		c0.266,0.102,0.396,0.213,0.396,0.336v0.15l-0.275,0.338l0.187,0.306l-0.092,0.31l0.061,0.458v0.552
		c-0.346,0.35-0.52,0.553-0.52,0.612c0.08,0.187,0.254,0.272,0.52,0.272c1.021-0.102,1.531-0.232,1.531-0.396v-0.063
		c0-0.041-0.051-0.068-0.153-0.092h-0.028L68.5,31.384l-0.795,0.029c-0.039,0-0.082-0.052-0.123-0.152
		c0.328-0.407,0.502-0.686,0.521-0.827l-0.063-0.214c-0.123-0.143-0.187-0.245-0.187-0.306v-0.123l0.151-0.275v-0.062l-0.365-0.366
		v-0.246l0.063-0.184c0.226-0.063,0.336-0.153,0.336-0.274C67.878,27.975,67.755,27.771,67.673,27.771L67.673,27.771z
		 M75.617,27.191h0.063c0.567,0.06,0.854,0.23,0.854,0.52l-0.584,0.796v0.062l0.063,0.063l0.612-0.123
		c0.185,0.063,0.273,0.163,0.273,0.308l-0.46,0.645v0.063c0.269,0.226,0.397,0.379,0.397,0.459
		c-0.041,0.041-0.234,0.111-0.582,0.216c0,0.062-0.192,0.144-0.58,0.243c-0.063,0.08-0.135,0.315-0.217,0.703l0.031,0.705
		c0,0.245-0.307,0.553-0.918,0.918h-0.063l-0.063-0.062v-0.097c0.429-0.43,0.644-0.795,0.644-1.104l0.123-1.469
		c0-0.227-0.051-0.531-0.152-0.92c0.673-0.692,1.012-1.145,1.012-1.348c0-0.082-0.145-0.185-0.431-0.307l-0.091-0.122v-0.095
		L75.617,27.191L75.617,27.191z M73.81,27.372c-0.04,0-0.082,0.051-0.123,0.151l0.063,1.529l-0.063,0.123
		c-0.389,0.35-0.755,0.541-1.104,0.581l-0.334-0.063l-0.096,0.123c0.021,0.123,0.234,0.269,0.645,0.432l0.123-0.063
		c0.266-0.285,0.449-0.447,0.552-0.49h0.123l0.122,0.095l-0.031,0.185l0.031,0.674c0,0.186-0.389,0.685-1.163,1.5v0.093
		c0,0.144,0.112,0.243,0.337,0.307h0.029l0.031-0.03l1.01,0.275c0.143-0.082,0.215-0.152,0.215-0.214l-0.03-0.031v-0.243
		l-0.062-1.316v-0.186c0-0.203,0.08-0.447,0.244-0.732c0-0.104-0.082-0.186-0.244-0.246l0.123-0.487
		c0.224-0.144,0.336-0.226,0.336-0.244v-0.032c-0.246-0.183-0.367-0.355-0.367-0.52v-0.063l0.031-0.027
		c-0.104-0.715-0.217-1.073-0.338-1.073L73.81,27.372L73.81,27.372z M75.583,29.239v0.459l0.095,0.093h0.091
		c0.104-0.082,0.193-0.227,0.275-0.43c0.162-0.122,0.266-0.227,0.306-0.309c-0.04-0.103-0.081-0.15-0.122-0.15h-0.029
		C75.789,29.046,75.583,29.157,75.583,29.239L75.583,29.239z M73.197,31.965c0.245-0.429,0.398-0.645,0.459-0.645l0.122,0.121v0.705
		c0,0.123-0.051,0.194-0.153,0.218c-0.285-0.063-0.428-0.136-0.428-0.218V31.965L73.197,31.965z M83.435,26.607
		c0.123,0,0.225,0.07,0.309,0.215v0.094c-0.39,0.346-0.584,0.57-0.584,0.673v0.093c0.104,0.144,0.215,0.215,0.338,0.215l0.308-0.03
		c0.243,0.021,0.366,0.11,0.366,0.274v0.03c-0.428,0.448-0.645,0.724-0.645,0.825l-0.061,0.368v0.12
		c0.061,0.104,0.121,0.154,0.184,0.154l0.918-0.094h0.154c0.121,0,0.244,0.102,0.367,0.307l-0.094,0.092v0.031l-0.675-0.093
		c-0.592,0.041-0.889,0.134-0.889,0.274c-0.063,0.186-0.19,1.053-0.396,2.603l-0.121,0.49h-0.063l-0.031-0.03h-0.028l0.063-0.703
		l-0.031-0.031v-0.027l0.154-2.021v-0.121l-0.123-0.123h-0.15c-1.021,0.324-1.654,0.57-1.897,0.733
		c-0.122,0-0.275,0.052-0.462,0.152c-0.161-0.04-0.243-0.163-0.243-0.366c0-0.104,0.11-0.174,0.337-0.215l0.029,0.029H80.5
		c0.754-0.104,1.295-0.256,1.621-0.459l0.153-0.151l0.185,0.062c0.387-0.121,0.58-0.244,0.58-0.367v-0.028l-0.121-0.123h-0.094
		l-0.214,0.123v-0.033c0.308-0.407,0.46-0.685,0.46-0.827c0-0.203-0.07-0.313-0.215-0.335l-0.768,0.306h-0.062l-0.151-0.15
		c0-0.063,0.273-0.378,0.826-0.949l0.307-0.396V27.13l-0.063-0.063H82.88l-0.887,0.123c-0.162,0-0.285-0.062-0.369-0.185
		l0.094-0.091v-0.031l0.152,0.031L83.435,26.607L83.435,26.607z M90.705,27.372c0.104,0,0.174,0.11,0.213,0.337
		c0,0.123-0.109,0.488-0.336,1.104l0.063,0.063h0.123c0.405-0.123,0.795-0.215,1.162-0.274c0.243,0,0.438,0.092,0.583,0.274v0.121
		l-1.041,0.825H91.44V29.76c0.308-0.406,0.459-0.644,0.459-0.703v-0.063l-0.091-0.091c-0.734,0-1.461,0.328-2.176,0.979
		c-0.43,0.308-0.661,0.46-0.703,0.46l-0.094-0.029v-0.063c0-0.104,0.205-0.308,0.612-0.61c0.511-0.408,0.867-1.002,1.07-1.774
		C90.541,27.533,90.603,27.372,90.705,27.372L90.705,27.372z M91.746,30.861h0.151c0.185,0.103,0.274,0.267,0.274,0.49l-0.213,0.336
		v0.123c0,0.021,0.143,0.121,0.429,0.306c0.062,0.084,0.092,0.153,0.092,0.216l-0.092,0.063l-1.011-0.215l-0.186-0.185
		c0-0.104,0.145-0.297,0.43-0.582l0.028-0.122v-0.03l-0.063-0.063H91.47c-0.653,0.122-0.979,0.389-0.979,0.797
		c0,0.285-0.063,0.46-0.188,0.521h-0.063c-0.103-0.061-0.175-0.162-0.215-0.307l0.152-0.552V31.32c0-0.081,0.029-0.145,0.093-0.186
		l0.185,0.094h0.123C91.194,30.984,91.582,30.861,91.746,30.861z"/>
	<path fill="#2ECC71" d="M9.728,27.123h0.031c0.06,0.02,0.153,0.15,0.275,0.396l0.122,0.063l0.429-0.063l0.184,0.186v0.092
		c-0.041,0.082-0.235,0.214-0.582,0.396c-0.082,0.084-0.153,0.349-0.214,0.797l0.122,0.062c0.388-0.103,0.583-0.226,0.583-0.366
		v-0.063l-0.032-0.03c0.042-0.082,0.072-0.122,0.093-0.122c0.346,0.08,0.52,0.174,0.52,0.275v0.152c0,0.062-0.184,0.123-0.551,0.185
		c-0.041,0.103-0.255,0.19-0.643,0.272c-0.225,0.269-0.337,0.459-0.337,0.582v0.029c0,0.063,0.041,0.094,0.123,0.094
		c0.408-0.145,0.715-0.215,0.918-0.215h0.152c0.367,0.04,0.551,0.172,0.551,0.396c-0.04,0.225-0.52,0.715-1.438,1.47v0.093
		c0.02,0.063,0.295,0.215,0.826,0.459c0.164,0.146,0.246,0.267,0.246,0.367c-0.041,0.061-0.102,0.111-0.185,0.152
		c-1.081-0.448-1.662-0.754-1.745-0.918v-0.063c0-0.063,0.163-0.122,0.49-0.186c0.532-0.39,0.929-0.785,1.194-1.192v-0.063
		c0-0.123-0.062-0.186-0.183-0.186c-0.083,0-0.49,0.176-1.225,0.521H9.361c-0.123-0.063-0.184-0.133-0.184-0.213l0.153-0.553
		l-0.153-0.086l-0.551,0.215H8.534c-0.102,0-0.184-0.052-0.244-0.152v-0.063c0.121-0.185,0.397-0.471,0.825-0.856l0.521-0.673
		v-0.063l-0.091-0.091H9.514l-0.458,0.091H8.962c-0.183-0.04-0.275-0.091-0.275-0.15c0-0.146,0.083-0.217,0.246-0.217h0.275
		c0.327-0.041,0.49-0.152,0.49-0.337l-0.062-0.309v-0.028L9.728,27.123L9.728,27.123z M9.024,29.389v0.03l0.091,0.092
		c0.246,0,0.388-0.151,0.43-0.46l-0.092-0.092H9.391L9.024,29.389L9.024,29.389z M18.925,27.184
		c0.185,0.123,0.276,0.217,0.276,0.276v0.151l-0.122,0.185l0.336,0.337v0.063c0,0.063-0.266,0.123-0.795,0.186l-0.399,0.092
		c-0.265-0.162-0.428-0.246-0.49-0.246H17.67c-0.122,0-0.224,0.063-0.306,0.186v0.308l0.03,0.308
		c-0.122,0.879-0.223,1.479-0.306,1.809v0.214h0.091l0.214-0.214c0.083,0.143,0.144,0.214,0.184,0.214h0.062
		c0.53-0.123,0.795-0.274,0.795-0.46v-0.122c0-0.041-0.132-0.112-0.397-0.215c-0.062-0.163-0.102-0.479-0.123-0.948
		c0.041-0.186,0.102-0.273,0.185-0.273l0.274,0.029h0.032c0-0.184,0.225-0.338,0.674-0.459c0.204,0.041,0.306,0.092,0.306,0.152
		v0.03l-0.092,0.093l-0.307-0.063l-0.123,0.184c0.021,0.063,0.093,0.122,0.216,0.186l0.153-0.027
		c0.183,0.039,0.275,0.119,0.275,0.242c0,0.039-0.102,0.151-0.307,0.338v0.092l0.184,0.246l-0.123,0.15l-0.153-0.029h-0.062
		c-0.164,0.021-0.245,0.121-0.245,0.307l0.183,0.184l0.918-0.061h0.061c0.53,0.082,0.797,0.307,0.797,0.673
		c-0.47,0.755-0.867,1.134-1.194,1.134c-0.266-0.063-0.398-0.164-0.398-0.307h0.03l0.398,0.063c0.347-0.186,0.632-0.512,0.856-0.979
		V31.08c-0.123-0.227-0.356-0.337-0.704-0.337H19.66c-0.572,0.021-0.857,0.094-0.857,0.215v0.093c0,0.041,0.102,0.104,0.306,0.186
		l0.061,0.123l-0.246,0.58l-0.153,0.03h-0.214l-0.52,0.337l-0.031-0.029v-0.068c0.347-0.326,0.521-0.51,0.521-0.551
		c-0.082-0.407-0.194-0.611-0.337-0.611c-0.511,0.244-0.766,0.43-0.766,0.553l0.03,0.644c0,0.103-0.041,0.175-0.122,0.215h-0.031
		c-0.062,0-0.112-0.112-0.153-0.338l0.03-0.029v-0.71l-0.091-0.095h-0.123l-0.397,1.228c-0.061,0.104-0.173,0.186-0.336,0.244
		l-0.582-0.15l-0.49,0.062l-0.031-0.03c0-0.121,0.337-0.225,1.011-0.307c0.204,0,0.499-0.918,0.887-2.754l0.061-0.43v-0.676
		l-0.03-0.029c0-0.186,0.081-0.315,0.245-0.396l0.153,0.028h0.428c0.409-0.021,0.613-0.132,0.613-0.339
		c-0.02-0.079-0.081-0.12-0.183-0.12l-0.674,0.12c-0.082-0.02-0.142-0.067-0.184-0.149C17.456,27.4,17.945,27.266,18.925,27.184
		L18.925,27.184z M26.775,27.242c0.144,0,0.214,0.072,0.214,0.218c-0.407,0.405-0.611,0.644-0.611,0.704
		c0,0.509,0.092,0.766,0.276,0.766h0.03l0.337-0.185c0.142,0,0.244,0.051,0.306,0.151v0.029c-0.225,0.163-0.479,0.297-0.766,0.396
		L26.5,29.419l0.214,2.692c-0.02,0.326-0.172,0.49-0.458,0.49h-0.307l-0.121,0.028c-0.225-0.041-0.337-0.082-0.337-0.122v-0.061
		c0-0.041,0.235-0.123,0.704-0.246l0.123-0.152v-0.182c-0.062-1.512-0.123-2.27-0.184-2.27l-0.123-0.062
		c-0.081,0-0.458,0.123-1.132,0.366c-0.081,0-0.164-0.069-0.244-0.215c0-0.062,0.53-0.651,1.591-1.773v-0.092l-0.06-0.063H25.98
		l-0.429,0.093h-0.246c-0.183-0.039-0.275-0.093-0.275-0.152v-0.063l0.214-0.063h0.521L26.775,27.242L26.775,27.242z M25.153,29.203
		v0.029c0.021,0.123,0.051,0.187,0.092,0.187h0.031c0.571-0.123,0.857-0.274,0.857-0.46v-0.367
		c-0.041-0.082-0.102-0.122-0.185-0.122c-0.081,0-0.274,0.186-0.581,0.552C25.225,29.104,25.153,29.163,25.153,29.203L25.153,29.203
		z M34.229,27.488h0.091c0.081,0.021,0.123,0.113,0.123,0.275l-0.031,0.457l0.091,0.063h0.062c0.062,0,0.245-0.079,0.551-0.242
		c0.123,0.04,0.195,0.092,0.214,0.15v0.029c-0.02,0.063-0.142,0.135-0.367,0.217c-0.081,0.164-0.123,0.418-0.123,0.766l0.46,0.273
		c0.062,0.084,0.091,0.153,0.091,0.215c0,0.104-0.316,0.432-0.949,0.979c-0.061,0-0.275,0.123-0.644,0.368h-0.03
		c0.286-0.286,0.449-0.473,0.49-0.553v-0.063l-0.123-0.49c0-0.082,0.144-0.254,0.429-0.52l0.031-0.123v-0.395
		c0-0.143-0.102-0.233-0.307-0.273l-0.306-0.337h-0.091l-0.246,0.429c-0.041,0.042-0.153,0.063-0.337,0.063
		c-0.183,0.146-0.275,0.267-0.275,0.369v0.061l0.092,0.337h0.183c0.021-0.081,0.051-0.121,0.093-0.121l0.062,0.093v0.092l-0.185,1.5
		l-0.03,0.029h-0.062c-0.123,0-0.214-0.215-0.275-0.644l0.03-0.611c0-0.307-0.051-0.459-0.153-0.459h-0.091l-0.797,0.64h-0.09
		l-0.091-0.093v-0.063l0.765-0.644l1.01-1.07c0-0.121,0.153-0.233,0.46-0.336C34.034,27.674,34.125,27.551,34.229,27.488
		L34.229,27.488z M34.779,29.878l0.031,0.029h0.153l0.062-0.063v-0.093l-0.062-0.063h-0.061
		C34.82,29.734,34.779,29.796,34.779,29.878L34.779,29.878z M33.739,31.07l-0.246,0.093c-0.062,0-0.459,0.356-1.194,1.071v0.062
		c0,0.021,0.041,0.052,0.123,0.093l0.245-0.093l0.583,0.063l1.622-0.03l0.367,0.092c0.041-0.021,0.081-0.069,0.123-0.153
		c-0.042,0-0.062-0.051-0.062-0.149c-0.246-0.123-0.367-0.205-0.367-0.244v-0.123l0.091-0.094h0.428l0.03,0.03l-0.03,0.275v0.027
		l0.03,0.031l0.521-0.031l0.398,0.031l0.03-0.094c-0.204-0.346-0.643-0.521-1.317-0.521c-0.449,0.041-0.673,0.134-0.673,0.274
		c0,0.063,0.051,0.162,0.153,0.308c0,0.062-0.041,0.11-0.123,0.151H33.43c-0.367,0-0.551-0.052-0.551-0.151v-0.093
		C33.29,31.57,33.576,31.296,33.739,31.07L33.739,31.07z M42.69,27.674h0.031c0.122,0,0.214,0.225,0.275,0.674l-0.154,0.644
		c0.042,0.104,0.082,0.153,0.123,0.153l0.704-0.031c0.572,0,0.856,0.287,0.856,0.855c0,0.432-0.223,0.979-0.672,1.653
		c-0.327,0.408-0.581,0.612-0.766,0.612c-0.428,0-0.704-0.315-0.827-0.95c0-0.265,0.214-0.457,0.643-0.58
		c0.225,0.08,0.337,0.244,0.337,0.489c-0.041,0.121-0.081,0.185-0.123,0.185c-0.041,0-0.122-0.094-0.244-0.274l-0.031-0.031H42.75
		c-0.163,0.123-0.244,0.234-0.244,0.338v0.093c0,0.122,0.102,0.245,0.306,0.366h0.184c0.223,0,0.53-0.336,0.918-1.01
		c0.183-0.367,0.275-0.686,0.275-0.949c0-0.307-0.214-0.488-0.644-0.551h-0.06c-0.347,0-0.756,0.144-1.225,0.43h-0.03l-0.093-0.094
		v-0.029c0.326-0.471,0.5-0.878,0.521-1.225l-0.153-0.187v-0.214C42.507,27.878,42.567,27.755,42.69,27.674L42.69,27.674z
		 M40.792,28.01c0.062,0,0.123,0.082,0.184,0.245l-0.337,0.856l0.123,0.092l0.458-0.029c0.184,0,0.307,0.122,0.367,0.366h0.123
		c0.04,0,0.133-0.144,0.275-0.429h0.031l0.06,0.063c-0.387,0.795-0.581,1.227-0.581,1.285c-0.225,0.674-0.408,1.011-0.552,1.011
		h-0.029c-0.123-0.083-0.185-0.186-0.185-0.307v-0.459l-0.062-0.489l0.032-0.031h0.091l0.184,0.186h0.062
		c0.102-0.021,0.153-0.266,0.153-0.733c0-0.062-0.062-0.11-0.184-0.153c-0.51,0.043-0.766,0.123-0.766,0.246l-0.153,0.215v0.242
		c0.123,0.31,0.214,0.776,0.275,1.41v0.092c0,0.08-0.072,0.152-0.214,0.215c-0.123-0.041-0.184-0.151-0.184-0.338v-0.672
		c0-0.186-0.081-0.479-0.245-0.89l0.337-0.46c0.223-0.366,0.438-0.855,0.643-1.47L40.792,28.01L40.792,28.01z M50.786,27.581
		c0.163,0.042,0.244,0.144,0.244,0.308c0,0.041-0.214,0.267-0.643,0.674c-0.083,0.08-0.123,0.162-0.123,0.244v0.063l0.093,0.028
		l0.49-0.121c0.143,0.062,0.214,0.162,0.214,0.308l-0.398,0.704v0.061l0.092,0.09l0.429-0.061c0.144,0.102,0.214,0.193,0.214,0.275
		c-0.081,0.265-0.204,0.396-0.367,0.396c-0.039-0.204-0.08-0.308-0.123-0.308h-0.152c-0.183,0.021-0.408,0.104-0.673,0.246h-0.062
		l-0.184-0.152c0-0.063,0.214-0.326,0.643-0.797l0.153-0.215v-0.092l-0.091-0.092l-0.613,0.243l-0.245,0.031
		c-0.102-0.021-0.153-0.054-0.153-0.095v-0.028c0-0.122,0.295-0.449,0.887-0.979l0.154-0.215c-0.021-0.082-0.083-0.123-0.185-0.123
		l-0.429,0.063l-0.091-0.123v-0.03C49.868,27.742,50.173,27.643,50.786,27.581L50.786,27.581z M48.183,28.041h0.031
		c0.53,0.163,0.795,0.285,0.795,0.365v0.063c0,0.04-0.051,0.071-0.153,0.094c-0.49-0.164-0.734-0.285-0.734-0.367v-0.092
		L48.183,28.041L48.183,28.041z M48.244,29.54l-0.091,0.063l0.03,0.365l-0.06,0.338c0,0.082,0.112,0.377,0.335,0.889v0.093
		l-0.03,0.151l-0.52,0.338c-0.368,0.103-0.551,0.203-0.551,0.308c0.041,0.183,0.122,0.274,0.244,0.274h0.062
		c0.184-0.146,0.847-0.309,1.989-0.49L50.05,31.9l0.337-0.094c0.185,0,0.327,0.021,0.429,0.063l0.581-0.029h0.431
		c0.283,0,0.652,0.063,1.103,0.186l0.093-0.094v-0.029c0-0.186-0.122-0.314-0.368-0.396L52.5,31.53l-0.244-0.03l-2.206-0.03
		l-0.948,0.063l-0.154-0.03l-0.458-1.194v-0.062l0.061-0.366c-0.061-0.227-0.123-0.338-0.184-0.338L48.244,29.54L48.244,29.54z
		 M58.637,27c0.265,0.143,0.396,0.377,0.396,0.704c0.369,0.081,0.553,0.133,0.553,0.151l0.031,0.029
		c0,0.081-0.236,0.133-0.705,0.153c-0.144,0.081-0.297,0.244-0.459,0.487v0.123l0.092,0.093l0.459-0.03l0.582,0.063l0.123-0.028
		c0.529,0,0.795,0.11,0.795,0.337c0,0.163-0.266,0.355-0.795,0.581h-0.063V29.6l0.428-0.428V29.08c0-0.102-0.388-0.153-1.162-0.153
		c-0.285,0-0.836,0.122-1.652,0.367l-0.029-0.03V29.2c0.082-0.103,0.326-0.214,0.732-0.335l0.338-0.489v-0.031
		c0-0.122-0.063-0.183-0.186-0.183h-0.029c-0.164,0.061-0.512,0.121-1.041,0.183h-0.123l-0.062-0.062v-0.092
		c0.408-0.063,0.612-0.145,0.612-0.244l-0.092-0.398l0.029-0.091h0.092c0.041,0,0.11,0.11,0.215,0.336
		c0.267,0,0.396,0.052,0.396,0.153l0.153,0.027c0.227,0,0.388-0.15,0.486-0.459v-0.117c0-0.146-0.067-0.217-0.213-0.217
		l-0.151,0.029C58.473,27.111,58.554,27.041,58.637,27L58.637,27z M56.646,29.082c-0.122,0.102-0.184,0.202-0.184,0.307
		c-0.309,0.611-0.459,0.969-0.459,1.07c0.021,0.145,0.062,0.214,0.123,0.214h0.092c0.039,0,0.111-0.092,0.214-0.272
		c0.163-0.553,0.315-0.869,0.46-0.949c0-0.104-0.072-0.227-0.214-0.366L56.646,29.082L56.646,29.082z M58.666,29.54
		c-0.142,0.021-0.213,0.052-0.213,0.093v0.03c0.104,0.103,0.152,0.192,0.152,0.274c-0.143,0.285-0.286,0.459-0.43,0.521
		c-0.122,0-0.184-0.063-0.184-0.186v-0.366c0-0.162-0.041-0.257-0.121-0.274h-0.031c-0.104,0.041-0.152,0.174-0.152,0.397v0.459
		l-0.061,0.429l0.184,0.366l-0.123,0.979c0.021,0.163,0.063,0.245,0.123,0.245c0.102-0.063,0.152-0.163,0.152-0.309
		c0.062-0.511,0.408-0.767,1.041-0.767h0.062l0.093,0.094v0.093c-0.43,0.446-0.644,0.733-0.644,0.854
		c0.204,0.286,0.541,0.428,1.01,0.428c0.123,0,0.214-0.051,0.274-0.149v-0.03l-0.063-0.092c-0.487-0.104-0.731-0.215-0.731-0.337
		v-0.03c0.367-0.429,0.552-0.715,0.552-0.855v-0.029c-0.062-0.104-0.163-0.174-0.308-0.215l-0.029,0.031h-0.031
		c-0.285,0-0.57,0.061-0.855,0.184H58.3l-0.094-0.094l0.029-0.121l0.489-0.396l-0.093-0.274V30.4
		c0.185-0.226,0.275-0.407,0.275-0.551v-0.094C58.851,29.65,58.769,29.582,58.666,29.54L58.666,29.54z M66.608,27.521
		c0.062,0.021,0.093,0.082,0.093,0.185s-0.193,0.429-0.582,0.979l-0.031,0.185v0.062l0.095,0.153
		c-0.104,0.326-0.152,0.929-0.152,1.808l0.03,0.028l-0.03,0.093c0.122,0.162,0.187,0.285,0.187,0.367
		c-0.104,0.571-0.187,0.855-0.246,0.855h-0.063c-0.121,0-0.184-0.314-0.184-0.948l0.027-0.338l-0.062-0.336l0.062-0.552
		c-0.062,0-0.103-0.094-0.123-0.273c0.187-0.367,0.31-0.653,0.369-0.857v-0.123h-0.063c-0.225,0.185-0.377,0.274-0.46,0.274h-0.03
		V29.02h-0.029c0.551-0.674,0.918-1.174,1.104-1.5h0.09L66.608,27.521L66.608,27.521z M65.201,27.611l0.123,0.093v0.028
		c-0.103,0.369-0.359,0.797-0.767,1.287l-0.03,0.121c0.163,0.244,0.244,0.396,0.244,0.459l-0.307,0.856v0.03l0.063,0.58v0.123
		l0.092,0.092h0.063c0.405-0.551,0.61-0.866,0.61-0.947h0.031l0.061,0.063c0,0.164-0.256,0.662-0.766,1.5
		c-0.145,0.306-0.254,0.459-0.336,0.459c-0.145-0.063-0.217-0.162-0.217-0.308c0.164-0.325,0.245-0.685,0.245-1.069l-0.092-0.582
		c0.243-0.448,0.366-0.713,0.366-0.797c0-0.123-0.123-0.285-0.366-0.488l-0.03-0.028v-0.031c0.268-0.284,0.581-0.755,0.948-1.407
		h0.063V27.611L65.201,27.611z M67.526,27.766c-0.103,0.063-0.173,0.164-0.214,0.308c0,0.204-0.184,0.325-0.553,0.368v0.121
		c0.268,0.103,0.398,0.215,0.398,0.336v0.152l-0.275,0.338l0.186,0.307l-0.092,0.308l0.061,0.459v0.552
		c-0.347,0.348-0.521,0.551-0.521,0.611c0.081,0.186,0.255,0.275,0.521,0.275c1.021-0.104,1.53-0.234,1.53-0.397v-0.063
		c0-0.041-0.051-0.069-0.151-0.092h-0.031l-0.028,0.031l-0.796,0.029c-0.04,0-0.082-0.051-0.122-0.152
		c0.326-0.408,0.5-0.684,0.521-0.826l-0.063-0.214c-0.122-0.144-0.186-0.246-0.186-0.308v-0.121l0.151-0.275v-0.063l-0.364-0.366
		v-0.246l0.062-0.185c0.226-0.063,0.337-0.152,0.337-0.273C67.731,27.969,67.609,27.766,67.526,27.766L67.526,27.766z M75.47,27.184
		h0.063c0.569,0.063,0.855,0.234,0.855,0.521L75.806,28.5v0.063l0.063,0.063l0.611-0.123c0.186,0.063,0.275,0.163,0.275,0.31
		l-0.461,0.644v0.062c0.268,0.225,0.396,0.377,0.396,0.459c-0.04,0.041-0.232,0.111-0.581,0.215c0,0.063-0.192,0.146-0.581,0.244
		c-0.063,0.082-0.134,0.315-0.216,0.705l0.031,0.703c0,0.245-0.308,0.553-0.919,0.918h-0.063L74.3,32.7v-0.093
		c0.429-0.43,0.643-0.797,0.643-1.104l0.123-1.471c0-0.227-0.051-0.529-0.152-0.918c0.672-0.693,1.01-1.146,1.01-1.348
		c0-0.082-0.143-0.186-0.428-0.307l-0.092-0.123v-0.093L75.47,27.184L75.47,27.184z M73.664,27.365
		c-0.041,0-0.082,0.053-0.123,0.152l0.063,1.53l-0.063,0.123c-0.389,0.349-0.756,0.54-1.103,0.581l-0.336-0.063l-0.093,0.123
		c0.021,0.121,0.234,0.266,0.643,0.428l0.123-0.063c0.266-0.282,0.449-0.446,0.551-0.487h0.123l0.123,0.092l-0.031,0.185
		l0.031,0.675c0,0.187-0.389,0.685-1.164,1.5v0.094c0,0.143,0.112,0.244,0.338,0.307h0.029l0.031-0.03l1.01,0.275
		c0.143-0.082,0.214-0.154,0.214-0.216L74,32.541v-0.245l-0.062-1.315v-0.185c0-0.204,0.081-0.448,0.244-0.733
		c0-0.103-0.08-0.185-0.244-0.244l0.123-0.489c0.224-0.146,0.336-0.226,0.336-0.244v-0.03c-0.244-0.185-0.367-0.355-0.367-0.521
		v-0.061l0.031-0.029c-0.103-0.717-0.215-1.071-0.337-1.071h-0.061V27.365L73.664,27.365z M75.438,29.234v0.459l0.093,0.095h0.092
		c0.104-0.082,0.192-0.228,0.274-0.431c0.164-0.123,0.267-0.226,0.308-0.308c-0.041-0.104-0.082-0.151-0.123-0.151H76.05
		C75.642,29.04,75.438,29.15,75.438,29.234L75.438,29.234z M73.05,31.96c0.246-0.43,0.398-0.646,0.461-0.646l0.121,0.123v0.703
		c0,0.121-0.051,0.193-0.152,0.215c-0.286-0.063-0.43-0.133-0.43-0.215V31.96L73.05,31.96z M83.289,26.604
		c0.123,0,0.228,0.07,0.31,0.213v0.095c-0.39,0.347-0.582,0.569-0.582,0.673v0.093c0.104,0.144,0.214,0.214,0.336,0.214l0.31-0.029
		c0.242,0.021,0.365,0.111,0.365,0.274v0.031c-0.429,0.447-0.646,0.724-0.646,0.824l-0.061,0.368v0.121
		c0.061,0.104,0.121,0.152,0.184,0.152l0.918-0.093h0.154c0.12,0,0.243,0.104,0.366,0.308l-0.093,0.092v0.029l-0.674-0.091
		c-0.592,0.04-0.887,0.133-0.887,0.274c-0.063,0.185-0.193,1.052-0.399,2.603l-0.121,0.49h-0.062l-0.031-0.03h-0.029l0.061-0.704
		l-0.031-0.03v-0.03l0.154-2.021v-0.123l-0.123-0.123h-0.149c-1.021,0.326-1.653,0.571-1.896,0.734
		c-0.123,0-0.275,0.052-0.461,0.152c-0.162-0.041-0.244-0.164-0.244-0.366c0-0.103,0.109-0.175,0.336-0.216l0.029,0.031h0.03
		c0.755-0.104,1.296-0.256,1.622-0.459l0.152-0.154l0.185,0.063c0.39-0.121,0.581-0.244,0.581-0.365v-0.028l-0.121-0.123h-0.096
		l-0.213,0.123v-0.032c0.309-0.407,0.459-0.684,0.459-0.826c0-0.203-0.069-0.314-0.215-0.336l-0.765,0.307H81.88l-0.153-0.151
		c0-0.063,0.276-0.377,0.827-0.949l0.306-0.396v-0.063l-0.062-0.063h-0.063l-0.887,0.121c-0.163,0-0.286-0.062-0.368-0.185
		l0.094-0.093v-0.032l0.151,0.03L83.289,26.604L83.289,26.604z M90.558,27.365c0.102,0,0.174,0.113,0.214,0.339
		c0,0.12-0.112,0.487-0.336,1.103l0.062,0.063h0.123c0.406-0.122,0.795-0.215,1.162-0.275c0.245,0,0.438,0.093,0.582,0.275v0.121
		l-1.041,0.827h-0.031v-0.063c0.31-0.407,0.461-0.644,0.461-0.704v-0.063l-0.094-0.09c-0.734,0-1.459,0.326-2.175,0.979
		c-0.429,0.305-0.661,0.459-0.704,0.459l-0.092-0.031v-0.063c0-0.104,0.204-0.305,0.613-0.61c0.51-0.407,0.867-1,1.07-1.774
		C90.395,27.529,90.457,27.365,90.558,27.365L90.558,27.365z M91.599,30.857h0.152c0.184,0.104,0.273,0.267,0.273,0.488
		l-0.214,0.338v0.123c0,0.021,0.144,0.12,0.431,0.305c0.062,0.082,0.092,0.152,0.092,0.217l-0.092,0.063l-1.014-0.215l-0.186-0.187
		c0-0.103,0.146-0.296,0.431-0.58l0.028-0.122v-0.03l-0.063-0.063H91.32c-0.652,0.123-0.979,0.391-0.979,0.796
		c0,0.286-0.063,0.461-0.188,0.521h-0.063c-0.104-0.063-0.176-0.162-0.215-0.308l0.152-0.552v-0.336
		c0-0.082,0.031-0.146,0.092-0.186l0.187,0.091h0.123C91.048,30.979,91.436,30.857,91.599,30.857z"/>
</g>
</svg>
