<?xml version="1.0" encoding="utf-8"?>
<!-- Generator: Adobe Illustrator 16.0.0, SVG Export Plug-In . SVG Version: 6.00 Build 0)  -->
<!DOCTYPE svg PUBLIC "-//W3C//DTD SVG 1.1//EN" "http://www.w3.org/Graphics/SVG/1.1/DTD/svg11.dtd">
<svg version="1.1" id="图层_1" xmlns="http://www.w3.org/2000/svg" xmlns:xlink="http://www.w3.org/1999/xlink" x="0px" y="0px"
	 width="460px" height="120px" viewBox="0 0 460 120" enable-background="new 0 0 460 120" xml:space="preserve">
<desc></desc>
<g>
	<path fill="#1ABC9C" d="M242.842,70.669v-5.142h-9.316V63.11l9.8-13.916h2.153V63.11h2.9v2.417h-2.9v5.142H242.842z M242.842,63.11
		v-9.683l-6.724,9.683H242.842z"/>
	<path fill="#1ABC9C" d="M254.674,60.078c0-2.539,0.262-4.583,0.784-6.13s1.299-2.742,2.329-3.582s2.326-1.26,3.889-1.26
		c1.152,0,2.164,0.232,3.033,0.696s1.586,1.133,2.152,2.007s1.012,1.938,1.334,3.193s0.482,2.947,0.482,5.076
		c0,2.52-0.258,4.554-0.775,6.101c-0.518,1.549-1.292,2.745-2.322,3.59s-2.332,1.267-3.904,1.267c-2.07,0-3.695-0.742-4.877-2.227
		C255.383,67.021,254.674,64.111,254.674,60.078z M257.385,60.078c0,3.525,0.412,5.872,1.237,7.038
		c0.825,1.168,1.843,1.751,3.054,1.751s2.229-0.586,3.055-1.758s1.238-3.516,1.238-7.031c0-3.535-0.413-5.884-1.238-7.046
		s-1.854-1.743-3.084-1.743c-1.211,0-2.178,0.513-2.9,1.538C257.838,54.136,257.385,56.553,257.385,60.078z"/>
	<path fill="#1ABC9C" d="M274.959,60.078c0-2.539,0.262-4.583,0.783-6.13c0.523-1.548,1.299-2.742,2.33-3.582
		c1.029-0.84,2.326-1.26,3.889-1.26c1.152,0,2.163,0.232,3.032,0.696s1.587,1.133,2.153,2.007s1.011,1.938,1.333,3.193
		s0.483,2.947,0.483,5.076c0,2.52-0.259,4.554-0.776,6.101c-0.518,1.549-1.292,2.745-2.321,3.59
		c-1.031,0.845-2.332,1.267-3.904,1.267c-2.07,0-3.696-0.742-4.878-2.227C275.667,67.021,274.959,64.111,274.959,60.078z
		 M277.669,60.078c0,3.525,0.413,5.872,1.237,7.038c0.826,1.168,1.844,1.751,3.055,1.751s2.229-0.586,3.055-1.758
		c0.824-1.172,1.237-3.516,1.237-7.031c0-3.535-0.413-5.884-1.237-7.046c-0.826-1.162-1.854-1.743-3.084-1.743
		c-1.211,0-2.178,0.513-2.9,1.538C278.123,54.136,277.669,56.553,277.669,60.078z"/>
	<path fill="#1ABC9C" d="M294.95,64.224v-2.651h8.101v2.651H294.95z"/>
	<path fill="#1ABC9C" d="M312.891,59.023c-1.094-0.4-1.904-0.972-2.432-1.714s-0.791-1.631-0.791-2.666
		c0-1.563,0.563-2.876,1.686-3.94s2.617-1.597,4.482-1.597c1.875,0,3.383,0.544,4.525,1.633s1.715,2.415,1.715,3.977
		c0,0.996-0.262,1.863-0.784,2.6s-1.315,1.306-2.38,1.707c1.318,0.43,2.321,1.123,3.01,2.08s1.033,2.1,1.033,3.428
		c0,1.836-0.65,3.379-1.949,4.629s-3.008,1.875-5.127,1.875s-3.828-0.627-5.127-1.882s-1.947-2.82-1.947-4.695
		c0-1.396,0.354-2.565,1.062-3.508S311.582,59.365,312.891,59.023z M311.514,64.473c0,0.752,0.179,1.479,0.535,2.183
		s0.887,1.248,1.59,1.633c0.703,0.387,1.459,0.579,2.27,0.579c1.26,0,2.301-0.405,3.121-1.216s1.23-1.841,1.23-3.091
		c0-1.27-0.423-2.319-1.268-3.149s-1.902-1.245-3.172-1.245c-1.24,0-2.268,0.41-3.083,1.23S311.514,63.242,311.514,64.473z
		 M312.363,54.556c0,1.016,0.328,1.846,0.982,2.49s1.504,0.967,2.549,0.967c1.016,0,1.848-0.32,2.497-0.959s0.974-1.423,0.974-2.351
		c0-0.967-0.334-1.78-1.003-2.439s-1.501-0.989-2.497-0.989c-1.006,0-1.842,0.322-2.506,0.967S312.363,53.657,312.363,54.556z"/>
	<path fill="#1ABC9C" d="M329.118,60.078c0-2.539,0.261-4.583,0.784-6.13c0.521-1.548,1.299-2.742,2.328-3.582
		c1.031-0.84,2.327-1.26,3.89-1.26c1.152,0,2.163,0.232,3.032,0.696s1.587,1.133,2.153,2.007s1.011,1.938,1.333,3.193
		s0.483,2.947,0.483,5.076c0,2.52-0.259,4.554-0.776,6.101c-0.518,1.549-1.291,2.745-2.322,3.59
		c-1.029,0.845-2.331,1.267-3.903,1.267c-2.07,0-3.696-0.742-4.878-2.227C329.826,67.021,329.118,64.111,329.118,60.078z
		 M331.828,60.078c0,3.525,0.412,5.872,1.238,7.038c0.824,1.168,1.843,1.751,3.054,1.751s2.229-0.586,3.054-1.758
		c0.826-1.172,1.238-3.516,1.238-7.031c0-3.535-0.412-5.884-1.238-7.046c-0.824-1.162-1.853-1.743-3.083-1.743
		c-1.211,0-2.178,0.513-2.9,1.538C332.282,54.136,331.828,56.553,331.828,60.078z"/>
	<path fill="#1ABC9C" d="M349.402,60.078c0-2.539,0.262-4.583,0.784-6.13s1.299-2.742,2.329-3.582s2.326-1.26,3.889-1.26
		c1.152,0,2.164,0.232,3.033,0.696s1.586,1.133,2.152,2.007s1.012,1.938,1.334,3.193s0.482,2.947,0.482,5.076
		c0,2.52-0.258,4.554-0.775,6.101c-0.518,1.549-1.292,2.745-2.322,3.59s-2.332,1.267-3.904,1.267c-2.07,0-3.695-0.742-4.877-2.227
		C350.111,67.021,349.402,64.111,349.402,60.078z M352.113,60.078c0,3.525,0.412,5.872,1.237,7.038
		c0.825,1.168,1.843,1.751,3.054,1.751s2.229-0.586,3.055-1.758s1.238-3.516,1.238-7.031c0-3.535-0.413-5.884-1.238-7.046
		s-1.854-1.743-3.084-1.743c-1.211,0-2.178,0.513-2.9,1.538C352.566,54.136,352.113,56.553,352.113,60.078z"/>
	<path fill="#1ABC9C" d="M369.395,64.224v-2.651h8.101v2.651H369.395z"/>
	<path fill="#1ABC9C" d="M387.335,59.023c-1.094-0.4-1.904-0.972-2.432-1.714s-0.791-1.631-0.791-2.666
		c0-1.563,0.562-2.876,1.685-3.94s2.617-1.597,4.482-1.597c1.875,0,3.384,0.544,4.526,1.633s1.714,2.415,1.714,3.977
		c0,0.996-0.262,1.863-0.783,2.6c-0.523,0.737-1.316,1.306-2.381,1.707c1.318,0.43,2.322,1.123,3.01,2.08
		c0.689,0.957,1.033,2.1,1.033,3.428c0,1.836-0.649,3.379-1.948,4.629s-3.008,1.875-5.127,1.875s-3.828-0.627-5.127-1.882
		s-1.948-2.82-1.948-4.695c0-1.396,0.354-2.565,1.063-3.508C385.018,60.008,386.026,59.365,387.335,59.023z M385.958,64.473
		c0,0.752,0.179,1.479,0.534,2.183c0.357,0.703,0.887,1.248,1.59,1.633c0.703,0.387,1.46,0.579,2.271,0.579
		c1.26,0,2.3-0.405,3.12-1.216s1.23-1.841,1.23-3.091c0-1.27-0.422-2.319-1.268-3.149c-0.844-0.83-1.901-1.245-3.171-1.245
		c-1.24,0-2.269,0.41-3.083,1.23C386.365,62.217,385.958,63.242,385.958,64.473z M386.808,54.556c0,1.016,0.327,1.846,0.981,2.49
		s1.504,0.967,2.549,0.967c1.016,0,1.848-0.32,2.498-0.959c0.648-0.64,0.974-1.423,0.974-2.351c0-0.967-0.335-1.78-1.003-2.439
		c-0.67-0.659-1.502-0.989-2.498-0.989c-1.006,0-1.841,0.322-2.505,0.967S386.808,53.657,386.808,54.556z"/>
	<path fill="#1ABC9C" d="M403.563,60.078c0-2.539,0.261-4.583,0.783-6.13s1.299-2.742,2.329-3.582s2.327-1.26,3.89-1.26
		c1.152,0,2.162,0.232,3.031,0.696s1.588,1.133,2.154,2.007s1.01,1.938,1.332,3.193s0.484,2.947,0.484,5.076
		c0,2.52-0.26,4.554-0.777,6.101c-0.518,1.549-1.291,2.745-2.321,3.59s-2.331,1.267-3.903,1.267c-2.07,0-3.697-0.742-4.879-2.227
		C404.27,67.021,403.563,64.111,403.563,60.078z M406.271,60.078c0,3.525,0.413,5.872,1.238,7.038
		c0.825,1.168,1.844,1.751,3.055,1.751s2.229-0.586,3.054-1.758s1.237-3.516,1.237-7.031c0-3.535-0.412-5.884-1.237-7.046
		s-1.853-1.743-3.083-1.743c-1.211,0-2.178,0.513-2.9,1.538C406.727,54.136,406.271,56.553,406.271,60.078z"/>
	<path fill="#1ABC9C" d="M423.847,60.078c0-2.539,0.261-4.583,0.784-6.13c0.521-1.548,1.299-2.742,2.328-3.582
		c1.031-0.84,2.327-1.26,3.89-1.26c1.152,0,2.163,0.232,3.032,0.696s1.587,1.133,2.153,2.007s1.011,1.938,1.333,3.193
		s0.483,2.947,0.483,5.076c0,2.52-0.259,4.554-0.776,6.101c-0.518,1.549-1.292,2.745-2.322,3.59
		c-1.029,0.845-2.331,1.267-3.903,1.267c-2.07,0-3.696-0.742-4.878-2.227C424.555,67.021,423.847,64.111,423.847,60.078z
		 M426.557,60.078c0,3.525,0.412,5.872,1.238,7.038c0.824,1.168,1.843,1.751,3.054,1.751s2.229-0.586,3.054-1.758
		c0.826-1.172,1.238-3.516,1.238-7.031c0-3.535-0.412-5.884-1.238-7.046c-0.824-1.162-1.853-1.743-3.083-1.743
		c-1.211,0-2.178,0.513-2.9,1.538C427.011,54.136,426.557,56.553,426.557,60.078z"/>
</g>
<g>
	<path fill="#1ABC9C" d="M203.613,63.045c-0.937-0.174-2.689,1.416-2.689,1.416c5.012,3.165,5,7.009,5,7.009s1.14-0.569,1.738-1.549
		c0.598-0.978,0.802-2.134-0.651-4.156C205.555,63.739,204.551,63.225,203.613,63.045L203.613,63.045z"/>
	<path fill="#1ABC9C" d="M184.654,46.167c-0.947,0.102-2.159,2.137-2.159,2.137c5.719,1.563,6.833,5.242,6.833,5.242
		s0.97-1.251,1.256-2.361c0.285-1.109,0.094-1.904-1.888-3.415C186.714,46.259,185.602,46.063,184.654,46.167L184.654,46.167z"/>
	<path fill="#1ABC9C" d="M191.369,41.747c-10.17,0-18.445,8.22-18.445,18.325c0,10.102,8.275,18.323,18.445,18.323
		c4.565,0,8.723-1.683,11.946-4.424c0.345-0.068,1.276-0.338,1.075-1.292c-0.245-1.17-2.066-4.946-4.866-6.606
		c0,0-1.057-0.625-1.98,0.515c0,0-1.442,0.518-4.594-2.524c-3.152-3.045-6.004-5.353-4.973-8.451c0,0,0.461-1.658-3.425-3.855
		c-3.886-2.202-4.169-0.805-4.361-0.233c-0.189,0.571-1.264,2.706-0.461,4.784c0.653,1.692,2.759,5.993,8.956,11.863
		c5.2,4.919,8.406,6.813,10.891,6.866c-2.437,1.329-5.231,2.094-8.206,2.094c-9.471,0-17.177-7.653-17.177-17.057
		c0-9.406,7.706-17.059,17.177-17.059c9.472,0,17.178,7.653,17.178,17.059c0,0.104-0.015,0.204-0.018,0.308h1.269
		c0.002-0.104,0.018-0.204,0.018-0.308C209.815,49.967,201.539,41.747,191.369,41.747z"/>
</g>
</svg>
