<?xml version="1.0" encoding="utf-8"?>
<!-- Generator: Adobe Illustrator 16.0.0, SVG Export Plug-In . SVG Version: 6.00 Build 0)  -->
<!DOCTYPE svg PUBLIC "-//W3C//DTD SVG 1.1//EN" "http://www.w3.org/Graphics/SVG/1.1/DTD/svg11.dtd">
<svg version="1.1" id="_x37C_" xmlns="http://www.w3.org/2000/svg" xmlns:xlink="http://www.w3.org/1999/xlink" x="0px" y="0px"
	 width="100.8px" height="33px" viewBox="0 -0.5 100.8 33" enable-background="new 0 -0.5 100.8 33" xml:space="preserve">
<g>
	<path opacity="0.4" fill="#2ECC71" enable-background="new    " d="M31.182,23.973c0.11,0.08,0.002,0.045,0.113,0.086
		c-0.084,0.125-0.086,0.104-0.198,0.026C31.147,23.989,31.1,24.032,31.182,23.973L31.182,23.973z M50.377,12.737
		c-0.747,0-1.49,0.011-2.232,0.031c-0.014,0.005-0.041,0.01-0.102,0.014c-0.096,0.007-0.213,0.005-0.327,0.002
		c-0.869,0.028-1.734,0.07-2.595,0.125c-0.017,0.007-0.048,0.012-0.127,0.015c-0.049,0.001-0.093,0.002-0.134,0.002
		c-0.247,0.016-0.495,0.028-0.741,0.047c-0.075,0.015-0.209,0.024-0.363,0.031c-0.401,0.032-0.801,0.068-1.201,0.107l-0.024,0.005
		c-0.038,0.007-0.084,0.009-0.135,0.009c-4.614,0.447-9.116,1.276-13.474,2.458c-0.432,0.567-1.485,0.739-2.043,0.743h-0.531
		c-0.81,0.249-1.614,0.509-2.414,0.782h4.761l0.752-0.185c0.156-0.046,0.332-0.061,0.5,0.002l0.104,0.037
		c0,0.069,0.007,0.108-0.004,0.146h2.018c0.307,0,0.307,0.47,0,0.47h-2.583c0.036,0.047,0.073,0.09,0.089,0.147
		c-0.045,0.067-0.034,0.031-0.056,0.113c-0.395,0,0.001,0.18-0.583-0.123c-0.12-0.063-0.142-0.074-0.145-0.139h-6.19
		c-5.032,1.814-9.834,4.109-14.354,6.831L4.83,26.682c-0.005,0.004-0.012,0.01-0.016,0.012c-0.224,0.176-0.471,0.313-0.693,0.494
		l-1.715,1.309C2.402,28.5,2.395,28.505,2.391,28.51c-0.004,0.004-0.011,0.01-0.015,0.016c-0.005,0.004-0.011,0.011-0.016,0.014
		L2.187,28.68c-0.033,0.022-0.042,0.033-0.076,0.063L1.439,29.28c-0.108,0.071-0.204,0.151-0.301,0.235
		c-0.004,0.004-0.011,0.011-0.015,0.015l-0.122,0.104c-0.059,0.055-0.099,0.084-0.153,0.131L0.414,30.12
		c-0.093,0.069-0.096,0.037-0.099,0.183c0.11-0.022,0.101-0.043,0.174-0.104c0.004-0.004,0.011-0.013,0.015-0.017l1.683-1.227
		c0.238-0.188,0.517-0.329,0.755-0.518l0.031-0.024c0.114-0.088,0.443-0.269,0.678-0.451l0.668-0.436
		c0.005-0.005,0.011-0.009,0.016-0.013c0.04-0.026,0.014-0.015,0.067-0.047c0.104-0.07,0.191-0.125,0.29-0.188l1.543-0.974
		C6.29,26.271,6.34,26.251,6.4,26.219l1.157-0.68c0.005-0.003,0.012-0.008,0.017-0.014l0.431-0.244
		c0.005-0.004,0.012-0.01,0.018-0.012l1.23-0.689c0.023-0.014,0.074-0.039,0.093-0.048l1.032-0.552
		c0.085-0.037,0.092-0.039,0.173-0.08l1.216-0.619c0.006-0.004,0.014-0.008,0.02-0.01c0.005-0.004,0.013-0.006,0.019-0.008
		l0.866-0.438c0.322-0.167,0.656-0.287,0.982-0.459l1.19-0.532c0.029-0.013,0.053-0.021,0.078-0.032l0.648-0.283
		c0.124-0.041,0.184-0.105,0.303-0.148l0.427-0.166c0.045-0.02,0.012-0.008,0.079-0.034c0.058-0.021,0.097-0.032,0.163-0.063
		c0.559-0.265,0.672-0.259,1.142-0.468l1.861-0.711c0.146,0.099,0.184,0.196,0.293,0.301c0.364,0.339,0.642,0.166,0.864,0.38
		c0.001,0,0.031,0.028,0.043,0.041l0.097,0.102c0.003,0.005,0.007,0.013,0.011,0.019l0.053,0.09
		c0.003,0.007,0.008,0.013,0.012,0.018l0.111,0.145c0.003,0.007,0.009,0.014,0.013,0.019c0.08,0.097,0.162,0.124,0.283,0.168
		l0.08,0.031c0.083,0.05,0.086,0.051,0.042,0.146c-0.032,0.067-0.035-0.028-0.039,0.138c0.1,0.048,0.397,0.061,0.48,0.143
		c0.118,0.245-0.088,0.15,0.242,0.295c0.052,0.021,0.058,0.028,0.095,0.048l0.092,0.051c0.116,0.069,0.005,0.063,0.221,0.063v-0.168
		c-0.345-0.082-0.248-0.129-0.458-0.361c-0.15-0.166-0.125-0.043-0.281-0.254c-0.059-0.078-0.006-0.021-0.073-0.07l-0.241-0.183
		c-0.074-0.069-0.096-0.067-0.104-0.179c0.265-0.063,0.246,0.016,0.553,0.322l0.344,0.248c0.069,0.057,0.153,0.098,0.289,0.104
		c0.032,0.138,0.068,0.167,0.194,0.229c0.043,0.021,0.084,0.043,0.127,0.067c0.134,0.081,0.274,0.152,0.391,0.261
		c0.079,0.071,0.169,0.138,0.219,0.231c-0.13,0.244-0.077,0.267,0.173,0.363l1.118,0.321c0.006,0.002,0.013,0.006,0.02,0.008
		l0.092,0.021c0.039,0.01,0.077,0.02,0.138,0.03c0.105,0.022,0.21,0.047,0.299,0.065c0.282,0.067,0.343,0.004,0.6-0.041
		c0.137-0.021,0.264,0.045,0.37,0.114c0.026,0.02,0.027,0.02,0.051,0.034l0.297,0.154c0.152,0.062,0.433,0.076,0.591,0.115
		c0.177,0.043,0.158,0.006,0.317-0.008c0.025,0.106,0.013,0.105,0.083,0.172c0.046,0.041,0.087,0.063,0.157,0.098l0.079,0.033
		c0.08,0.047,0.1,0.172,0.133,0.265l0.141-0.058c0.164,0.004,0.262,0.17,0.471,0.231c0.065,0.021,0.071,0.017,0.141,0.027
		c0.047,0.011,0.093,0.024,0.152,0.051c0.003,0.001,0.058,0.021,0.06,0.021c0.018,0.011,0.055,0.025,0.055,0.025
		c0.086,0.036,0.031,0.031,0.166,0.031c0.033-0.072,0.02-0.057,0-0.143c0.182-0.004,0.155-0.104,0.318-0.064l0.269,0.154
		c0.129,0.104,0.133,0.604-0.03,0.664c-0.146,0.058-0.104-0.025-0.263,0.162l-0.117,0.105c-0.005,0.003-0.012,0.007-0.017,0.014
		l-0.038,0.021c-0.11,0.055-0.166,0.104-0.245,0.208c-0.091,0.115-0.162,0.23-0.329,0.234c0.02,0.236,0.252,0.111,0.384,0.231
		c0.054,0.048,0.035,0.08-0.026,0.235c-0.002,0.009-0.006,0.016-0.008,0.021c-0.022,0.061-0.04,0.063-0.033,0.124
		c0.011,0.112,0.063,0.104,0.144,0.165c0.069,0.057,0.001-0.005,0.058,0.059l0.198,0.194c0.114,0.136,0.256,0.242,0.334,0.4
		c0.066,0.136,0.165,0.229,0.293,0.323c0.005,0.009,0.012,0.013,0.017,0.017l0.721,0.321c0.231,0.104,0.497,0.193,0.619,0.429
		c0.144,0.271-0.014,0.759-0.088,1.051c-0.052,0.206-0.028,0.226-0.131,0.384c-0.105,0.158,0.031,0.078-0.031,0.19
		c-0.049,0.089-0.014-0.032-0.063,0.077c-0.043,0.099,0.084,0.209,0.028,0.423c-0.037,0.142-0.112,0.271-0.193,0.373l-0.153,0.13
		c-0.005,0.003-0.013,0.007-0.018,0.01c-0.027,0.021-0.105,0.012-0.104,0.178c0.001,0.207,0.083,0.184-0.057,0.371
		c-0.128,0.172-0.111,0.283,0,0.449c-0.048,0.032-0.063,0.049-0.107,0.092c-0.076,0.072-0.054,0.043-0.09,0.137
		c-0.054,0.143-0.113,0.135-0.113,0.313c0.134-0.012,0.054-0.012,0.174-0.005c0.026,0.002,0.052,0.003,0.078,0.005h1.642h0.027
		c-0.028-0.076,0.001-0.059-0.113-0.085V32.33l0.336-0.111c0.139-0.06,0.138-0.102,0.217-0.207c0.044-0.063,0.022-0.059,0.113-0.084
		c0.141-0.047,0.194,0.018,0.209-0.16c-0.393,0-0.397-0.123-0.231-0.146c0.092-0.01,0.216,0.015,0.313-0.001
		c0.125-0.018,0.131-0.061,0.229-0.083c0-0.296,0.005-0.229,0.231-0.207c0.233,0.021,0.72-0.103,0.963-0.208
		c0.079-0.033,0.091-0.063,0.132-0.12c-0.089-0.171-0.169-0.055-0.169-0.28c-0.111-0.024-0.142-0.011-0.198-0.084
		c0.084,0.006,0.219,0.039,0.29,0.047c0.342,0.041,0.46,0.166,0.807-0.107l0.269-0.236c0.083-0.072,0.178-0.093,0.263-0.162
		l0.243-0.209c0.023-0.027,0.012-0.021,0.036-0.05c0.101-0.131,0.214-0.18,0.236-0.354c0.03-0.242,0.114-0.301,0.328-0.379
		l0.266-0.071c0.128-0.021,0.139-0.037,0.249-0.091c0.161-0.075,0.458-0.053,0.656-0.053c0.069-0.104,0.047-0.143,0.226-0.143
		c0.002-0.095,0.034-0.143,0.057-0.168c0.005-0.007,0.022-0.021,0.027-0.027l0.075-0.097c0.027-0.032,0.016-0.017,0.053-0.062
		l0.059-0.082c0.003-0.006,0.008-0.014,0.012-0.021l0.079-0.114c0.048-0.08,0.153-0.235,0.169-0.313
		c0.014-0.063,0.013-0.146-0.003-0.21c-0.029-0.113-0.048-0.018-0.048-0.208c0.085-0.013,0.188-0.07,0.25-0.117
		c0.085-0.063,0.11-0.127,0.196-0.196c0.146-0.119,0.458-0.248,0.523-0.408c0.018-0.043,0.007-0.019,0.011-0.062l0.001-0.039
		c0-0.006,0-0.016,0-0.021c0.01-0.213-0.064-0.37-0.216-0.436c-0.042-0.018-0.033-0.015-0.092-0.021
		c-0.456-0.051-0.551-0.26-0.848-0.312c-0.21-0.034-0.562,0.046-0.744-0.019c-0.062-0.022-0.022-0.029-0.113-0.059
		c-0.077-0.021-0.099-0.003-0.168-0.027c-0.179-0.069-0.156-0.207-0.58-0.215c-0.168-0.002-0.242,0.026-0.368,0.03
		c-0.008-0.019-0.005-0.022-0.009-0.043c-0.017-0.063,0.014,0-0.019-0.069l-0.4-0.063c0.236-0.16,0.019-0.211-0.042-0.303
		c-0.05-0.075-0.032-0.138-0.032-0.253c-0.079-0.041-0.149-0.08-0.235-0.133c-0.109-0.063-0.122-0.106-0.251-0.146
		c-0.568-0.155-0.959,0.16-1.444-0.277c-0.09-0.082-0.025-0.035-0.146-0.08c-0.007-0.002-0.014-0.007-0.021-0.009
		c-0.198-0.071-0.284-0.021-0.302-0.229c-0.009-0.1,0.036,0.023,0.055-0.146c-0.198,0.007-0.078,0.025-0.198,0.113
		c-0.005-0.004-0.013-0.019-0.016-0.015c-0.003,0.007-0.013-0.01-0.016-0.012l-0.12-0.078c-0.117-0.037-0.311,0.008-0.354,0.021
		l-0.042,0.018c-0.195,0.059-0.345,0.016-0.554,0.012c-0.072-0.004-0.215,0.011-0.276-0.01c-0.183-0.054-0.03-0.136-0.402-0.136
		c-0.045-0.063-0.034-0.028-0.057-0.11h-0.113c-0.002,0.108,0.008,0.063-0.028,0.144c-0.243,0-0.126,0.053-0.311,0.058
		c0.029-0.106,0.046-0.084,0.169-0.111c-0.017-0.072-0.026-0.084-0.056-0.144c-0.049,0-0.01-0.004-0.05,0.009l-0.084,0.025
		c-0.006,0.003-0.014,0.007-0.02,0.012l-0.264,0.131c-0.121,0.041-0.201,0.01-0.316,0.051l-0.226,0.027
		c-0.013,0.057-0.032,0.104-0.05,0.146c-0.041,0.089-0.021,0.064-0.108,0.117c-0.27,0.158-0.417-0.063-0.687-0.068
		c-0.096-0.004-0.232-0.011-0.304,0.037c-0.078,0.051-0.108,0.104-0.21,0.085c-0.023-0.005-0.073-0.021-0.088-0.024l-0.111-0.063
		c-0.004-0.005-0.011-0.014-0.015-0.016c-0.098-0.074-0.069-0.023-0.206-0.16c-0.187-0.188,0.028-0.363,0.028-0.707
		c-0.109-0.012-0.149-0.038-0.278-0.063c-0.39-0.064-0.221-0.025-0.571,0.002c-0.146,0.014-0.23-0.002-0.337-0.023l0.12-0.418
		c0.043-0.069,0.069-0.082,0.111-0.174c0.031-0.067,0.06-0.144,0.08-0.229c-0.18-0.042-0.288-0.034-0.461-0.009
		c-0.229,0.03-0.251,0.015-0.343,0.192c-0.046,0.088-0.164,0.235-0.272,0.256c-0.044,0.006-0.118-0.021-0.22-0.02
		c-0.419,0.021-0.205,0.104-0.663-0.045c-0.063-0.021-0.032-0.003-0.081-0.032c-0.072-0.045-0.103-0.138-0.202-0.224
		c-0.052-0.045-0.012-0.01-0.057-0.059c-0.02-0.021-0.053-0.058-0.067-0.072c-0.062-0.077-0.07-0.301-0.055-0.411
		c0.012-0.095,0.057-0.104,0.105-0.177c-0.07-0.262-0.34-0.31,0.306-0.455c0.062-0.016,0.047-0.016,0.065-0.021
		c0.007-0.002,0.014-0.006,0.021-0.008l0.042-0.017c0.348-0.112,0.216-0.153,0.618-0.104c0.219,0.028,0.399,0.035,0.642,0.035
		c0.034-0.07,0.02-0.055,0-0.143c0.191,0,0.713-0.021,0.864,0.013c0.184,0.041,0.107,0.079,0.378,0.073
		c0.057,0,0.169-0.008,0.22,0.007c0.032,0.008,0.039,0.004,0.075,0.036c0.031,0.028,0.046,0.033,0.047,0.086
		c0.006,0.265,0.068,0.272,0.29,0.453c0.137,0.107,0.233,0.063,0.356-0.02c0-0.188-0.03-0.227-0.104-0.35l-0.135-0.203
		c-0.068-0.088,0.038-0.024-0.072-0.068c0-0.265,0.19-0.336,0.409-0.438l0.738-0.311c0.006-0.002,0.014-0.006,0.021-0.008
		c0.042-0.014,0.028-0.01,0.074-0.011c0.003-0.124,0.02-0.089,0.028-0.196c-0.09-0.023-0.113-0.086-0.139-0.173
		c-0.028-0.093-0.002-0.106-0.002-0.253h0.028c0,0.018-0.002,0.07,0,0.085c0.016,0.103-0.016-0.028,0.01,0.048
		c0.002,0.006,0.005,0.014,0.008,0.021c0.03,0.063,0.061,0.093,0.152,0.104c0.067-0.102,0.056-0.063,0.056-0.229
		c0.113,0.056,0.188,0.004,0.25-0.09c0.108-0.16,0.206-0.143,0.391-0.201c0.127-0.043,0.309,0.01,0.422-0.061
		c0.055-0.031,0.02-0.021,0.067-0.047c-0.033-0.063-0.037-0.064-0.084-0.109c0.105-0.014,0.174-0.111,0.265-0.158L32,18.94
		c0.177-0.017,0.183-0.05,0.34-0.085l0.339-0.111c-0.053,0.196-0.247,0.02-0.254,0.313c0.056,0,0.145,0.004,0.197,0l0.304-0.121
		c0.06-0.029,0.098-0.043,0.177-0.049l0.353-0.068c0.04-0.016,0.052-0.014,0.089-0.023c0.105-0.033,0.12-0.074,0.263-0.074v-0.058
		c-0.127-0.017-0.071,0.042-0.085-0.085c-0.219,0.005-0.121,0.143-0.452,0.143v-0.058c0.161,0,0.109,0.022,0.142-0.06
		c-0.057-0.024-0.191-0.055-0.277-0.021c-0.078,0.027-0.03-0.021-0.062,0.055c-0.132-0.014-0.069,0.043-0.056-0.113l-0.227,0.059
		c-0.019-0.068-0.077-0.173-0.113-0.227c0.119,0,0.114,0.013,0.198-0.028c-0.034-0.095-0.016-0.054-0.131-0.097
		c-0.006-0.002-0.014-0.006-0.021-0.008c-0.312-0.113-0.425,0.021-0.612,0.021c0.177-0.168,0.036-0.124,0.347-0.162
		c0.219-0.026,0.313,0.021,0.501,0.021c0.016,0.033,0.01-0.006,0.008,0.041c0,0.002-0.008,0.063-0.008,0.07
		c0.188,0,0.351,0.104,0.367-0.085l-0.141-0.026c0.322,0,0.588,0.021,0.884-0.104l0.275-0.09c0.157-0.021,0.07,0.029,0.196-0.061
		c-0.022,0.129,0.042,0.06-0.056,0.084l-0.261,0.248c-0.096,0.086-0.205,0.153-0.219,0.289c0.186,0,0.672-0.021,0.827,0.021
		c0.36,0.106,0.076-0.019,0.359-0.021c0.006,0.273,0.294,0.172,0.311-0.025c-0.113-0.041,0.013,0.01-0.067-0.045l-0.039-0.023
		c-0.002-0.002-0.009-0.006-0.012-0.008c-0.072-0.047-0.085-0.047-0.115-0.109c-0.002-0.004-0.003-0.013-0.005-0.016l-0.055-0.068
		c-0.065-0.043-0.092-0.041-0.188-0.041l-0.142,0.06c-0.052-0.146-0.108-0.05-0.197-0.171c0.142-0.036,0.15-0.067,0.169-0.143
		l-0.146-0.043c0.093-0.045,0.049-0.005,0.089-0.126c0-0.096-0.036-0.106-0.084-0.198L34.285,17.4
		c-0.135-0.051-0.313-0.059-0.452-0.113c-0.126-0.05-0.126-0.085-0.31-0.085c0-0.224-0.149-0.256-0.389-0.431
		c-0.096-0.071-0.258-0.103-0.289-0.221c-0.117,0-0.166,0.02-0.234,0.105c-0.054,0.066-0.072,0.09-0.159,0.124
		c-0.006,0.002-0.013,0.005-0.02,0.008l-0.069,0.017c-0.09,0.013-0.267,0.002-0.367,0.002c-0.188,0.002-0.2-0.045-0.338-0.058
		l-0.002-0.239c-0.001-0.018-0.114-0.043,0.148-0.096l0.53-0.092c0.142-0.014,0.059-0.031,0.215-0.067
		c0.181-0.042,0.356-0.038,0.533-0.089c0.111-0.031-0.026-0.012,0.106-0.033l0.644-0.119c0.084-0.021,0.189-0.019,0.271-0.041
		l0.267-0.043c0.144-0.002,0.335-0.068,0.5-0.094l0.313-0.054c0.139-0.03,0.023-0.047,0.203-0.052
		c0.057,0.214,0.158-0.036,0.226,0.255h0.142c0.019-0.074-0.011-0.032,0.056-0.058c-0.035,0.066-0.048,0.074-0.056,0.17
		c0.102,0.049,0.228,0.071,0.302,0.149l0.115,0.083c0.227,0.104,0.318,0.212,0.679,0.188c0.375-0.023,0.309,0.119,0.577,0.142
		c0.117,0.009,0.189-0.042,0.254-0.129c0.069-0.095,0.109-0.104,0.218-0.177c-0.08-0.12-0.223-0.112,0.025-0.142
		c0.146-0.018,0.161-0.054,0.286-0.112c0.003-0.121,0.043-0.135,0-0.227c0.1-0.002,0.188-0.029,0.294-0.045
		c0.19-0.025,0.185,0.032,0.271-0.098c0.077,0.053,0.061,0.059,0.197,0.062l0.437-0.075c0.049-0.015,0.024-0.014,0.08-0.033
		c0.19-0.068,0.143-0.002,0.332-0.121l0.037-0.02c0.485-0.215,0.69-0.063,1.262-0.15c0.138-0.021,0.045-0.034,0.199-0.056
		c0.078-0.011,0.168,0.011,0.247-0.007c0.172-0.036,0.427-0.131,0.655-0.136V15.08c0.123-0.003,0.154-0.027,0.311-0.027V14.91
		l-0.142-0.057l1.439-0.114c0.096-0.002,0.221,0.011,0.313,0.002c0.175-0.015,0.028-0.062,0.564-0.058
		c0.186,0,0.401-0.014,0.581-0.041l1.819-0.072c0.241,0,0.369-0.03,0.593-0.029l0.934,0.001c0.201,0.001,0.272-0.106,0.497-0.044
		c0.007,0.002,0.014,0.006,0.021,0.008c0.093,0.028,0.148-0.019,0.241-0.023c0.127-0.008,2.117-0.024,2.346,0.002
		c0.161,0.019,0.02,0.006,0.129,0.04c0.194,0.059,1.934-0.003,2.422,0.065c0.364,0.049,0.824-0.009,1.198,0.043
		c0.343,0.047,0.709,0.031,1.054,0.047c0.03,0,0.049,0,0.078,0.006c0.086,0.02,0.036,0.015,0.063,0.023
		c0.007,0.002,0.013,0.006,0.021,0.01L59,14.879c0.146,0.014,0.09,0.049,0.254,0.057c0.485,0.023,0.22,0.086,0.851,0.084
		c0.271,0,0.571-0.014,0.826,0.078l0.157,0.037c0.054,0.002,0.117-0.002,0.172-0.002c0,0.192-0.026,0.198-0.309,0.18
		c-0.084-0.006-0.115-0.035-0.197-0.033c-0.066,0.002-0.135,0.023-0.256,0.023c-0.481,0-0.424,0.084-1.021,0.059
		c-0.233-0.01-0.058-0.026-0.203-0.055c-0.128-0.023-0.144,0.027-0.229,0.045c-0.125,0.024-0.219,0.011-0.336,0.058
		c-0.063,0.026-0.049,0.017-0.105,0.033c-0.063,0.017-0.036,0.007-0.087,0.024l-0.104,0.041c-0.32,0.142-0.135,0.141-0.517,0.049
		c-0.079-0.019-0.028,0.012-0.11-0.028c0.03-0.089,0.01-0.084,0.196-0.084c-0.034-0.126-0.06-0.075-0.172-0.111
		c-0.011-0.002-0.032-0.012-0.042-0.015c-0.059-0.016-0.031-0.01-0.1-0.016l-0.367-0.06v0.085c0.191,0.021-0.032,0.057,0.228,0.057
		c-0.036,0.14-0.053,0.019-0.057,0.197c0.082,0.02,0.04-0.003,0.085,0.057c-0.26,0-0.469-0.026-0.648,0.029
		c-0.076,0.023-0.047,0.012-0.142,0.029c-0.115,0.021-0.052,0.013-0.108,0.031c-0.074,0.022-0.035,0.022-0.146,0.022
		c-0.024,0.05-0.033,0.091-0.058,0.142c-0.146-0.002-0.539-0.109-0.648-0.057c0.014,0.135,0.025,0.073,0.049,0.092
		c0.068,0.06,0.1,0.051,0.205,0.051v0.027c-0.132,0-0.182,0.012-0.287-0.022l-0.225-0.06c-0.133-0.059-0.158-0.191-0.221-0.23
		l-0.173-0.083c0.204,0,0.616,0.057,0.903,0.057c0.21,0,0.486,0.022,0.688-0.018c0.127-0.026,0.104-0.005,0.159-0.095
		c-0.03-0.119-0.243-0.189-0.396-0.199c-0.09-0.004-0.096,0.01-0.182-0.016l-1.274-0.137c-0.171-0.048-0.153-0.038-0.353-0.042
		c-0.14-0.003-0.093-0.009-0.166-0.033c-0.012-0.002-0.019-0.005-0.021-0.008c-0.008-0.002-0.016-0.004-0.021-0.006l-0.111-0.026
		c-0.109-0.063,0.021,0.021-0.045-0.126c-0.154,0-0.354,0.024-0.496-0.018c-0.107-0.034-0.016-0.076-0.17,0.002
		c-0.135,0.067-0.045,0.056-0.359,0.026c-0.29-0.024-0.438,0.043-0.699,0.07c-0.133,0.014-0.188-0.017-0.298,0.012
		c-0.315,0.078-0.42-0.029-0.729,0.121c-0.199,0.098-0.187,0.104-0.393,0.112c-0.102,0.004-0.066,0.035-0.162,0.099v-0.086h-0.311
		c-0.021,0.039-0.015,0.031-0.028,0.086c-0.049-0.024-0.056-0.037-0.142-0.033c-0.107,0.006-0.089,0.004-0.112,0.09h0.254v-0.057
		h0.312l-0.265,0.131c-0.204,0.094-0.37,0.069-0.551,0.268c-0.004,0.005-0.009,0.011-0.013,0.016
		c-0.093,0.103-0.206,0.127-0.21,0.129c-0.101,0.032-0.231,0.014-0.337,0.059c-0.006,0.003-0.013,0.006-0.019,0.009l-0.333,0.09
		c-0.007,0.003-0.014,0.005-0.021,0.009c-0.007,0.002-0.014,0.006-0.02,0.008l-0.204,0.052c-0.152,0.028-0.317,0.118-0.457,0.192
		c0,0.26-0.051,0.291,0.142,0.451c0.212,0.176,0.558,0.133,0.787,0.025l0.296-0.104c0.169-0.03,0.241,0.194,0.372,0.289
		c0.116,0.082,0.16,0.152,0.238,0.27l0.332-0.035c0.054-0.018,0.055-0.014,0.112-0.029c0.008-0.002,0.016-0.003,0.022-0.005
		c0.453-0.132,0.241-0.114,0.396-0.339c0.102-0.143,0.368-0.029,0.482-0.167c0.057-0.065,0.022,0.043,0.037-0.103l-0.201-0.082
		c-0.108-0.037-0.105-0.03-0.192-0.088c0.065-0.281,0.534-0.328,0.587-0.347c0.085-0.028,0.173-0.049,0.241-0.097
		c0.084-0.059,0.104-0.146,0.194-0.2c0.013-0.007,0.055-0.028,0.058-0.028c0.101-0.047,0.305-0.047,0.417-0.008
		c0.008,0.002,0.016,0.006,0.021,0.008c0.008,0.002,0.015,0.006,0.021,0.008l0.239,0.041c-0.057,0.08-0.141,0.078-0.25,0.117
		l-0.146,0.053c-0.007,0.004-0.014,0.007-0.021,0.01c-0.107,0.045-0.389,0.158-0.518,0.161c0.012,0.155-0.003,0.024,0.031,0.108
		c0.02,0.043,0.033,0.078,0.046,0.123c0.039,0.149,0.002,0.162,0.14,0.201c0.533,0.153,0.959-0.052,1.039-0.041l0.053,0.018
		c0.281,0.072,0.234-0.125,0.479,0.031c0.005,0.002,0.013,0.008,0.019,0.012c-0.113,0.009-0.146,0.055-0.266,0.074l-0.641-0.02
		c-0.161,0-0.215,0.025-0.338,0.029v0.142c0.131,0.03,0.146,0.072,0.188,0.181l0.037,0.074c-0.242,0-0.164-0.045-0.289-0.076
		c-0.066-0.017-0.119-0.003-0.188-0.014c-0.111-0.018-0.031-0.021-0.146-0.052c-0.081,0.155-0.021,0.071-0.171,0.142
		c0,0.203,0.021,0.086,0.06,0.227l-0.242,0.041c-0.301,0.086-0.658-0.004-0.957,0.086L50.71,17.48
		c-0.215-0.021-0.042-0.049-0.2-0.084c-0.009-0.002-0.097-0.008-0.109-0.008c-0.099,0-0.104,0.002-0.176,0.027
		c-0.088,0.032-0.194,0.074-0.3,0.031l-0.135-0.064c-0.065-0.047-0.06-0.037-0.068-0.131c0.079-0.037,0.055-0.027,0.169-0.027
		c0-0.446-0.064-0.256-0.313-0.229c-0.133,0.016-0.212,0.014-0.308,0.115l0.045,0.096c0.053,0.096,0.113,0.141,0.124,0.271
		c-0.15,0.08-0.445,0.051-0.583,0.096l-0.193,0.061c-0.189,0.059-0.124,0.062-0.284,0.141l-0.114,0.056
		c-0.131,0.063-0.338,0.043-0.459,0.134l-0.383,0.213c-0.063,0.021-0.114,0.014-0.169-0.006c-0.099-0.029,0.018-0.037-0.158-0.041
		c-0.017,0.073-0.025,0.082-0.057,0.145H46.46c0.024,0.283,0.283,0.076,0.491,0.24c0.038,0.028,0.021,0.02,0.049,0.035l0.032,0.024
		c0.005,0.003,0.012,0.009,0.017,0.012c0.068,0.048,0.008,0.015,0.089,0.054l0.113,0.059c-0.017,0.15-0.006,0.02-0.044,0.125
		l-0.097,0.271c-0.198,0-0.196-0.061-0.395-0.06c-0.231,0.002-0.478,0.021-0.708,0.002c-0.224-0.021-0.12-0.104-0.357-0.021
		c-0.088,0.029-0.131,0.021-0.235,0.021c0,0.179,0.055,0.255,0.061,0.28c0.047,0.176-0.061,0.24-0.146,0.367
		c0.07,0.104,0.166,0.229,0.198,0.367l0.282-0.058c0.329,0.008,0.008,0.22,0.83,0.097c0.238-0.035,0.228,0.021,0.428-0.08
		l0.352-0.156v-0.254c0.116-0.043-0.007,0.002,0.074-0.039c0.142-0.07,0.232-0.139,0.375-0.16l0.286-0.082
		c0.003-0.127,0.019-0.198,0.132-0.235c0.278-0.089,0.467,0.108,1.018-0.11l0.185-0.043c0.29-0.037,0.234,0.024,0.37,0.153
		c0.056,0.054,0.003,0.007,0.069,0.045l0.126,0.07c0.008,0.004,0.031,0.017,0.039,0.021l0.057,0.026
		c0.005,0.002,0.013,0.007,0.018,0.011l0.244,0.096c0.238,0.089,0.224,0.109,0.53,0.203l0.042,0.017
		c0.052,0.021-0.006,0,0.062,0.022c0.063,0.021,0.055,0.015,0.104,0.037c-0.012,0.144-0.024,0.057-0.063,0.146
		c-0.049,0.114,0.033,0.114,0.129,0.067l0.188-0.129c-0.021-0.078-0.075-0.104-0.112-0.17c0.108-0.009,0.11-0.053,0.209-0.012
		c0.125,0.053-0.061,0.066,0.215,0.066v-0.086c-0.117-0.01-0.155-0.059-0.286-0.104c-0.068-0.021-0.442-0.177-0.698-0.177
		c-0.063-0.271-0.224-0.261-0.452-0.313v-0.111c0.073-0.021,0.032,0.011,0.057-0.06h0.198c0.022,0.063,0.04,0.097,0.112,0.104
		c0.134,0.02,0.078-0.051,0.354,0.106l0.349,0.136c0.329,0.114,0.237,0.109,0.571,0.188v0.254c0.307,0.204,0.393,0.202,0.791,0.169
		v-0.194c0.049,0.021,0.232-0.037,0.313-0.06c0.085-0.021,0.053,0.021,0.084-0.06h0.085c0.038,0.098-0.028,0.033,0.104,0.068
		c0.043,0.012,0.102,0.02,0.18,0.02c-0.075,0.154-0.018,0.156,0.085,0.226c-0.046,0.067-0.034,0.03-0.058,0.113
		c0.127,0.065,0.111,0.1,0.188,0.146c0.438,0.272,0.725,0.088,0.771,0.08c0.211-0.031,0.354,0.092,0.591,0.086
		c0.151-0.005,0.151-0.035,0.274-0.064c0.069-0.021,0.203-0.021,0.315-0.021c-0.045,0.188-0.006,0.274-0.147,0.473
		c-0.086,0.117-0.229,0.248-0.354,0.32c-0.269,0.153-0.267-0.171-0.806-0.016c-0.075,0.021-0.014,0.016-0.131,0.042
		c-0.229,0.051-0.36-0.019-0.566-0.054c-0.053-0.012-0.104-0.008-0.157-0.017c-0.078-0.01-0.185-0.034-0.286-0.053
		c-0.134-0.021-0.279-0.038-0.396-0.106c-0.006-0.004-0.014-0.009-0.021-0.013c-0.126-0.078-0.254-0.084-0.385-0.054
		c-0.222,0.051-0.31,0.12-0.358,0.347c-0.274,0.022-0.307,0.002-0.586-0.034c-0.236-0.033-0.4-0.183-0.627-0.222
		c-0.144-0.024-0.037-0.012-0.131-0.039c-0.183-0.051-0.405-0.03-0.577-0.103c-0.152-0.063-0.088-0.057-0.311-0.057l0.169-0.113
		c0-0.041-0.01-0.16-0.009-0.185c0.006-0.11,0.028-0.022,0.065-0.128l-0.286-0.111c-0.099-0.016-0.14,0.017-0.204,0.047
		c-0.262,0.129-0.426-0.03-0.675,0.026c-0.25,0.062-0.633,0.015-0.897,0.011c-0.312-0.002-0.735,0.191-1.016,0.198l-0.229,0.041
		c-0.095,0.002-0.076-0.054-0.246-0.021c-0.208,0.043-0.213-0.172-0.527,0.134l-0.251,0.146c-0.275,0.08-0.463,0.182-0.384,0.521
		l-0.768,0.334c-0.386,0.188-0.349,0.392-0.587,0.568l-0.141,0.117c-0.004,0.004-0.01,0.01-0.015,0.017l-0.148,0.134
		c-0.004,0.005-0.01,0.013-0.014,0.018c-0.004,0.004-0.01,0.01-0.014,0.014l-0.07,0.08c0.05,0.097,0.128,0.115,0.177,0.22
		c0.016,0.035,0.072,0.278,0.071,0.313c-0.014,0.236-0.22,0.332-0.22,0.568c0.136,0.049-0.022,0.007,0.113,0.059
		c-0.044,0.084-0.076,0.094-0.085,0.195c0.2,0.004,0.036-0.011,0.171,0.083c0.193,0.136,0.121-0.022,0.34,0.226l0.105,0.095
		c0.005,0.006,0.011,0.011,0.016,0.014c0.172,0.113,0.204,0.087,0.327,0.269c0.114,0.166,0.354,0.252,0.537,0.342l0.039,0.018
		c0.256,0.111,0.538,0.217,0.825,0.143c0.314-0.084,0.34-0.107,0.702-0.06c0.248,0.036,0.497,0.028,0.729-0.065l0.211-0.069
		c0.25-0.063,0.625-0.138,0.902-0.009l0.345,0.25c0.099,0.041,0.146-0.01,0.211-0.023c0.114-0.029,0.288-0.027,0.4,0.006
		c0.282,0.08,0.309,0.162,0.195,0.363c-0.062,0.107-0.021,0.092-0.011,0.215c-0.259,0.063-0.087,0.278,0.013,0.41
		c0.004,0.005,0.009,0.014,0.012,0.018c0.067,0.09,0.067,0.068,0.175,0.139l0.364,0.344c0.344,0.441,0.111,0.441,0.279,0.65
		c0.098,0.121,0.089,0.102,0.089,0.309c-0.253,0.17-0.242,0.123-0.335,0.371l-0.071,0.186c-0.087,0.281-0.025,0.268,0.114,0.442
		c0.031,0.041,0.043,0.063,0.076,0.095l0.305,0.348c0.207,0.24-0.025,0.18,0.172,0.563c0.226,0.439,0.336,0.334,0.502,0.627
		c0.062,0.107,0.042,0.063,0.135,0.146c0.028,0.023,0.043,0.041,0.07,0.07c0.021,0.021,0.019,0.021,0.038,0.045l0.039,0.047
		c-0.027,0.104-0.028,0.037-0.057,0.142l0.352,0.302c0.281,0.159,0.184-0.002,0.447-0.063c0.056-0.015,0.063-0.011,0.111-0.022
		c0.221-0.064,0.563-0.037,0.813-0.037c0.205-0.002,0.558-0.139,0.746-0.242l0.207-0.135c0.074-0.045,0.125-0.088,0.197-0.139
		l0.211-0.188c0.104-0.072,0.223-0.195,0.284-0.31c0.071-0.127,0.056-0.144-0.013-0.235c0.087-0.021,0.084-0.031,0.162-0.063
		c0.168-0.064,0.338-0.117,0.484-0.223c0-0.438-0.177-0.364-0.138-0.557c0.015-0.064,0.073-0.119,0.119-0.141
		c0.037-0.016,0.028-0.008,0.065-0.02c0.008-0.004,0.016-0.005,0.021-0.008l0.428-0.191c0.188-0.063,0.713-0.217,0.717-0.441
		c-0.021-0.1-0.056-0.121-0.084-0.201c-0.078-0.217,0.201-0.385-0.228-0.59c0-0.109,0.021-0.258-0.021-0.352
		c-0.002-0.008-0.006-0.016-0.008-0.021c-0.063-0.123-0.174-0.229,0.088-0.477l0.031-0.023c0.004-0.004,0.012-0.01,0.016-0.014
		l0.576-0.438c0.004-0.005,0.012-0.011,0.018-0.015l0.033-0.021c0.006-0.003,0.013-0.009,0.019-0.012l0.957-0.514l0.396-0.367
		c0.117-0.133,0.729-0.739,0.555-0.919c-0.063-0.063-0.156-0.007-0.232,0.021c-0.029,0.01-0.064,0.018-0.098,0.021
		c-0.104,0.02-0.241,0.029-0.371,0.054l-0.296,0.043c-0.187,0.062-0.729,0.123-0.797-0.146l-0.009-0.031
		c-0.027-0.085-0.224-0.207-0.303-0.256c-0.285-0.17-0.479-0.195-0.523-0.234l-0.028-0.027c-0.004-0.004-0.009-0.012-0.012-0.018
		l-0.058-0.102c-0.047-0.105-0.063-0.213-0.151-0.269c-0.193-0.112-0.282-0.05-0.302-0.345c-0.008-0.121,0.039-0.027-0.027-0.146
		c-0.087-0.146-0.229-0.158-0.33-0.293c-0.102-0.134-0.166-0.253-0.294-0.355c-0.093-0.073-0.128-0.172-0.185-0.271h0.17
		c0.006-0.146-0.022-0.082,0.06-0.142c0.004,0.17,0.146,0.149,0.438,0.494c0.174,0.2,0.188,0.163,0.377,0.303
		c0.004,0.004,0.013,0.009,0.017,0.013c0.005,0.004,0.013,0.01,0.019,0.014l0.112,0.082c-0.021,0.084-0.026,0.086-0.026,0.199
		l0.373,0.246c0.16,0.106-0.102-0.09,0.033,0.022l0.104,0.121c0.314,0.325,0.22,0.038,0.433,0.588
		c0.052,0.125,0.043,0.213,0.146,0.278c0.084,0.06,0.037,0.06,0.158,0.065c0.043-0.104,0.104-0.05,0.303-0.093
		c0.039-0.01,0.104-0.026,0.162-0.036l0.408-0.071c0.01,0,0.016-0.002,0.022-0.004l0.351-0.131c0.119-0.027,0.2-0.038,0.323-0.07
		c0.083-0.021-0.015,0.004,0.063-0.021c0.009-0.002,0.017-0.006,0.021-0.009c0.157-0.053,0.199-0.096,0.343-0.168
		c0.159-0.086,0.231-0.049,0.459-0.049l0.566-0.338c0.16-0.07,0.029-0.007,0.1-0.127c0.045-0.078,0.055-0.062,0.135-0.094
		c0.143-0.061,0.176-0.145,0.305-0.177v-0.144c-0.125-0.033-0.084-0.07-0.182-0.133c-0.131-0.081-0.313-0.042-0.439-0.123
		l-0.053-0.031c-0.076-0.063-0.092-0.145-0.092-0.25c-0.142,0.004-0.063-0.004-0.156,0.041l-0.51,0.25
		c-0.008-0.002-0.054-0.02-0.055-0.02c-0.005-0.001-0.014-0.003-0.021-0.004l-0.033,0.003c-0.072,0.017-0.034,0.051-0.186,0.04
		c-0.146-0.012-0.041-0.021-0.172-0.061c0.043-0.063,0.021-0.039,0.08-0.086c0.104-0.086,0.036,0.045,0.088-0.084
		c-0.072-0.033-0.113-0.017-0.143-0.086h-0.143c-0.024,0.065-0.009,0.039-0.063,0.076c-0.063,0.042,0.007,0.024-0.104,0.037
		l0.03-0.168l-0.332-0.184c-0.059-0.043-0.161-0.229-0.209-0.299c0.188,0,0.296-0.028,0.511-0.028
		c0.039,0.149,0.354,0.345,0.504,0.397c0.078,0.024,0.023,0.004,0.104,0.037c0.489,0.217,0.438,0.018,0.89,0.018l0.146,0.227
		c0.557,0,0.466,0.041,0.79,0.059c0.217,0.012,1.096-0.072,1.199-0.047c0.082,0.021,0.101,0.063,0.162,0.094l0.512,0.311
		c0.063,0.057,0.003,0.018-0.012,0.125l0.375,0.162c0.209,0.053,0.311-0.042,0.391-0.137c0.068,0.854,0.22,0.795,0.449,1.158
		c0.062,0.088,0.104,0.125,0.164,0.23l0.146,0.279c0.074,0.218,0.2,0.363,0.456,0.363c0.055-0.146,0.129-0.168,0.281-0.168
		c0.074-0.328,0.226-0.031,0.229-0.365c0.004-0.217-0.009-0.377,0.063-0.529c0.051-0.109,0.188-0.111,0.291-0.162l0.058-0.025
		c0.01-0.004,0.018-0.008,0.021-0.011c0.008-0.003,0.015-0.006,0.021-0.009l0.746-0.412c0.101-0.042,0.271-0.048,0.328-0.124
		c0.021-0.022,0.03-0.075,0.06-0.11c0.047-0.063,0.086-0.084,0.192-0.09c0.202-0.009,0.37,0.002,0.543-0.05
		c0.132-0.04,0.185,0.007,0.224-0.089h0.086c0.045,0.128,0,0,0.056,0.084l0.171,0.198c0.005,0.004,0.012,0.009,0.018,0.012
		c0.658,0.479,0.203,0.646,0.438,0.692c0.072,0.019,0.236-0.016,0.285-0.021c0.143-0.029,0.156-0.021,0.191-0.117h0.11
		c0.062,0.26,0.272,0.48,0.312,0.738c0.024,0.182-0.057,0.262-0.095,0.415c-0.067,0.276,0.144,0.104,0.271,0.228
		c0.039,0.039,0.043,0.088,0.104,0.151c0.063,0.067,0.086,0.062,0.108,0.144c0.025,0.084,0.006,0.115,0.052,0.207
		c0.104,0.209,0.635,0.455,0.86,0.405c-0.021-0.239-0.146,0.007-0.17-0.396c-0.01-0.182-0.158-0.271-0.289-0.359l-0.088-0.053
		c-0.035-0.014-0.033-0.008-0.066-0.018l-0.227-0.09c-0.141-0.104-0.068-0.24-0.289-0.304c0.002-0.13,0-0.063,0.029-0.144
		c0,0,0.021-0.037,0.026-0.057c0.051-0.104,0.129-0.246,0.14-0.369c0.264,0,0.184,0.092,0.377,0.158
		c0.012,0.004,0.141,0.053,0.146,0.055c0.109,0.063,0.178,0.224,0.293,0.229c0.104,0.007-0.045-0.009,0.064-0.004l0.168,0.099
		c0.034,0.068,0.022,0.041,0.022,0.146c0.34,0,0.354-0.156,0.485-0.219c0.138-0.061,0.307-0.076,0.438-0.156
		c0.021-0.014,0.035-0.027,0.063-0.049c-0.01-0.105-0.021-0.074-0.026-0.196c-0.003-0.063,0.008-0.164-0.001-0.228
		c-0.021-0.147-0.42-0.328-0.574-0.5c-0.025-0.029-0.021-0.026-0.055-0.062c-0.069-0.069-0.08-0.048-0.135-0.12
		c0.041-0.061,0.086-0.113,0.146-0.16l0.434-0.223c0.09-0.023,0.162,0.016,0.295,0.016c0,0.122-0.023,0.127,0.059,0.17
		c-0.166,0.118-0.229,0.004-0.281,0.229c0.166,0.228,0.342,0.028,0.51-0.06c-0.021-0.099,0.002-0.014-0.03-0.082
		c-0.05-0.092-0.007,0.043-0.054-0.088l0.084-0.119c0.006-0.006,0.013-0.013,0.02-0.017c0.006-0.006,0.016-0.013,0.021-0.019
		c0.006-0.004,0.018-0.01,0.021-0.02c0.091,0.035,0.12,0.021,0.196,0.004l0.287-0.053c0.01-0.002,0.017-0.006,0.021-0.008
		l0.113-0.027c0.188-0.021,0.217-0.072,0.396-0.085c0.153-0.008,0.188-0.021,0.316-0.077l0.38-0.211
		c0.121-0.063,0.056,0.032,0.165-0.09c0.086-0.092,0.098-0.172,0.188-0.232l0.444-0.373c0.063-0.057,0.095-0.055,0.142-0.115
		c-0.146-0.069-0.116-0.028-0.313-0.028c0.084-0.114,0.137,0.011,0.145-0.255c-0.188-0.043-0.229-0.248-0.396-0.344
		c-0.063-0.039-0.099-0.043-0.146-0.108c0.205-0.108,0.406-0.233,0.648-0.254c-0.015-0.164-0.152-0.131-0.309-0.147
		c-0.127-0.016-0.266-0.016-0.313,0.119c-0.071-0.049-0.146-0.101-0.17-0.197c-0.128,0-0.188,0.019-0.28-0.025
		c0.039-0.105,0.002-0.064,0.221-0.089c0.162-0.019,0.175-0.025,0.203-0.108h0.281c0.049-0.18,0.146-0.148,0.313-0.109
		c-0.029,0.024,0.015-0.002-0.051,0.035c-0.211,0.125-0.115,0.041-0.127,0.211c0,0.006-0.065,0.014,0.015,0.041l0.504-0.146
		c0.024-0.01-0.034-0.01,0.088-0.027c0.125-0.02,0.187,0.03,0.276,0.057c-0.039,0.115-0.057,0.078-0.057,0.197
		c0.121,0.064,0.104,0.06,0.281,0.06c0.023,0.098,0.02,0.026,0.028,0.073l0.056,0.235c-0.097,0.024-0.104,0.05-0.111,0.169
		c0.139,0.051-0.021,0.016,0.101,0.049c0.034,0.013,0.077,0.017,0.118,0.004c0.011,0,0.019-0.004,0.023-0.006l0.223-0.063
		c0.011-0.002,0.033-0.012,0.041-0.016c0.105-0.037,0.313-0.111,0.313-0.25c0.003-0.146-0.227-0.258-0.34-0.34
		c-0.07-0.053-0.087-0.052-0.109-0.145c0.053-0.023,0.035-0.016,0.082-0.029c0.152-0.057,0.242-0.063,0.355-0.18
		c0.006-0.005,0.012-0.014,0.016-0.018c0.016-0.015,0.059-0.053,0.073-0.064c0.104-0.085,0.202-0.114,0.319-0.158
		c0.063-0.021-0.02,0.002,0.063-0.021c0.095-0.033,0.117-0.031,0.216-0.006c0.1,0.021,0.118,0.063,0.229,0.057
		c0.135-0.012,0.326-0.118,0.464-0.219c0.112-0.084,0.171-0.06,0.298-0.004c0.006,0.002,0.016,0.006,0.021,0.008l0.192,0.061
		c0.392,0.146,0.47,0.018,0.47,0.662L78.905,20c-0.208,0.066-0.19,0-0.21-0.044c-0.113,0.011-0.219,0.156-0.255,0.255
		c-0.228,0-0.437-0.02-0.64,0.039l-0.463,0.131c0,0.159,0,0.053-0.084,0.088c-0.127,0.051-0.269-0.05-0.283,0.166
		c0.156,0.017,0.125,0.103,0.197,0.254c0.186,0,0.188-0.008,0.271-0.123c0.1-0.131,0.096-0.148,0.064-0.325
		c0.099,0.034,0.056,0.024,0.168,0.024l-0.082,0.146c0.097,0.021,0.141,0.026,0.226-0.032c0.044-0.029,0.017-0.027,0.063-0.035
		L78,20.559c0.025-0.006,0.078-0.045,0.15-0.063V20.41c-0.148,0-0.042,0-0.085-0.027h0.17c0.002,0.004,0.001,0.008,0.002,0.018
		c0.007,0.127,0.122,0.127,0.252,0.127c0.031-0.063,0.039-0.067,0.058-0.145c0.17,0,0.615,0.021,0.733-0.143
		c0.073,0.02,0.031-0.012,0.058,0.057h0.145c0.051-0.137,0.007,0.024,0.063-0.109c0.054-0.137,0.033-0.313,0.164-0.398
		c0.229-0.16-0.006-0.342-0.058-0.479c0.101,0.011,0.103,0.021,0.177,0.054l0.104,0.032c0.008,0.002,0.017,0.005,0.021,0.007
		l2.543,0.933c0.006,0.004,0.014,0.008,0.021,0.01l2.146,0.873c0.006,0.002,0.018,0.006,0.021,0.008l1.01,0.432
		c0.031,0.016,0.05,0.025,0.097,0.049l0.314,0.137c0.006,0.002,0.016,0.006,0.021,0.01l0.058,0.027
		c0.008,0.006,0.028,0.016,0.039,0.02l1.491,0.683c0.009,0.002,0.016,0.007,0.021,0.009c0.009,0.004,0.017,0.01,0.021,0.012
		l0.076,0.035c0.008,0.004,0.016,0.006,0.021,0.011c0.005,0.002,0.033,0.017,0.039,0.02l1.688,0.822
		c0.164,0.095,0.347,0.147,0.512,0.25l0.281,0.146c0.244,0.097,0.459,0.263,0.695,0.375c0.164,0.078-0.113-0.063,0.038,0.021
		c0.007,0.002,0.015,0.006,0.021,0.01l0.184,0.104c0.009,0.005,0.029,0.017,0.039,0.019l0.146,0.078
		c0.006,0.004,0.012,0.009,0.02,0.011l0.354,0.188c0.008,0.004,0.025,0.018,0.033,0.021l1.122,0.629
		c0.063,0.039,0.108,0.063,0.165,0.09c0.063,0.029,0.021,0.004,0.074,0.039c0.005,0.004,0.012,0.008,0.018,0.012l0.051,0.037
		c0.004,0.002,0.013,0.008,0.018,0.011l1.373,0.806c0.041,0.025,0.007,0.006,0.051,0.032l0.242,0.151
		c0.006,0.004,0.013,0.008,0.018,0.013c0.034,0.022,0.012,0.011,0.051,0.034c0.074,0.057,0.088,0.048,0.164,0.093
		c0.006,0.005,0.013,0.009,0.019,0.013l1.903,1.201c0.05,0.029,0.041,0.034,0.078,0.063c0.049,0.035,0.104,0.063,0.152,0.103
		l0.807,0.554c0.006,0.002,0.015,0.008,0.019,0.014c0.063,0.037,0.021,0.004,0.084,0.059l1.567,1.113
		c0.021,0.018,0.021,0.021,0.05,0.035l0.491,0.383c0.045,0.029,0.058,0.029,0.097,0.049l0.146,0.107
		c0.053,0.059,0.037,0.084,0.157,0.098c-0.017-0.141-0.29-0.313-0.411-0.406l-0.412-0.352c-0.09-0.076-0.193-0.182-0.291-0.246
		l-1.91-1.51c-0.252-0.197-0.547-0.389-0.791-0.596l-0.121-0.1C83.66,18.092,67.646,12.737,50.377,12.737L50.377,12.737z
		 M81.479,28.409c0-0.06-0.005-0.013,0.03-0.01c0.084,0.009-0.004-0.058,0.013,0.01C81.541,28.473,81.479,28.44,81.479,28.409
		L81.479,28.409z M50.33,15.521c-0.068-0.041-0.038-0.006-0.057-0.084h0.085C50.345,15.491,50.351,15.484,50.33,15.521L50.33,15.521
		z M78.373,25.811c0.002-0.104,0.074-0.146,0.112,0H78.373L78.373,25.811z M0.004,30.557c0.025-0.021,0.072-0.045,0.099-0.071
		c0.047-0.05,0.064,0.013,0.014-0.099C0.008,30.467,0.013,30.473,0.004,30.557L0.004,30.557z M75.181,24.564
		c0.004-0.094,0.05-0.084,0.143-0.086v0.086H75.181L75.181,24.564z M81.196,31.403c-0.034,0.101-0.127,0.133-0.141-0.027
		C81.166,31.379,81.123,31.368,81.196,31.403L81.196,31.403z M58.435,15.184c0.035-0.043,0.29-0.028,0.367-0.028
		c-0.004,0.157-0.016,0.17-0.282,0.17C58.464,15.242,58.462,15.286,58.435,15.184L58.435,15.184z M50.358,19.901v-0.084h0.649
		c-0.014,0.155-0.053,0.104-0.084,0.227h-0.229c-0.03-0.077-0.002-0.024-0.075-0.063l-0.08-0.031
		C50.479,19.924,50.422,19.908,50.358,19.901L50.358,19.901z M74.814,21.938c0.079-0.021,0.033-0.01,0.102-0.067
		c0.004-0.004,0.01-0.011,0.02-0.015c0.229-0.191,0.382-0.055,0.213,0.186L75.11,22.09c-0.065,0.092-0.063,0.071-0.149,0.131
		C74.835,22.141,74.814,22.135,74.814,21.938L74.814,21.938z M65.58,24.396c0-0.123,0.021-0.045,0.041-0.155
		c0.01-0.042,0.014-0.127,0.022-0.149c0.042-0.104,0.099-0.08,0.173-0.02c0.025,0.021,0.012,0.014,0.044,0.044
		c0.101,0.094,0.284,0.302,0.313,0.423c-0.041,0.027-0.148,0.113-0.198,0.113C65.792,24.648,65.58,24.59,65.58,24.396L65.58,24.396z
		 M81.225,31.658c0,0.016-0.144,0.227-0.177,0.249c-0.073,0.048-0.213,0.089-0.301,0.062c-0.006-0.002-0.018-0.004-0.021-0.008
		c-0.006-0.002-0.016-0.005-0.021-0.008c-0.113-0.046-0.104-0.052-0.215-0.154c-0.094-0.089-0.134-0.146-0.145-0.279
		c0.087,0,0.158-0.008,0.24,0.015c0.473,0.104,0.108-0.015,0.604-0.015C81.21,31.581,81.225,31.582,81.225,31.658L81.225,31.658z
		 M75.21,24.368c0.17-0.017,0.104-0.079,0.27-0.13c0.091-0.027,0.092-0.014,0.162,0.008c0.081,0.021-0.025,0.055,0.12,0l0.278-0.096
		c0.123-0.047,0.104-0.117,0.299-0.123c-0.012,0.142-0.021,0.048-0.112,0.228c0.28,0.421-0.197,0.197-0.198,0.197
		c0.033,0.067,0.073,0.196-0.056,0.196c-0.209,0-0.035,0.008-0.159-0.039c-0.145-0.053-0.131-0.03-0.145-0.131
		c-0.01-0.08,0.035-0.041-0.01-0.09c-0.058-0.061-0.354,0.062-0.449,0.063V24.368L75.21,24.368z M45.303,17.473l0.165-0.09
		c0.008-0.003,0.032-0.013,0.041-0.016c0.179-0.074,0.514-0.191,0.67,0.02c-0.035,0.129-0.045,0.049-0.084,0.143
		c-0.047,0.111-0.014-0.014,0.028,0.141l-0.427,0.139c-0.164,0.045-0.292,0.06-0.505,0.06c0.012-0.138,0.031-0.101,0.078-0.177
		C45.323,17.6,45.303,17.605,45.303,17.473L45.303,17.473z M74.843,23.124c0-0.151,0.045-0.231,0.057-0.366
		c0.251,0,0.405-0.004,0.439,0.127c0.041,0.156-0.098,0.293-0.215,0.324c0.033,0.119,0.033,0.055,0.063,0.104
		c0.032,0.056,0.033,0.063,0.047,0.121c0.137-0.09,0.146-0.146,0.428,0v0.17c-0.084,0.021-0.047,0.016-0.113,0.061
		c-0.098-0.063-0.063-0.093-0.151-0.13l-0.196-0.062c-0.063-0.017-0.092-0.012-0.158-0.012c0.043,0.028-0.063,0.028,0.082,0.029
		l0.03,0.169c-0.099,0-0.084,0.017-0.145-0.026c-0.007-0.004-0.013-0.01-0.017-0.014c-0.043-0.044-0.033-0.092-0.033-0.092
		l-0.004-0.036c-0.013-0.054-0.031-0.041-0.002-0.171c-0.151,0.072-0.146,0.014-0.211-0.127c-0.019-0.03-0.027-0.049-0.043-0.071
		L74.843,23.124L74.843,23.124z M42.422,15.805L42.422,15.805L42.422,15.805z M43.185,15.748c0.111,0,0.002-0.021,0.121-0.048
		c0.103-0.024,0.314,0.005,0.464-0.017c0.367-0.053,0.406,0.05,0.544,0.063v0.169c-0.162,0.014-0.012-0.005-0.13,0.04l-0.041,0.017
		c-0.008,0.002-0.033,0.012-0.041,0.015c-0.119,0.043-0.068,0.028-0.209,0.045c-0.108,0.013-0.127,0.021-0.258,0.024
		c-0.24,0.009-0.122,0.058-0.197,0.058c-0.085,0-0.137-0.038-0.205-0.05c-0.07-0.012-0.146-0.008-0.219-0.008
		c-0.191,0.002-0.257-0.027-0.424-0.027l0.023-0.081c0.015-0.058,0.025,0.024,0.005-0.033h-0.282c-0.034-0.073-0.021-0.055,0-0.141
		h-0.142v-0.085c0.102,0,0.213-0.004,0.313-0.002c0.199,0.006,0.131,0.059,0.224,0.059h0.454V15.748z M75.774,25.328
		c0.044-0.117,0.104-0.145,0.226-0.084c-0.024,0.04-0.021,0.027-0.053,0.059l-0.27,0.188c-0.186,0.046-0.014-0.046-0.297-0.05
		l-0.539,0.002c-0.094,0.441,0.482,0.084,0.594,0.084c0.16,0,0.095,0.054,0.085,0.171c-0.095,0-0.158-0.013-0.235,0.019l-0.16,0.15
		c0.182,0,0.199,0.021,0.199,0.197c0.071,0,0.209-0.01,0.152,0.146c-0.03,0.089-0.083,0.125-0.184,0.138
		c-0.037-0.157-0.021-0.052-0.201-0.194c-0.104-0.082-0.137-0.084-0.137-0.259c-0.235,0.271-0.02,0.041-0.113,0.453h-0.197v-0.313
		c-0.114,0-0.091,0.009-0.169-0.027l0.046-0.123c0.09-0.201-0.003-0.094,0.1-0.24c0.151-0.224-0.031-0.248,0.146-0.307
		C74.857,25.313,75.617,25.328,75.774,25.328L75.774,25.328z M46.093,16.936c0.03,0,0.116-0.049,0.155-0.071
		c0.071-0.042,0.055-0.07,0.128-0.07c0.399,0,0.269,0.035,0.305,0.085c0.093,0.127,0.147-0.021,0.344,0.084
		c-0.088,0.133-0.115,0.07-0.197,0.229c0.328,0,0.203,0.055,0.278,0.145c0.101,0.122,0.131-0.015,0.247,0.12l0.023,0.034
		c0.003,0.005,0.007,0.012,0.011,0.017c0.003,0.006,0.008,0.012,0.011,0.018c0.108,0.132,0.143,0.021,0.342,0.107
		c0.069,0.028,0.103,0.01,0.103,0.096c0,0.113,0.003,0.021-0.047,0.068l-0.047,0.032c-0.058,0.054-0.022,0.015-0.037,0.069
		c-0.041,0.162,0.05-0.074-0.011,0.057c-0.246,0-0.772-0.038-0.981,0.036l-0.087,0.021c-0.104,0.028-0.165,0.056-0.315,0.056
		c0.022-0.087,0-0.032,0.052-0.091l0.046-0.039c0.005-0.002,0.013-0.006,0.018-0.01c0.109-0.063,0.064,0.014,0.138-0.086
		c-0.119,0-0.114,0.012-0.198-0.029v-0.084c0.131-0.012,0.049,0.031,0.113-0.057c-0.171-0.004-0.083,0.021-0.113-0.057
		c0.093-0.044,0.102-0.025,0.228-0.025c0.189,0,0.241-0.052,0.089-0.177c-0.106-0.088-0.208-0.051-0.374-0.051
		c0.04-0.149,0.051-0.063,0.028-0.114c-0.11,0.01-0.074,0.026-0.198,0.028c-0.066-0.283-0.141,0.084-0.141-0.339L46.093,16.936
		L46.093,16.936z M57.475,28.098c0-0.069,0.087-0.225,0.278-0.258c0.424-0.076,0.138-0.021,0.391-0.117
		c0.279-0.107,0.077,0.031,0.305-0.203c0.063-0.066,0.078-0.047,0.147-0.104l0.12-0.135c0.242,0.162,0.07,0.359,0.228,0.425
		c-0.004,0.142-0.003,0.14-0.142,0.144c0,0.27-0.029,0.412-0.215,0.688c-0.002,0.005-0.008,0.014-0.012,0.02
		c-0.031,0.047-0.013,0.01-0.037,0.051l-0.021,0.031c-0.034,0.053-0.078,0.117-0.109,0.176c-0.084,0.144-0.117,0.313-0.183,0.381
		c-0.06,0.063-0.534,0.199-0.754-0.014c-0.005-0.004-0.011-0.012-0.015-0.017c-0.004-0.004-0.015-0.012-0.019-0.019
		c-0.071-0.09-0.067-0.155-0.104-0.266c-0.047-0.158-0.041-0.145,0.11-0.302C57.718,28.301,57.475,28.354,57.475,28.098
		L57.475,28.098z M71.255,26.4c-0.063-0.039-0.063-0.059-0.127-0.1c-0.021-0.013-0.063-0.031-0.073-0.037
		c-0.039-0.021-0.015-0.013-0.056-0.031c-0.099-0.051-0.184-0.088-0.271-0.149c-0.221-0.151-0.204-0.075-0.346-0.306
		c-0.139-0.225-0.2-0.172-0.325-0.297c-0.207-0.205,0.021-0.18-0.423-0.424c-0.141-0.078-0.455-0.221-0.504-0.322
		c-0.084-0.176,0.08-0.065,0.203-0.059c0.129,0.012,0.219-0.025,0.318,0.02l0.057,0.033c0.246,0.16,0.146,0.136,0.396,0.254
		c0.211,0.103,0.063,0.115,0.274,0.146c0.219,0.035,0.17,0.063,0.39,0.146c0.006,0.004,0.013,0.007,0.021,0.009l0.326,0.127
		c-0.02,0.073-0.049,0.104-0.084,0.17c0.104,0.057,0.248,0.1,0.281,0.227h0.086c0.034-0.127,0.086-0.084,0.254-0.084
		c0.028,0.104,0.061,0.114,0.17,0.145v0.085c-0.152,0.034-0.06,0.004-0.227,0v0.366c0.221,0,0.078,0.012,0.226,0.058
		c0.179,0.06,0.228-0.006,0.392,0.093c0.113,0.064,0.158,0.08,0.344,0.021c0.297-0.104,0.258,0.03,0.258,0.03h0.283
		c0.027,0.136,0.014,0.103,0.154,0.125l0.406,0.019v0.142c-0.302,0-0.176-0.014-0.38-0.045c-0.153-0.023-0.1,0.026-0.262,0.012
		l-0.421-0.031c-0.387-0.107-0.344,0.007-0.557-0.063c-0.076-0.023,0.053-0.011-0.107-0.033c-0.434-0.065-0.16-0.06-0.365-0.086
		c-0.035-0.006-0.102-0.002-0.141-0.002c0.019-0.162,0.041-0.012,0.084-0.195C71.333,26.348,71.386,26.372,71.255,26.4L71.255,26.4z
		 M72.725,25.244c0.015-0.066,0.013-0.072,0.054-0.116c0.002-0.002,0.037-0.028,0.049-0.036c0.006-0.002,0.014-0.007,0.021-0.01
		c0.006-0.002,0.014-0.006,0.021-0.008c0.145-0.063,0.32-0.096,0.418-0.146c0.221-0.131-0.052-0.045,0.375-0.188
		c0.27-0.095,0.071-0.254,0.592-0.254c0.033,0.12,0.063,0.104,0.188,0.147c0.008,0.002,0.014,0.008,0.02,0.01
		c0.146,0.06,0.146,0.054,0.162,0.121c-0.205,0-0.291,0.099-0.396,0.256c0.041,0.059,0.011,0.007,0.041,0.043
		c0.032,0.048,0.006,0.007,0.032,0.056c0.039,0.067-0.016,0.011,0.049,0.094c0.093,0.119,0.094,0.007,0.133,0.148
		c-0.087,0.043-0.016,0.024-0.255,0.024l-0.028,0.229c-0.046,0.021-0.082,0.021-0.123,0.047c-0.111,0.063-0.131,0.249-0.131,0.379
		c-0.072,0.009-0.035,0.021-0.123,0.045c-0.039,0.013-0.089,0.021-0.132,0.019c-0.262-0.006-0.067-0.09-0.228-0.09
		c-0.149,0,0.037,0.043-0.121,0.01c-0.125-0.025,0.027-0.037-0.104-0.037c-0.261,0,0.108,0.07-0.396,0.002
		c-0.354-0.049-0.189-0.021-0.366-0.113c0-0.113-0.011-0.092,0.026-0.169c-0.149,0-0.195-0.021-0.225-0.146
		c-0.021-0.104-0.029-0.226-0.029-0.338C72.382,25.188,72.561,25.24,72.725,25.244L72.725,25.244z M77.723,25.837l-0.44-0.096
		c-0.053-0.017-0.14-0.063-0.166-0.122c-0.039-0.082-0.017-0.148,0.07-0.148c0.281,0,0.119,0.01,0.152,0.062
		c0.035,0.052-0.129,0.056,0.242,0.056c0.021-0.054-0.06-0.064,0.104-0.056c0.021,0,0.294,0.067,0.318,0.104
		c0.104,0.146-0.092,0.131,0.226,0.344c0.047-0.014,0.201-0.088,0.229-0.105c0.045-0.027,0.02-0.009,0.047-0.039
		c0.097-0.104,0-0.104,0.119-0.104h0.396c0.083,0,0.033,0.021,0.14,0.062l0.975,0.211c0.558,0.128,0.307,0.095,0.597,0.281
		c0.079,0.054,0.085,0.026,0.168,0.06l0.076,0.037c0.073,0.032,0.021,0.025,0.14,0.028v0.142h-0.142
		c0.052,0.071,0.05,0.045,0.114,0.108c0.004,0.006,0.012,0.013,0.017,0.017c0.004,0.004,0.01,0.012,0.017,0.019
		c0.271,0.272,0.338,0.026,0.393,0.229h0.084c0.029-0.127,0.074-0.144,0.229-0.144c0.184,0,0.094,0.026,0.086,0.063
		c-0.011,0.055,0.004-0.018-0.021,0.041c-0.002,0-0.065,0.014,0.052,0.118l0.319,0.101c0.088,0.039,0.211,0.072,0.239,0.158
		c-0.071,0.035,0.022,0.026-0.084,0.026c-0.151,0-0.104-0.087-0.168-0.087c-0.362,0-0.129,0.104-0.461-0.049l-0.246-0.063
		c-0.099-0.006-0.555-0.104-0.647-0.197c-0.114-0.104-0.281-0.195-0.367-0.195c-0.481,0-0.233,0.025-0.403,0.158
		c-0.104,0.082-0.502,0.037-0.543,0.023l-0.312-0.15c-0.11-0.04-0.063-0.002-0.187,0.02c-0.062,0.01-0.164,0.003-0.229,0.003
		c0.021-0.229,0.117-0.088,0.17-0.28c-0.077-0.112-0.161-0.139-0.313-0.192l-0.563-0.168c-0.155-0.033-0.392,0.08-0.562-0.177
		c0.052-0.069,0.021-0.021,0.063-0.051c0.009-0.004,0.032-0.018,0.038-0.02L77.723,25.837L77.723,25.837z M79.417,28.069
		c0.244,0,0.244-0.714,0.299-0.89c0.035-0.113,0.027,0.029,0.041-0.131h0.168c0.037,0.152,0.135,0.238,0.18,0.389
		c0.066,0.222,0.125,0.115,0.316,0.222c0.123,0.065,0.086,0.065,0.146,0.192c0.22,0.474,0.187,0.457,0.427,0.504l0.244,0.097
		c0.11,0.046-0.027,0.026,0.129,0.041c0.01,0.121,0.082,0.165,0.143,0.255c0.217-0.021-0.045-0.033,0.173-0.058
		c0.071,0.165-0.069,0.011,0.069,0.179c0.108,0.129,0.267,0.215,0.406,0.302c0.008,0.005,0.027,0.021,0.035,0.021
		c0.088,0.046-0.057,0.021,0.105,0.034c0,0.104-0.006,0.168,0.017,0.268c0.063,0.294,0.021,0.674-0.167,0.827
		c-0.195,0.159-0.166-0.004-0.396,0.394c-0.383,0.653-0.313,0.313-0.736,0.479c-0.299,0.111-0.208,0.111-0.455,0.045
		c-0.01-0.002-0.018-0.004-0.021-0.004c-0.004-0.004-0.014-0.004-0.018-0.004c-0.008-0.002-0.029-0.002-0.037-0.004
		c-0.109-0.02-0.025-0.063-0.188-0.021c-0.121,0.033-0.053,0.062-0.146,0.062c-1.249,0-0.747-0.604-1.29-0.414
		c-0.007,0.002-0.013,0.007-0.021,0.009c-0.104,0.03-0.272,0.021-0.354-0.021c0.103-0.14,0.521,0.062,0.396-0.195
		c-0.07,0.029-0.053-0.062-0.057,0.109h-0.197c0.021-0.209,0.14-0.066,0.145-0.313c-0.199,0.104-0.271,0.256-0.536,0.256
		c-0.001-0.006-0.063-0.158-0.063-0.161c-0.049-0.079-0.399-0.226-0.418-0.229c-0.148-0.061-0.549-0.092-0.762-0.092
		c-0.156,0-0.471,0.145-0.533,0.145c-0.229,0-0.119-0.063-0.352-0.012c-0.029,0.006-0.05,0.006-0.07,0.014
		c-0.188,0.043-0.358,0.197-0.649,0.195c-0.157,0-0.378-0.024-0.521,0.021l-0.078,0.029c-0.201,0.06-0.309,0.084-0.533,0.093
		c-0.157,0.005-0.105,0.021-0.185,0.036c-0.104,0.021-0.319-0.098-0.438-0.12c0.02-0.206,0.184-0.104,0.115-0.341
		c-0.058-0.191-0.135-0.398-0.306-0.574l-0.177-0.188c-0.063-0.076-0.063-0.037-0.09-0.142c0.052-0.071,0.029-0.073,0.144-0.084
		v-0.06c-0.063-0.022-0.045-0.016-0.08-0.063c-0.112-0.159,0.074-0.153,0.08-0.419c0.06,0,0.104,0.006,0.159-0.011
		c0.064-0.022,0.002,0,0.059-0.029c0.312-0.175,0.674-0.214,1.024-0.271l0.479-0.146c0.065-0.027,0.119-0.063,0.197-0.082
		c0-0.24,0.114-0.303,0.287-0.195l-0.029-0.17c0.125,0.004,0.088,0.021,0.194,0.026c0.074-0.153,0.021-0.146,0.19-0.229
		c0.109-0.053,0.332-0.147,0.451-0.138l0.225,0.095c0.508,0.303,0.104-0.271,0.998-0.351c-0.063-0.087,0.018-0.046-0.113-0.06
		v-0.084c0.229,0,0.105,0.012,0.271,0.072c0.178,0.066,0.649,0.099,0.858,0.099c-0.004,0.18-0.054,0.095-0.255,0.366
		c0.061,0.086,0.115,0.114,0.212,0.153l0.386,0.127c0.006,0.005,0.014,0.009,0.021,0.011c0.056,0.021,0.075,0.019,0.132,0.035
		C79.227,28.033,79.21,28.069,79.417,28.069L79.417,28.069z M54.904,21.09c0.034,0.055,0.031-0.063,0.023,0.061
		c-0.004,0.06-0.004,0.021-0.023,0.056V21.09L54.904,21.09z M53.774,19.45h0.142v0.026h-0.142V19.45L53.774,19.45z M31.634,18.403
		l0.008,0.01C31.642,18.412,31.631,18.407,31.634,18.403L31.634,18.403z M31.775,18.35c-0.038,0.025,0.059,0.025-0.085,0.025
		C31.725,18.352,31.659,18.358,31.775,18.35L31.775,18.35z M31.803,18.319l-0.028,0.028L31.803,18.319z M31.803,18.319
		c0.046-0.039,0.1-0.076,0.174-0.076c0.057-0.001-0.016-0.041,0.08,0.021C31.973,18.283,31.896,18.313,31.803,18.319L31.803,18.319z
		 M63.771,15.635v-0.057c0.175-0.02-0.012-0.041,0.211-0.068c0.074-0.011,0.158,0.012,0.27,0.012
		C64.113,15.61,63.994,15.635,63.771,15.635L63.771,15.635z M41.659,14.93l0.138,0.03c0.17,0.056,0.193,0.022,0.257,0.11h-0.396
		L41.659,14.93L41.659,14.93z"/>
	<path fill="#2ECC71" d="M21.041,2.41h10.016c1.984,0,3.607,1.624,3.607,3.607v10.016c0,1.982-1.623,3.605-3.607,3.605H21.041
		c-1.984,0-3.607-1.623-3.607-3.605V6.017C17.434,4.033,19.057,2.41,21.041,2.41L21.041,2.41z M32.066,17.578
		c0.307,0,0.307-0.47,0-0.47h-9.675c-0.409-0.035-0.845-0.423-0.84-0.769v-0.262v-1.35v-3.795v-0.47h-1.549h-0.26
		c-0.307,0-0.307,0.47,0,0.47h0.26v3.805v1.34v0.232c0.043,0.992,1.531,1.264,2.234,1.269L32.066,17.578L32.066,17.578z
		 M20.001,9.936h1.549V8.979c0-0.283-0.347-0.512-0.775-0.512c-0.428,0-0.774,0.229-0.774,0.512V9.936L20.001,9.936z M23.471,8.878
		c-0.307,0-0.307,0.47,0,0.47h5.274c0.307,0,0.307-0.47,0-0.47H23.471L23.471,8.878z M28.344,12.843h0.017H28.344L28.344,12.843
		L28.344,12.843z M25.549,15.855c-0.409-0.034-0.845-0.422-0.84-0.768v-3.754h4.903c0.307,0,0.307-0.47,0-0.47h-7.008
		c-0.307,0-0.307,0.47,0,0.47h0.551c-0.006,0.95,0.004,3.268,0.004,3.725c0.043,0.992,1.531,1.263,2.234,1.268h1.486
		c0.703-0.005,2.191-0.275,2.234-1.268v-1.549c5.874-0.279,4.5-5.737,1.247-6.035c-0.27-3.565-5.385-4.557-7.385-1.831
		c-1.302-0.451-2.856,0.27-2.925,1.945c0.233-0.127,0.484-0.193,0.752-0.196c0.21-0.94,1.259-1.501,2.14-1.037l0.276,0.146
		l0.165-0.265c1.593-2.565,6.345-1.667,6.322,1.557L29.702,8.13c3.33-0.126,4.176,4.874-1.26,4.718
		c-0.026-0.002-0.053-0.004-0.08-0.005H28.34c-0.428,0-0.775,0.229-0.775,0.512v1.733c0.004,0.346-0.432,0.733-0.84,0.768H25.549
		L25.549,15.855z"/>
	<path fill="#2ECC71" d="M42.429,4.736h6.022c0.36,0,0.36,0.552,0,0.552h-6.022C42.068,5.289,42.068,4.736,42.429,4.736z"/>
	<polygon fill="#2ECC71" points="39.328,19.469 39.328,16.823 40.776,16.823 40.776,17.061 39.594,17.061 39.594,18.014 
		40.736,18.014 40.736,18.251 39.594,18.251 39.594,19.229 40.776,19.229 40.776,19.469 	"/>
	<path fill="#2ECC71" d="M40.984,19.469l1.133-2.646h0.294l1.135,2.646h-0.289l-0.381-0.893h-1.23l-0.387,0.893H40.984
		L40.984,19.469z M41.747,18.338L41.747,18.338h1.027l-0.51-1.213L41.747,18.338z"/>
	<path fill="#2ECC71" d="M43.624,18.729h0.283c0.015,0.146,0.057,0.267,0.125,0.354c0.046,0.061,0.108,0.107,0.184,0.145
		c0.076,0.035,0.154,0.058,0.234,0.058c0.069,0,0.14-0.019,0.211-0.047c0.072-0.031,0.132-0.072,0.181-0.125
		c0.095-0.103,0.143-0.222,0.143-0.354c0-0.15-0.061-0.277-0.182-0.383c-0.083-0.066-0.22-0.129-0.41-0.179
		c-0.137-0.034-0.24-0.067-0.31-0.103c-0.07-0.033-0.132-0.076-0.187-0.133c-0.124-0.123-0.186-0.279-0.186-0.473
		c0-0.196,0.067-0.361,0.201-0.494c0.145-0.145,0.325-0.217,0.542-0.217c0.208,0,0.382,0.068,0.522,0.207
		c0.14,0.138,0.211,0.309,0.211,0.511h-0.277c-0.01-0.144-0.059-0.258-0.148-0.347c-0.088-0.09-0.198-0.133-0.329-0.133
		c-0.123,0-0.226,0.041-0.312,0.123c-0.097,0.095-0.145,0.209-0.145,0.342s0.042,0.234,0.125,0.306
		c0.068,0.058,0.2,0.114,0.393,0.167c0.158,0.044,0.265,0.078,0.321,0.102c0.055,0.023,0.112,0.063,0.172,0.109
		c0.083,0.068,0.147,0.154,0.193,0.258c0.046,0.104,0.069,0.208,0.069,0.319c0,0.202-0.073,0.38-0.221,0.53
		c-0.159,0.164-0.354,0.246-0.586,0.246c-0.137,0-0.264-0.029-0.382-0.086c-0.118-0.062-0.215-0.142-0.29-0.24
		C43.681,19.063,43.631,18.91,43.624,18.729z"/>
	<polygon fill="#2ECC71" points="46.246,19.469 46.246,18.585 45.328,16.823 45.621,16.823 46.376,18.311 47.151,16.823 
		47.439,16.823 46.512,18.585 46.512,19.469 	"/>
	<path fill="#2ECC71" d="M49.976,16.775c0.283,0,0.543,0.08,0.784,0.238c0.216,0.143,0.378,0.328,0.486,0.554
		c0.086,0.182,0.129,0.375,0.129,0.577c0,0.354-0.121,0.658-0.359,0.92c-0.126,0.137-0.274,0.242-0.443,0.318
		c-0.189,0.09-0.386,0.133-0.588,0.133c-0.286,0-0.548-0.078-0.788-0.238c-0.214-0.143-0.376-0.325-0.484-0.553
		c-0.088-0.186-0.132-0.381-0.132-0.597c0-0.229,0.06-0.448,0.178-0.653c0.125-0.219,0.303-0.393,0.533-0.521
		C49.495,16.84,49.726,16.779,49.976,16.775L49.976,16.775z M49.975,17.014L49.975,17.014c-0.315,0-0.584,0.113-0.809,0.342
		c-0.105,0.107-0.186,0.231-0.242,0.373c-0.056,0.137-0.083,0.272-0.083,0.41c0,0.285,0.093,0.535,0.278,0.75
		c0.107,0.119,0.234,0.215,0.382,0.283c0.152,0.07,0.312,0.106,0.478,0.106c0.229,0,0.442-0.067,0.637-0.202
		c0.174-0.12,0.305-0.273,0.393-0.466c0.066-0.146,0.101-0.302,0.101-0.464c0-0.206-0.054-0.398-0.159-0.58
		c-0.109-0.182-0.26-0.322-0.453-0.424C50.339,17.059,50.165,17.016,49.975,17.014z"/>
	<path fill="#2ECC71" d="M51.8,19.469v-2.646h0.738c0.164,0,0.297,0.012,0.398,0.035c0.104,0.022,0.199,0.063,0.285,0.118
		c0.104,0.065,0.178,0.153,0.232,0.264c0.063,0.113,0.094,0.24,0.094,0.378c0,0.256-0.098,0.456-0.282,0.599
		c-0.16,0.123-0.384,0.188-0.665,0.188h-0.539v1.064H51.8L51.8,19.469z M52.066,18.163L52.066,18.163h0.496
		c0.223,0,0.387-0.034,0.495-0.104c0.071-0.045,0.127-0.104,0.169-0.188c0.041-0.08,0.063-0.166,0.063-0.258
		c0-0.157-0.056-0.288-0.166-0.391c-0.092-0.084-0.207-0.135-0.351-0.152c-0.049-0.008-0.155-0.01-0.321-0.01h-0.385V18.163z"/>
	<polygon fill="#2ECC71" points="53.933,19.469 53.933,16.823 55.38,16.823 55.38,17.061 54.199,17.061 54.199,18.014 
		55.341,18.014 55.341,18.251 54.199,18.251 54.199,19.229 55.38,19.229 55.38,19.469 	"/>
	<path fill="#2ECC71" d="M55.854,19.469v-2.646h0.673c0.27,0,0.467,0.024,0.594,0.073c0.135,0.053,0.248,0.132,0.338,0.238
		c0.129,0.154,0.192,0.336,0.192,0.543c0,0.222-0.073,0.406-0.221,0.559c-0.146,0.15-0.335,0.232-0.563,0.246l0.745,0.986H57.28
		l-0.897-1.197c0.197,0,0.33-0.002,0.397-0.008c0.068-0.01,0.134-0.021,0.193-0.039c0.12-0.041,0.218-0.106,0.29-0.199
		c0.081-0.104,0.121-0.225,0.121-0.356c0-0.149-0.051-0.282-0.152-0.396c-0.066-0.076-0.15-0.131-0.25-0.163
		c-0.1-0.033-0.232-0.048-0.398-0.048h-0.463v2.408h-0.267V19.469z"/>
	<path fill="#2ECC71" d="M57.824,19.469l1.133-2.646h0.295l1.14,2.646H60.1l-0.384-0.893h-1.229L58.1,19.469H57.824L57.824,19.469z
		 M58.587,18.338L58.587,18.338h1.021L59.1,17.125L58.587,18.338z"/>
	<polygon fill="#2ECC71" points="60.878,19.469 60.878,17.061 60.267,17.061 60.267,16.823 61.746,16.823 61.746,17.061 
		61.144,17.061 61.144,19.469 	"/>
	<rect x="62.08" y="16.823" fill="#2ECC71" width="0.27" height="2.646"/>
	<polygon fill="#2ECC71" points="62.914,19.469 62.914,16.823 63.273,16.823 64.755,19.021 64.755,16.823 65.021,16.823 
		65.021,19.469 64.755,19.469 63.18,17.143 63.18,19.469 	"/>
	<path fill="#2ECC71" d="M66.47,18.251h1.796c-0.024,0.313-0.144,0.582-0.354,0.812c-0.134,0.146-0.293,0.256-0.475,0.334
		c-0.184,0.08-0.373,0.121-0.568,0.121c-0.354,0-0.67-0.115-0.938-0.353c-0.155-0.133-0.275-0.292-0.36-0.479
		c-0.081-0.178-0.118-0.355-0.118-0.545c0-0.27,0.077-0.521,0.236-0.752c0.141-0.203,0.314-0.358,0.534-0.467
		c0.194-0.097,0.409-0.145,0.642-0.145c0.328,0,0.617,0.097,0.867,0.291c0.193,0.15,0.318,0.304,0.376,0.462h-0.3
		c-0.073-0.131-0.188-0.245-0.335-0.341c-0.185-0.116-0.386-0.174-0.604-0.174c-0.217,0-0.418,0.056-0.604,0.168
		c-0.182,0.108-0.321,0.259-0.422,0.449c-0.086,0.166-0.129,0.334-0.129,0.512c0,0.223,0.063,0.43,0.188,0.623
		c0.112,0.174,0.268,0.307,0.457,0.396c0.167,0.077,0.342,0.116,0.521,0.116c0.302,0,0.563-0.106,0.781-0.322
		c0.146-0.146,0.239-0.299,0.282-0.467H66.47V18.251z"/>
	<path fill="#2ECC71" d="M69.446,18.729h0.282c0.016,0.146,0.059,0.267,0.126,0.354c0.046,0.061,0.106,0.107,0.185,0.145
		c0.076,0.037,0.153,0.058,0.233,0.058c0.069,0,0.14-0.019,0.211-0.047c0.072-0.031,0.132-0.072,0.183-0.125
		c0.094-0.103,0.146-0.222,0.146-0.354c0-0.15-0.063-0.277-0.186-0.383c-0.084-0.066-0.221-0.129-0.41-0.179
		c-0.137-0.034-0.235-0.067-0.311-0.103c-0.07-0.033-0.132-0.076-0.188-0.133c-0.122-0.123-0.186-0.279-0.186-0.473
		c0-0.196,0.063-0.361,0.197-0.494c0.146-0.145,0.325-0.217,0.542-0.217c0.208,0,0.386,0.068,0.521,0.207
		c0.143,0.138,0.211,0.309,0.211,0.511H70.73c-0.01-0.144-0.063-0.258-0.146-0.347c-0.088-0.09-0.195-0.133-0.33-0.133
		c-0.123,0-0.228,0.041-0.313,0.123c-0.098,0.095-0.146,0.209-0.146,0.342s0.041,0.234,0.125,0.306
		c0.068,0.058,0.199,0.114,0.396,0.167c0.158,0.044,0.27,0.078,0.318,0.102c0.058,0.023,0.111,0.063,0.174,0.109
		c0.083,0.068,0.146,0.154,0.189,0.258c0.047,0.104,0.068,0.208,0.068,0.319c0,0.202-0.072,0.38-0.221,0.53
		c-0.158,0.164-0.354,0.246-0.588,0.246c-0.137,0-0.264-0.029-0.383-0.086c-0.117-0.062-0.213-0.142-0.289-0.24
		C69.503,19.063,69.453,18.91,69.446,18.729z"/>
	<polygon fill="#2ECC71" points="71.509,19.469 71.509,16.823 72.957,16.823 72.957,17.061 71.774,17.061 71.774,18.014 
		72.917,18.014 72.917,18.251 71.774,18.251 71.774,19.229 72.957,19.229 72.957,19.469 	"/>
	<path fill="#2ECC71" d="M73.432,19.469v-2.646h0.672c0.269,0,0.467,0.024,0.595,0.073c0.135,0.053,0.246,0.132,0.336,0.238
		c0.129,0.154,0.194,0.336,0.194,0.543c0,0.222-0.074,0.406-0.222,0.559c-0.146,0.15-0.336,0.232-0.564,0.246l0.746,0.986h-0.331
		l-0.897-1.197c0.195,0,0.33-0.002,0.397-0.008c0.067-0.01,0.132-0.021,0.192-0.039c0.121-0.041,0.219-0.106,0.291-0.199
		c0.08-0.104,0.121-0.225,0.121-0.356c0-0.149-0.051-0.282-0.152-0.396c-0.066-0.076-0.15-0.131-0.25-0.163
		c-0.102-0.032-0.232-0.048-0.398-0.048h-0.463v2.408h-0.267V19.469z"/>
	<polygon fill="#2ECC71" points="76.4,19.469 75.31,16.823 75.601,16.823 76.533,19.139 77.47,16.823 77.755,16.823 76.658,19.469 	
		"/>
	<rect x="78.03" y="16.823" fill="#2ECC71" width="0.267" height="2.646"/>
	<path fill="#2ECC71" d="M81.026,18.774h0.294c-0.124,0.229-0.295,0.409-0.513,0.543c-0.218,0.133-0.453,0.196-0.706,0.196
		c-0.245,0-0.477-0.063-0.691-0.184c-0.229-0.131-0.408-0.313-0.533-0.542c-0.104-0.198-0.153-0.415-0.153-0.646
		c0-0.269,0.065-0.513,0.209-0.734c0.136-0.217,0.315-0.382,0.555-0.496c0.195-0.094,0.397-0.141,0.615-0.141
		c0.321,0,0.608,0.101,0.858,0.303c0.174,0.141,0.291,0.281,0.354,0.423H81.02c-0.081-0.12-0.187-0.22-0.306-0.299
		c-0.188-0.125-0.396-0.188-0.614-0.188c-0.204,0-0.396,0.061-0.586,0.178c-0.177,0.111-0.31,0.261-0.4,0.451
		c-0.084,0.168-0.126,0.336-0.126,0.504c0,0.209,0.063,0.408,0.184,0.602c0.106,0.18,0.263,0.313,0.453,0.409
		c0.16,0.081,0.318,0.122,0.479,0.122c0.108,0,0.229-0.021,0.347-0.063c0.115-0.038,0.225-0.095,0.313-0.163
		C80.847,18.987,80.936,18.896,81.026,18.774z"/>
	<polygon fill="#2ECC71" points="81.71,19.469 81.71,16.823 83.158,16.823 83.158,17.061 81.976,17.061 81.976,18.014 
		83.119,18.014 83.119,18.251 81.976,18.251 81.976,19.229 83.158,19.229 83.158,19.469 	"/>
	<path fill="#2ECC71" d="M79.966,2.985l1.518-0.382c0.631-0.158,0.568,1.346-0.018,1.561l-1.518,0.381
		C79.294,4.717,79.312,3.157,79.966,2.985L79.966,2.985z M73.156,7.983L73.156,7.983l-0.771,4.11h1.074c0.354,0,0.354,0.54,0,0.54
		h-1.883c-0.06-0.02-0.119-0.017-0.181-0.017c-0.491,0-0.853-0.204-0.804-0.454L71.38,7.96c0.016-0.084,0.076-0.163,0.166-0.231
		c-0.049,0.004-0.104,0.006-0.151,0.006c-0.491,0-0.853-0.203-0.804-0.454l0.789-4.202c0.033-0.185,0.281-0.353,0.604-0.424
		c0.146-0.028,1.475,0,1.475,0c0.354,0,0.354,0.54,0,0.54H73.14l-0.77,4.086c-0.014,0.057-0.041,0.111-0.088,0.162h1.176
		c0.354,0,0.354,0.54,0,0.54H73.156L73.156,7.983z M55.298,5.932L55.298,5.932h0.354h1.378c0.403,0,0.724,0.43,0.724,0.87v4.363
		v1.83v0.355c-0.006,0.468,0.586,0.996,1.145,1.042h8.701c0.416,0,0.416,0.638,0,0.638h-8.912c-0.954-0.006-2.977-0.375-3.029-1.72
		v-0.315v-1.818V6.569H55.3C54.882,6.569,54.882,5.932,55.298,5.932L55.298,5.932z M55.651,4.665L55.651,4.665V3.366
		c0-0.383,0.472-0.694,1.052-0.694s1.051,0.311,1.051,0.694v1.298C57.753,5.564,55.651,5.552,55.651,4.665L55.651,4.665z
		 M59.475,3.23L59.475,3.23h6.721c0.416,0,0.416,0.638,0,0.638h-6.721C59.059,3.868,59.059,3.23,59.475,3.23L59.475,3.23z
		 M47.998,6.379L47.998,6.379h1.062c0.48-0.041,0.993-0.498,0.987-0.903V3.254c0-0.332,0.408-0.602,0.91-0.602
		c0.504,0,0.912,0.27,0.912,0.602v2.188c-0.052,1.166-1.8,1.484-2.625,1.49H48h-6.56c-3.059,0-3.059-3.921,0-3.921h7.027
		c0.36,0,0.36,0.552,0,0.552h-6.425c-1.893,0.25-1.627,2.859,0.304,2.809L47.998,6.379L47.998,6.379z M42.48,7.943L42.48,7.943
		h9.454l0.001,5.537c-0.053,1.127-1.808,1.405-2.626,1.405h-1.314c-0.153,0-0.276-0.125-0.276-0.276
		c0-0.152,0.124-0.276,0.276-0.276h1.314c0.413,0,0.785-0.472,0.805-0.855l-0.001-4.98H48.86l-1.921,6.07
		c-0.091,0.265-0.403,0.465-0.906,0.465c-0.503,0-0.946-0.261-0.89-0.524l1.896-6.01h-1.49l-1.922,6.07
		c-0.069,0.256-0.403,0.465-0.905,0.465c-0.503,0-0.946-0.316-0.882-0.543l1.888-5.992h-1.421l-1.064,3.366
		c-0.097,0.261-0.408,0.465-0.911,0.465s-0.934-0.306-0.866-0.589l1.39-4.418h1.821L42.48,7.943L42.48,7.943z M70.951,14.409
		L70.951,14.409h2.502c0.354,0,0.354,0.54,0,0.54h-2.502C70.598,14.949,70.598,14.409,70.951,14.409L70.951,14.409z M74.837,3.321
		c-0.654,0.171-0.672,1.732-0.004,1.566v9.607c0,0.251,0.396,0.454,0.89,0.454h4.897H83.1c0.354,0,0.354-0.54,0-0.54h-1.595v-2.451
		h1.479c0.354,0,0.354-0.54,0-0.54h-1.479V8.245h1.479c0.354,0,0.354-0.54,0-0.54h-1.479V5.266h1.479c0.354,0,0.354-0.54,0-0.54
		h-4.65c-0.354,0-0.354,0.54,0,0.54h1.396v2.439h-1.396c-0.354,0-0.354,0.54,0,0.54h1.396v3.172h-1.396c-0.354,0-0.354,0.54,0,0.54
		h1.396v2.452h-3.118V4.424l1.027-0.318c0.586-0.215,0.646-1.719,0.021-1.561L74.837,3.321L74.837,3.321L74.837,3.321z
		 M64.921,8.582c-0.118,0-0.203,0.052-0.254,0.126c-0.047,0.046-0.073,0.11-0.073,0.201l0.432,2.744
		c0.007,0.468-0.585,0.995-1.14,1.042h-1.594c-0.559-0.047-1.146-0.574-1.144-1.042l1.603-5.092h4.619c0.416,0,0.416-0.637,0-0.637
		H58.99c-0.416,0-0.416,0.637,0,0.637l1.652,0.001c0,0-1.592,4.431-1.592,5.05c0.059,1.345,2.076,1.714,3.031,1.721h2.015
		c0.954-0.007,2.973-0.375,3.03-1.721L66.757,9.22h0.447c0.416,0,0.416-0.638,0-0.638H64.921L64.921,8.582z"/>
	<polygon fill="#2ECC71" points="28.344,12.843 28.36,12.843 28.344,12.842 	"/>
	<path fill="#2ECC71" d="M9.874,26.038h0.032c0.06,0.021,0.153,0.151,0.275,0.396l0.122,0.063l0.428-0.063l0.184,0.188v0.093
		c-0.04,0.081-0.235,0.215-0.581,0.396c-0.082,0.082-0.153,0.35-0.214,0.795l0.122,0.063c0.388-0.104,0.583-0.227,0.583-0.367
		v-0.063l-0.031-0.029c0.042-0.082,0.072-0.123,0.092-0.123c0.346,0.082,0.52,0.176,0.52,0.274v0.151
		c0,0.063-0.184,0.123-0.551,0.187c-0.041,0.104-0.255,0.192-0.643,0.272c-0.225,0.268-0.337,0.459-0.337,0.582v0.029
		c0,0.063,0.041,0.092,0.123,0.092c0.408-0.145,0.714-0.213,0.918-0.213h0.153c0.367,0.039,0.551,0.172,0.551,0.396
		c-0.041,0.227-0.52,0.714-1.438,1.469v0.098c0.02,0.062,0.295,0.215,0.826,0.459c0.163,0.144,0.245,0.264,0.245,0.363
		c-0.041,0.063-0.102,0.111-0.184,0.152c-1.082-0.449-1.663-0.755-1.745-0.918v-0.063c0-0.063,0.164-0.123,0.49-0.187
		c0.532-0.39,0.929-0.786,1.194-1.194v-0.062c0-0.122-0.062-0.185-0.183-0.185c-0.082,0-0.49,0.174-1.225,0.521H9.507
		c-0.123-0.063-0.185-0.134-0.185-0.216l0.153-0.551L9.322,28.75l-0.551,0.219H8.68c-0.102,0-0.184-0.056-0.244-0.152v-0.063
		c0.122-0.184,0.397-0.47,0.826-0.856l0.521-0.672v-0.063L9.692,27.07H9.66l-0.458,0.092H9.109c-0.183-0.041-0.276-0.092-0.276-0.15
		c0-0.146,0.083-0.217,0.246-0.217h0.276c0.326-0.042,0.49-0.152,0.49-0.337L9.783,26.15v-0.029L9.874,26.038L9.874,26.038z
		 M9.17,28.303v0.031l0.092,0.092c0.246,0,0.388-0.148,0.43-0.459l-0.093-0.092H9.537L9.17,28.303L9.17,28.303z M19.071,26.102
		c0.184,0.121,0.275,0.213,0.275,0.271v0.152l-0.121,0.186l0.335,0.337v0.063c0,0.062-0.265,0.123-0.795,0.185l-0.398,0.092
		c-0.265-0.162-0.428-0.244-0.49-0.244h-0.062c-0.122,0-0.223,0.063-0.305,0.187v0.308l0.03,0.31
		c-0.122,0.876-0.224,1.479-0.306,1.807v0.216h0.092l0.214-0.216c0.082,0.144,0.144,0.216,0.184,0.216h0.062
		c0.53-0.123,0.795-0.272,0.795-0.461V29.38c0-0.04-0.132-0.11-0.397-0.214c-0.061-0.163-0.102-0.479-0.123-0.947
		c0.041-0.186,0.102-0.272,0.184-0.272l0.274,0.026h0.031c0-0.184,0.225-0.338,0.674-0.459c0.203,0.041,0.305,0.092,0.305,0.152
		v0.029l-0.091,0.094l-0.307-0.063l-0.123,0.184c0.021,0.063,0.093,0.123,0.216,0.186l0.153-0.027
		c0.183,0.041,0.275,0.123,0.275,0.242c0,0.041-0.102,0.151-0.307,0.34v0.092l0.184,0.244l-0.123,0.15l-0.153-0.027h-0.062
		c-0.163,0.021-0.244,0.121-0.244,0.307l0.183,0.186l0.918-0.063h0.062c0.53,0.08,0.796,0.309,0.796,0.673
		c-0.47,0.757-0.867,1.134-1.193,1.134c-0.267-0.063-0.398-0.162-0.398-0.308h0.03l0.398,0.063c0.347-0.186,0.632-0.512,0.857-0.979
		v-0.123c-0.123-0.226-0.357-0.338-0.704-0.338h-0.091c-0.572,0.021-0.857,0.094-0.857,0.216v0.094c0,0.041,0.102,0.104,0.306,0.186
		l0.062,0.123l-0.246,0.579l-0.153,0.03h-0.214l-0.52,0.338l-0.031-0.029v-0.063c0.347-0.326,0.521-0.511,0.521-0.552
		c-0.083-0.407-0.195-0.61-0.337-0.61c-0.51,0.244-0.765,0.428-0.765,0.551l0.03,0.646c0,0.104-0.041,0.175-0.121,0.216h-0.032
		c-0.062,0-0.112-0.111-0.152-0.339l0.03-0.026v-0.703l-0.092-0.094h-0.123l-0.397,1.227c-0.062,0.104-0.173,0.184-0.337,0.242
		l-0.582-0.15l-0.49,0.063l-0.031-0.029c0-0.122,0.337-0.227,1.011-0.309c0.204,0,0.499-0.918,0.887-2.754l0.061-0.43v-0.675
		l-0.03-0.028c0-0.188,0.081-0.318,0.244-0.398L17.6,27.01h0.428c0.409-0.021,0.613-0.133,0.613-0.336
		c-0.02-0.082-0.081-0.121-0.183-0.121l-0.674,0.121c-0.083-0.021-0.143-0.07-0.185-0.152
		C17.602,26.313,18.092,26.182,19.071,26.102L19.071,26.102z M26.921,26.159c0.144,0,0.214,0.071,0.214,0.216
		c-0.408,0.407-0.611,0.645-0.611,0.704c0,0.511,0.091,0.767,0.276,0.767h0.03l0.337-0.186c0.143,0,0.244,0.051,0.306,0.152v0.029
		c-0.225,0.161-0.479,0.297-0.765,0.396l-0.062,0.092l0.214,2.69c-0.02,0.326-0.173,0.49-0.459,0.49h-0.307l-0.122,0.029
		c-0.225-0.042-0.337-0.082-0.337-0.123v-0.061c0-0.04,0.235-0.121,0.704-0.244l0.123-0.153v-0.184
		c-0.062-1.509-0.123-2.265-0.184-2.265l-0.123-0.063c-0.081,0-0.458,0.123-1.132,0.365c-0.082,0-0.164-0.068-0.245-0.217
		c0-0.061,0.53-0.648,1.591-1.771v-0.092l-0.061-0.063h-0.184l-0.428,0.096H25.45c-0.183-0.041-0.276-0.096-0.276-0.152v-0.063
		l0.214-0.063h0.521L26.921,26.159L26.921,26.159z M25.299,28.119v0.03c0.021,0.122,0.051,0.185,0.091,0.185h0.031
		c0.571-0.122,0.857-0.273,0.857-0.459v-0.367c-0.041-0.082-0.102-0.123-0.184-0.123c-0.081,0-0.274,0.188-0.581,0.553
		C25.371,28.018,25.299,28.078,25.299,28.119L25.299,28.119z M34.375,26.405h0.091c0.081,0.021,0.123,0.11,0.123,0.274l-0.031,0.459
		l0.091,0.063h0.062c0.062,0,0.246-0.081,0.551-0.245c0.123,0.041,0.194,0.093,0.214,0.151v0.031
		c-0.02,0.063-0.143,0.133-0.367,0.215c-0.081,0.162-0.123,0.418-0.123,0.766l0.46,0.273c0.062,0.082,0.092,0.151,0.092,0.216
		c0,0.104-0.316,0.43-0.949,0.979c-0.061,0-0.275,0.122-0.644,0.368h-0.03c0.286-0.286,0.449-0.472,0.49-0.554V29.34l-0.123-0.488
		c0-0.082,0.144-0.254,0.428-0.521l0.032-0.122v-0.398c0-0.146-0.102-0.234-0.307-0.274l-0.306-0.337h-0.091l-0.246,0.428
		c-0.041,0.042-0.153,0.063-0.337,0.063c-0.183,0.145-0.275,0.267-0.275,0.368v0.062l0.093,0.337h0.183
		c0.021-0.081,0.051-0.122,0.093-0.122l0.062,0.093v0.092l-0.184,1.5l-0.03,0.029h-0.062c-0.123,0-0.214-0.214-0.275-0.643
		l0.03-0.612c0-0.306-0.051-0.459-0.153-0.459h-0.092l-0.796,0.644h-0.092l-0.091-0.092v-0.062l0.766-0.644l1.01-1.073
		c0-0.123,0.153-0.233,0.46-0.337C34.18,26.59,34.271,26.467,34.375,26.405L34.375,26.405z M34.925,28.793l0.031,0.031h0.153
		l0.062-0.063v-0.097l-0.062-0.063h-0.062C34.966,28.649,34.925,28.712,34.925,28.793L34.925,28.793z M33.885,29.985l-0.245,0.093
		c-0.062,0-0.46,0.355-1.194,1.071v0.063c0,0.021,0.041,0.052,0.123,0.093l0.244-0.093l0.583,0.063l1.623-0.03l0.367,0.091
		c0.04-0.021,0.081-0.068,0.123-0.15c-0.042,0-0.062-0.053-0.062-0.151c-0.246-0.121-0.367-0.202-0.367-0.243v-0.122l0.092-0.094
		H35.6l0.03,0.028l-0.03,0.274v0.03l0.03,0.029l0.521-0.029l0.398,0.029l0.03-0.094c-0.204-0.349-0.643-0.521-1.316-0.521
		c-0.449,0.041-0.673,0.134-0.673,0.273c0,0.063,0.051,0.164,0.153,0.309c0,0.063-0.041,0.109-0.123,0.15h-1.041
		c-0.367,0-0.551-0.054-0.551-0.15v-0.094C33.436,30.487,33.722,30.211,33.885,29.985L33.885,29.985z M42.836,26.59h0.031
		c0.122,0,0.214,0.228,0.275,0.674l-0.154,0.646c0.042,0.104,0.083,0.151,0.123,0.151l0.704-0.029c0.572,0,0.857,0.285,0.857,0.854
		c0,0.434-0.223,0.979-0.673,1.653c-0.326,0.409-0.581,0.611-0.765,0.611c-0.428,0-0.704-0.314-0.827-0.948
		c0-0.268,0.214-0.459,0.643-0.581c0.225,0.08,0.337,0.244,0.337,0.488c-0.041,0.122-0.081,0.186-0.123,0.186
		c-0.041,0-0.122-0.093-0.245-0.274l-0.031-0.028h-0.091c-0.164,0.122-0.245,0.231-0.245,0.337v0.092
		c0,0.123,0.102,0.246,0.306,0.368h0.184c0.224,0,0.531-0.337,0.918-1.013c0.183-0.365,0.276-0.686,0.276-0.946
		c0-0.31-0.214-0.489-0.644-0.552h-0.06c-0.347,0-0.756,0.143-1.225,0.429h-0.03l-0.093-0.096v-0.027
		c0.327-0.471,0.5-0.878,0.521-1.224l-0.153-0.188v-0.215C42.653,26.793,42.713,26.67,42.836,26.59L42.836,26.59z M40.938,26.926
		c0.062,0,0.123,0.082,0.184,0.245l-0.337,0.855l0.123,0.093l0.458-0.029c0.184,0,0.307,0.122,0.367,0.366h0.123
		c0.041,0,0.133-0.144,0.275-0.43h0.032l0.06,0.063c-0.386,0.795-0.581,1.227-0.581,1.282c-0.225,0.677-0.408,1.013-0.551,1.013
		h-0.03c-0.123-0.082-0.184-0.186-0.184-0.309V29.62l-0.062-0.49l0.031-0.03h0.091l0.184,0.188h0.062
		c0.102-0.021,0.153-0.269,0.153-0.731c0-0.063-0.062-0.11-0.184-0.153c-0.509,0.043-0.765,0.122-0.765,0.245l-0.153,0.216v0.243
		c0.123,0.308,0.214,0.771,0.275,1.408v0.092c0,0.082-0.072,0.15-0.214,0.216c-0.123-0.041-0.184-0.152-0.184-0.339v-0.674
		c0-0.188-0.081-0.479-0.244-0.892l0.337-0.46c0.224-0.365,0.439-0.854,0.643-1.47L40.938,26.926L40.938,26.926z M50.933,26.497
		c0.163,0.042,0.244,0.146,0.244,0.308c0,0.039-0.215,0.269-0.643,0.674c-0.083,0.082-0.123,0.162-0.123,0.244v0.063l0.093,0.029
		l0.49-0.123c0.146,0.063,0.215,0.163,0.215,0.309l-0.396,0.703v0.063l0.092,0.092l0.431-0.063c0.146,0.104,0.215,0.194,0.215,0.274
		c-0.079,0.267-0.202,0.396-0.365,0.396c-0.041-0.203-0.081-0.309-0.123-0.309H50.91c-0.185,0.021-0.409,0.104-0.674,0.245H50.17
		l-0.184-0.152c0-0.063,0.214-0.325,0.642-0.797l0.153-0.214v-0.094l-0.094-0.094l-0.612,0.244l-0.244,0.031
		c-0.102-0.021-0.153-0.052-0.153-0.092V28.21c0-0.123,0.295-0.446,0.887-0.979l0.153-0.215c-0.021-0.082-0.082-0.121-0.184-0.121
		l-0.429,0.063l-0.091-0.122v-0.027C50.014,26.66,50.32,26.561,50.933,26.497L50.933,26.497z M48.329,26.956h0.031
		c0.53,0.164,0.795,0.286,0.795,0.367v0.062c0,0.041-0.051,0.072-0.153,0.094c-0.49-0.161-0.734-0.282-0.734-0.364V27.02
		L48.329,26.956L48.329,26.956z M48.391,28.456L48.3,28.518l0.03,0.367l-0.06,0.336c0,0.082,0.112,0.377,0.336,0.89v0.093
		l-0.03,0.15l-0.52,0.337c-0.368,0.104-0.551,0.204-0.551,0.31c0.04,0.186,0.121,0.274,0.244,0.274h0.062
		c0.184-0.146,0.846-0.31,1.989-0.489l0.398,0.027l0.337-0.09c0.184,0,0.326,0.021,0.427,0.063l0.582-0.031h0.431
		c0.284,0,0.653,0.063,1.101,0.188l0.094-0.095v-0.028c0-0.188-0.123-0.316-0.369-0.398l-0.147,0.031l-0.243-0.031L50.2,30.389
		l-0.948,0.063l-0.154-0.031l-0.458-1.19v-0.063l0.061-0.365c-0.061-0.227-0.123-0.338-0.184-0.338h-0.125L48.391,28.456
		L48.391,28.456z M58.783,25.915c0.266,0.144,0.396,0.378,0.396,0.704c0.367,0.083,0.552,0.134,0.552,0.152l0.031,0.029
		c0,0.082-0.235,0.133-0.704,0.15c-0.145,0.081-0.297,0.245-0.46,0.489v0.122l0.091,0.093l0.46-0.031l0.582,0.063l0.122-0.028
		c0.529,0,0.796,0.11,0.796,0.338c0,0.163-0.267,0.354-0.796,0.581h-0.063v-0.063l0.43-0.432v-0.09c0-0.104-0.389-0.15-1.162-0.15
		c-0.286,0-0.838,0.118-1.654,0.364l-0.031-0.03v-0.063c0.084-0.104,0.328-0.217,0.735-0.336l0.338-0.489v-0.028
		c0-0.123-0.062-0.187-0.185-0.187h-0.03c-0.163,0.063-0.511,0.122-1.041,0.187h-0.123l-0.062-0.063v-0.097
		c0.408-0.062,0.613-0.143,0.613-0.239l-0.097-0.396l0.03-0.095h0.092c0.041,0,0.107,0.108,0.214,0.336
		c0.271,0,0.396,0.056,0.396,0.154l0.152,0.026c0.229,0,0.389-0.149,0.489-0.461v-0.117c0-0.146-0.069-0.215-0.215-0.215
		l-0.152,0.028C58.619,26.025,58.701,25.956,58.783,25.915L58.783,25.915z M56.792,27.998c-0.123,0.104-0.188,0.203-0.188,0.305
		c-0.311,0.613-0.46,0.973-0.46,1.071c0.021,0.146,0.063,0.216,0.123,0.216h0.092c0.04,0,0.112-0.093,0.218-0.271
		c0.164-0.555,0.313-0.868,0.459-0.949c0-0.104-0.07-0.229-0.213-0.366L56.792,27.998L56.792,27.998z M58.813,28.456
		c-0.144,0.021-0.214,0.052-0.214,0.093v0.03c0.102,0.103,0.152,0.192,0.152,0.274c-0.146,0.285-0.285,0.459-0.428,0.521
		c-0.123,0-0.189-0.062-0.189-0.184v-0.366c0-0.163-0.039-0.257-0.12-0.275h-0.031c-0.104,0.041-0.149,0.174-0.149,0.397v0.459
		l-0.063,0.429l0.188,0.367l-0.123,0.979c0.021,0.162,0.063,0.244,0.123,0.244c0.104-0.062,0.149-0.162,0.149-0.308
		c0.063-0.511,0.408-0.767,1.041-0.767h0.063l0.095,0.092v0.094c-0.431,0.447-0.646,0.734-0.646,0.855
		c0.201,0.285,0.541,0.43,1.01,0.43c0.123,0,0.215-0.053,0.273-0.153v-0.028l-0.063-0.093c-0.486-0.104-0.73-0.216-0.73-0.337V31.18
		c0.367-0.431,0.555-0.717,0.555-0.854v-0.029c-0.063-0.104-0.162-0.174-0.311-0.216l-0.029,0.03h-0.029
		c-0.282,0-0.568,0.063-0.854,0.186h-0.028l-0.095-0.093l0.031-0.123l0.489-0.396l-0.094-0.273v-0.092
		c0.185-0.227,0.272-0.408,0.272-0.553V28.67C58.998,28.567,58.916,28.498,58.813,28.456L58.813,28.456z M66.755,26.438
		c0.062,0.021,0.093,0.082,0.093,0.184c0,0.104-0.195,0.43-0.583,0.979l-0.03,0.188v0.063l0.093,0.149
		c-0.103,0.326-0.152,0.931-0.152,1.81l0.029,0.026l-0.029,0.095c0.121,0.162,0.188,0.285,0.188,0.367
		c-0.104,0.568-0.188,0.854-0.242,0.854h-0.063c-0.123,0-0.187-0.313-0.187-0.949l0.028-0.337l-0.063-0.337l0.063-0.554
		c-0.063,0-0.103-0.094-0.123-0.272c0.187-0.367,0.31-0.651,0.369-0.854v-0.123h-0.063C65.854,27.911,65.705,28,65.623,28h-0.031
		v-0.063h-0.029c0.552-0.674,0.918-1.174,1.104-1.5h0.092l0,0H66.755z M65.347,26.527l0.123,0.092v0.029
		c-0.104,0.367-0.358,0.797-0.766,1.287l-0.031,0.121c0.164,0.244,0.244,0.396,0.244,0.459l-0.31,0.854v0.03l0.063,0.582v0.121
		l0.094,0.094h0.063c0.406-0.555,0.61-0.867,0.61-0.948h0.031l0.063,0.063c0,0.164-0.26,0.662-0.769,1.5
		c-0.146,0.308-0.255,0.459-0.337,0.459c-0.145-0.063-0.217-0.161-0.217-0.307c0.162-0.326,0.244-0.686,0.244-1.07l-0.092-0.582
		c0.243-0.447,0.365-0.715,0.365-0.797c0-0.123-0.122-0.285-0.365-0.489l-0.029-0.027v-0.032c0.268-0.283,0.58-0.755,0.947-1.406
		h0.063L65.347,26.527L65.347,26.527z M67.673,26.682c-0.104,0.063-0.174,0.162-0.215,0.307c0,0.205-0.188,0.326-0.551,0.369v0.121
		c0.266,0.102,0.396,0.213,0.396,0.336v0.15l-0.275,0.338l0.187,0.306l-0.092,0.31l0.063,0.458v0.552
		c-0.348,0.352-0.521,0.553-0.521,0.612c0.08,0.187,0.254,0.272,0.521,0.272c1.021-0.104,1.529-0.232,1.529-0.396v-0.063
		c0-0.041-0.051-0.068-0.151-0.092h-0.026L68.5,30.294l-0.795,0.029c-0.039,0-0.082-0.052-0.123-0.152
		c0.328-0.407,0.502-0.686,0.521-0.827l-0.063-0.214c-0.123-0.143-0.188-0.245-0.188-0.306v-0.123l0.149-0.275v-0.062l-0.363-0.366
		v-0.246l0.063-0.184c0.227-0.063,0.336-0.153,0.336-0.274C67.878,26.885,67.755,26.682,67.673,26.682L67.673,26.682z
		 M75.617,26.102h0.063c0.567,0.06,0.854,0.229,0.854,0.52l-0.584,0.796v0.062l0.063,0.063l0.611-0.123
		c0.186,0.063,0.272,0.163,0.272,0.308l-0.46,0.646v0.063c0.27,0.227,0.396,0.38,0.396,0.459c-0.041,0.041-0.233,0.11-0.582,0.217
		c0,0.063-0.191,0.144-0.58,0.242c-0.063,0.08-0.135,0.314-0.217,0.703l0.03,0.705c0,0.244-0.307,0.554-0.918,0.918h-0.063
		l-0.063-0.063V31.52c0.43-0.43,0.645-0.795,0.645-1.104l0.123-1.469c0-0.228-0.051-0.531-0.151-0.92
		c0.673-0.692,1.012-1.146,1.012-1.349c0-0.082-0.146-0.186-0.431-0.308l-0.092-0.122v-0.095L75.617,26.102L75.617,26.102z
		 M73.81,26.282c-0.04,0-0.082,0.051-0.123,0.151l0.063,1.527l-0.063,0.123c-0.389,0.352-0.755,0.541-1.104,0.581l-0.334-0.063
		l-0.098,0.123c0.021,0.123,0.234,0.27,0.646,0.433l0.123-0.063c0.266-0.285,0.449-0.447,0.552-0.49h0.123l0.122,0.096l-0.031,0.186
		l0.031,0.674c0,0.187-0.389,0.686-1.163,1.5v0.094c0,0.144,0.112,0.242,0.337,0.307h0.029l0.031-0.029l1.01,0.274
		c0.143-0.082,0.215-0.151,0.215-0.214l-0.03-0.031v-0.242l-0.062-1.315v-0.187c0-0.203,0.08-0.447,0.244-0.731
		c0-0.104-0.082-0.188-0.244-0.246l0.123-0.487c0.224-0.145,0.336-0.226,0.336-0.244v-0.031c-0.246-0.184-0.367-0.354-0.367-0.521
		v-0.063l0.031-0.027c-0.104-0.715-0.217-1.073-0.338-1.073L73.81,26.282L73.81,26.282z M75.583,28.149v0.459l0.095,0.093h0.091
		c0.104-0.082,0.193-0.227,0.275-0.43c0.162-0.122,0.266-0.229,0.306-0.311c-0.04-0.103-0.081-0.148-0.122-0.148h-0.029
		C75.789,27.956,75.583,28.067,75.583,28.149L75.583,28.149z M73.197,30.875c0.245-0.429,0.398-0.645,0.459-0.645l0.122,0.121v0.705
		c0,0.123-0.051,0.192-0.153,0.218c-0.285-0.063-0.428-0.136-0.428-0.218V30.875L73.197,30.875z M83.435,25.518
		c0.123,0,0.225,0.068,0.309,0.215v0.094c-0.39,0.346-0.584,0.57-0.584,0.673v0.093c0.104,0.146,0.215,0.215,0.338,0.215l0.31-0.028
		c0.241,0.021,0.364,0.108,0.364,0.272v0.03c-0.428,0.448-0.645,0.724-0.645,0.825l-0.061,0.368v0.12
		c0.061,0.104,0.121,0.154,0.184,0.154l0.918-0.096h0.154c0.121,0,0.244,0.104,0.367,0.309l-0.094,0.092v0.031l-0.677-0.095
		c-0.592,0.041-0.889,0.136-0.889,0.274c-0.063,0.186-0.188,1.053-0.396,2.603l-0.121,0.49H82.85l-0.031-0.03h-0.026l0.063-0.701
		l-0.031-0.031v-0.027l0.154-2.021v-0.121l-0.123-0.123h-0.15c-1.021,0.324-1.654,0.57-1.896,0.733
		c-0.122,0-0.274,0.052-0.462,0.152c-0.161-0.04-0.243-0.163-0.243-0.366c0-0.104,0.108-0.174,0.337-0.215l0.027,0.029H80.5
		c0.754-0.104,1.295-0.256,1.621-0.459l0.153-0.151l0.185,0.062c0.389-0.121,0.58-0.244,0.58-0.367v-0.026l-0.121-0.123h-0.094
		l-0.214,0.123V28.46c0.308-0.405,0.46-0.685,0.46-0.825c0-0.203-0.07-0.313-0.215-0.336l-0.768,0.307h-0.063l-0.149-0.15
		c0-0.063,0.271-0.378,0.826-0.949l0.307-0.396v-0.07l-0.063-0.063H82.88L81.994,26.1c-0.162,0-0.285-0.062-0.369-0.185l0.094-0.091
		v-0.031l0.152,0.031L83.435,25.518L83.435,25.518z M90.705,26.282c0.104,0,0.174,0.11,0.213,0.337c0,0.123-0.107,0.488-0.336,1.104
		l0.063,0.063h0.123c0.405-0.123,0.795-0.215,1.162-0.274c0.243,0,0.438,0.092,0.583,0.274v0.121l-1.041,0.825H91.44V28.67
		c0.308-0.406,0.459-0.644,0.459-0.703v-0.063l-0.091-0.092c-0.734,0-1.461,0.328-2.176,0.979c-0.43,0.309-0.661,0.46-0.703,0.46
		l-0.094-0.028V29.16c0-0.104,0.205-0.309,0.61-0.609c0.513-0.408,0.867-1.002,1.07-1.773
		C90.541,26.443,90.603,26.282,90.705,26.282L90.705,26.282z M91.746,29.771h0.151c0.185,0.103,0.274,0.267,0.274,0.49l-0.213,0.336
		v0.123c0,0.021,0.143,0.121,0.429,0.306c0.062,0.084,0.092,0.153,0.092,0.216l-0.092,0.063l-1.011-0.215l-0.188-0.185
		c0-0.104,0.146-0.297,0.432-0.582l0.026-0.122v-0.03l-0.063-0.063H91.47c-0.653,0.122-0.979,0.389-0.979,0.797
		c0,0.285-0.063,0.46-0.188,0.521H90.24c-0.103-0.061-0.175-0.162-0.215-0.307l0.152-0.552V30.23c0-0.081,0.029-0.146,0.093-0.188
		l0.185,0.096h0.123C91.194,29.895,91.582,29.771,91.746,29.771z"/>
	<path fill="#2ECC71" d="M9.728,26.033h0.031c0.06,0.02,0.153,0.15,0.275,0.396l0.122,0.063l0.429-0.063l0.184,0.186v0.092
		c-0.041,0.082-0.235,0.214-0.582,0.396c-0.082,0.084-0.153,0.349-0.214,0.797l0.122,0.062c0.388-0.103,0.583-0.226,0.583-0.366
		v-0.063l-0.032-0.03c0.042-0.082,0.072-0.122,0.093-0.122c0.346,0.08,0.52,0.174,0.52,0.275v0.152c0,0.062-0.184,0.123-0.551,0.185
		c-0.041,0.103-0.255,0.19-0.643,0.272c-0.225,0.269-0.337,0.459-0.337,0.582v0.027c0,0.063,0.041,0.096,0.123,0.096
		c0.408-0.146,0.715-0.217,0.918-0.217h0.152c0.367,0.04,0.551,0.174,0.551,0.396c-0.04,0.225-0.52,0.715-1.438,1.47v0.095
		c0.02,0.063,0.295,0.215,0.826,0.459c0.164,0.146,0.246,0.266,0.246,0.365c-0.041,0.063-0.102,0.111-0.185,0.152
		c-1.081-0.448-1.662-0.756-1.745-0.918V30.71c0-0.063,0.163-0.12,0.49-0.186c0.532-0.392,0.929-0.785,1.194-1.192V29.27
		c0-0.123-0.062-0.187-0.183-0.187c-0.083,0-0.49,0.177-1.225,0.521H9.361c-0.123-0.063-0.184-0.133-0.184-0.213L9.33,28.84
		l-0.153-0.087l-0.551,0.216H8.534c-0.102,0-0.184-0.053-0.244-0.151v-0.063c0.121-0.185,0.397-0.471,0.825-0.855l0.521-0.672
		v-0.063L9.545,27.07H9.514l-0.458,0.091H8.962c-0.183-0.04-0.275-0.091-0.275-0.149c0-0.146,0.083-0.218,0.246-0.218h0.275
		c0.327-0.041,0.49-0.151,0.49-0.337l-0.062-0.309V26.12L9.728,26.033L9.728,26.033z M9.024,28.299v0.03l0.091,0.092
		c0.246,0,0.388-0.151,0.43-0.46l-0.092-0.092H9.391L9.024,28.299L9.024,28.299z M18.925,26.094
		c0.185,0.123,0.276,0.217,0.276,0.276v0.151l-0.122,0.185l0.336,0.337v0.063c0,0.063-0.266,0.123-0.795,0.188l-0.399,0.094
		c-0.265-0.162-0.428-0.246-0.49-0.246H17.67c-0.122,0-0.224,0.063-0.306,0.186v0.309l0.03,0.309
		c-0.122,0.879-0.223,1.479-0.306,1.809v0.215h0.091l0.214-0.215c0.083,0.145,0.144,0.215,0.184,0.215h0.062
		c0.53-0.123,0.795-0.273,0.795-0.461v-0.121c0-0.041-0.132-0.111-0.397-0.216c-0.062-0.163-0.102-0.479-0.123-0.946
		c0.041-0.188,0.102-0.273,0.185-0.273l0.274,0.029h0.032c0-0.186,0.225-0.338,0.674-0.459c0.204,0.041,0.306,0.092,0.306,0.15v0.03
		l-0.092,0.093l-0.307-0.063l-0.123,0.185c0.021,0.063,0.093,0.122,0.216,0.187l0.153-0.026c0.183,0.039,0.275,0.119,0.275,0.242
		c0,0.038-0.102,0.149-0.307,0.338v0.092l0.184,0.246l-0.123,0.149l-0.153-0.028h-0.062c-0.164,0.021-0.245,0.121-0.245,0.307
		l0.183,0.185l0.918-0.062h0.061c0.53,0.082,0.797,0.308,0.797,0.673c-0.47,0.756-0.867,1.135-1.194,1.135
		c-0.266-0.063-0.398-0.164-0.398-0.308h0.03l0.398,0.063c0.347-0.187,0.632-0.512,0.856-0.979V29.99
		c-0.123-0.227-0.356-0.337-0.704-0.337H19.66c-0.572,0.021-0.857,0.094-0.857,0.215v0.093c0,0.041,0.102,0.104,0.306,0.186
		l0.061,0.123l-0.246,0.58l-0.153,0.03h-0.214l-0.52,0.337l-0.031-0.029V31.12c0.347-0.326,0.521-0.51,0.521-0.551
		c-0.082-0.407-0.194-0.611-0.337-0.611c-0.511,0.244-0.766,0.431-0.766,0.554l0.03,0.645c0,0.104-0.041,0.175-0.122,0.215h-0.031
		c-0.062,0-0.112-0.111-0.153-0.338l0.03-0.029v-0.71l-0.091-0.095h-0.123l-0.397,1.229c-0.061,0.104-0.173,0.187-0.336,0.243
		l-0.582-0.149l-0.49,0.063l-0.031-0.029c0-0.121,0.337-0.226,1.011-0.308c0.204,0,0.499-0.918,0.887-2.754l0.061-0.431v-0.676
		l-0.03-0.029c0-0.187,0.081-0.314,0.245-0.396l0.153,0.028h0.428c0.409-0.021,0.613-0.134,0.613-0.339
		c-0.02-0.079-0.081-0.12-0.183-0.12l-0.674,0.12c-0.082-0.021-0.142-0.067-0.184-0.149C17.456,26.311,17.945,26.176,18.925,26.094
		L18.925,26.094z M26.775,26.152c0.144,0,0.214,0.072,0.214,0.218c-0.407,0.405-0.611,0.644-0.611,0.704
		c0,0.509,0.092,0.766,0.276,0.766h0.03l0.337-0.185c0.142,0,0.244,0.051,0.306,0.151v0.027c-0.225,0.163-0.479,0.299-0.766,0.396
		L26.5,28.329l0.214,2.692c-0.02,0.326-0.172,0.49-0.458,0.49h-0.307l-0.121,0.026c-0.225-0.041-0.337-0.082-0.337-0.122v-0.063
		c0-0.039,0.235-0.121,0.704-0.244l0.123-0.152v-0.182c-0.062-1.514-0.123-2.271-0.184-2.271l-0.123-0.062
		c-0.081,0-0.458,0.123-1.132,0.366c-0.081,0-0.164-0.069-0.244-0.215c0-0.063,0.53-0.651,1.591-1.773v-0.09l-0.06-0.063H25.98
		l-0.429,0.093h-0.246c-0.183-0.039-0.275-0.093-0.275-0.15v-0.063l0.214-0.063h0.521L26.775,26.152L26.775,26.152z M25.153,28.113
		v0.029c0.021,0.123,0.051,0.187,0.092,0.187h0.031c0.571-0.123,0.857-0.274,0.857-0.46v-0.367
		c-0.041-0.082-0.102-0.122-0.185-0.122c-0.081,0-0.274,0.188-0.581,0.552C25.225,28.014,25.153,28.073,25.153,28.113L25.153,28.113
		z M34.229,26.398h0.091c0.081,0.021,0.123,0.113,0.123,0.275l-0.031,0.455l0.091,0.063h0.062c0.062,0,0.245-0.079,0.551-0.242
		c0.123,0.04,0.195,0.092,0.214,0.149v0.028c-0.02,0.063-0.142,0.136-0.367,0.218c-0.081,0.164-0.123,0.418-0.123,0.767l0.46,0.272
		c0.062,0.084,0.091,0.152,0.091,0.215c0,0.104-0.316,0.433-0.949,0.979c-0.061,0-0.275,0.123-0.644,0.368h-0.03
		c0.286-0.286,0.449-0.475,0.49-0.555V29.33l-0.123-0.49c0-0.082,0.144-0.254,0.429-0.52l0.031-0.123v-0.395
		c0-0.145-0.102-0.233-0.307-0.273l-0.306-0.337h-0.091l-0.246,0.429c-0.041,0.042-0.153,0.063-0.337,0.063
		c-0.183,0.146-0.275,0.269-0.275,0.369v0.063l0.092,0.337h0.183c0.021-0.081,0.051-0.121,0.093-0.121l0.062,0.095v0.092l-0.185,1.5
		l-0.03,0.027h-0.062c-0.123,0-0.214-0.215-0.275-0.644l0.03-0.611c0-0.307-0.051-0.459-0.153-0.459h-0.091L31.9,28.973h-0.09
		l-0.091-0.094v-0.063l0.765-0.646l1.01-1.069c0-0.121,0.153-0.232,0.46-0.336C34.034,26.584,34.125,26.461,34.229,26.398
		L34.229,26.398z M34.779,28.788l0.031,0.029h0.153l0.062-0.063v-0.093l-0.062-0.063h-0.061
		C34.82,28.645,34.779,28.706,34.779,28.788L34.779,28.788z M33.739,29.98l-0.246,0.093c-0.062,0-0.459,0.356-1.194,1.071v0.062
		c0,0.021,0.041,0.052,0.123,0.093l0.245-0.093l0.583,0.063l1.622-0.03l0.367,0.092c0.041-0.021,0.081-0.069,0.123-0.153
		c-0.042,0-0.062-0.051-0.062-0.147c-0.246-0.123-0.367-0.205-0.367-0.244v-0.123l0.091-0.094h0.428l0.03,0.028l-0.03,0.275V30.9
		l0.03,0.031l0.521-0.031l0.398,0.031l0.03-0.096c-0.204-0.346-0.643-0.521-1.317-0.521c-0.449,0.041-0.673,0.135-0.673,0.273
		c0,0.063,0.051,0.162,0.153,0.309c0,0.063-0.041,0.109-0.123,0.15H33.43c-0.367,0-0.551-0.052-0.551-0.15v-0.094
		C33.29,30.48,33.576,30.206,33.739,29.98L33.739,29.98z M42.69,26.584h0.031c0.122,0,0.214,0.225,0.275,0.674l-0.154,0.646
		c0.042,0.104,0.082,0.151,0.123,0.151l0.704-0.029c0.572,0,0.856,0.285,0.856,0.854c0,0.432-0.223,0.979-0.672,1.653
		c-0.327,0.408-0.581,0.612-0.766,0.612c-0.428,0-0.704-0.315-0.827-0.95c0-0.265,0.214-0.457,0.643-0.58
		c0.225,0.08,0.337,0.244,0.337,0.489c-0.041,0.121-0.081,0.185-0.123,0.185c-0.041,0-0.122-0.094-0.244-0.274l-0.031-0.029H42.75
		c-0.163,0.121-0.244,0.232-0.244,0.338v0.093c0,0.122,0.102,0.245,0.306,0.366h0.184c0.223,0,0.53-0.336,0.918-1.012
		c0.183-0.365,0.275-0.686,0.275-0.947c0-0.309-0.214-0.488-0.644-0.553h-0.06c-0.347,0-0.756,0.146-1.225,0.432h-0.03l-0.093-0.096
		v-0.027c0.326-0.473,0.5-0.878,0.521-1.227l-0.153-0.187v-0.214C42.507,26.788,42.567,26.665,42.69,26.584L42.69,26.584z
		 M40.792,26.92c0.062,0,0.123,0.082,0.184,0.245l-0.337,0.856l0.123,0.092l0.458-0.029c0.184,0,0.307,0.122,0.367,0.366h0.123
		c0.04,0,0.133-0.144,0.275-0.429h0.031l0.06,0.063c-0.387,0.795-0.581,1.227-0.581,1.285c-0.225,0.674-0.408,1.011-0.552,1.011
		h-0.029c-0.123-0.083-0.185-0.186-0.185-0.307v-0.459l-0.062-0.489l0.032-0.031h0.091l0.184,0.188h0.062
		c0.102-0.021,0.153-0.268,0.153-0.732c0-0.063-0.062-0.109-0.184-0.152c-0.51,0.043-0.766,0.123-0.766,0.246l-0.153,0.215V29.1
		c0.123,0.31,0.214,0.774,0.275,1.41v0.092c0,0.08-0.072,0.15-0.214,0.215c-0.123-0.041-0.184-0.151-0.184-0.338v-0.672
		c0-0.188-0.081-0.479-0.245-0.892l0.337-0.46c0.223-0.365,0.438-0.854,0.643-1.47L40.792,26.92L40.792,26.92z M50.786,26.491
		c0.163,0.042,0.244,0.144,0.244,0.308c0,0.041-0.214,0.269-0.643,0.674c-0.083,0.08-0.123,0.162-0.123,0.244v0.063l0.093,0.028
		l0.49-0.121c0.143,0.062,0.214,0.162,0.214,0.308l-0.398,0.704v0.061l0.092,0.09l0.429-0.061c0.144,0.102,0.214,0.193,0.214,0.275
		c-0.081,0.265-0.204,0.396-0.367,0.396c-0.039-0.204-0.08-0.308-0.123-0.308h-0.152c-0.183,0.021-0.408,0.104-0.673,0.246h-0.062
		l-0.184-0.152c0-0.063,0.214-0.326,0.643-0.797l0.153-0.215v-0.092l-0.091-0.092l-0.613,0.241l-0.245,0.031
		c-0.102-0.021-0.153-0.056-0.153-0.097V28.2c0-0.122,0.295-0.449,0.887-0.979l0.154-0.215c-0.021-0.082-0.083-0.123-0.185-0.123
		l-0.429,0.063l-0.091-0.123v-0.03C49.868,26.652,50.173,26.553,50.786,26.491L50.786,26.491z M48.183,26.951h0.031
		c0.53,0.163,0.795,0.285,0.795,0.365v0.063c0,0.04-0.051,0.071-0.153,0.094c-0.49-0.164-0.734-0.285-0.734-0.367v-0.092
		L48.183,26.951L48.183,26.951z M48.244,28.45l-0.091,0.063l0.03,0.363l-0.06,0.34c0,0.082,0.112,0.377,0.335,0.889v0.093
		l-0.03,0.151l-0.52,0.338c-0.368,0.103-0.551,0.203-0.551,0.308c0.041,0.183,0.122,0.274,0.244,0.274h0.062
		c0.184-0.146,0.847-0.311,1.989-0.49l0.398,0.031l0.337-0.094c0.185,0,0.327,0.021,0.429,0.063l0.581-0.029h0.431
		c0.283,0,0.652,0.063,1.104,0.186l0.093-0.094v-0.029c0-0.186-0.122-0.313-0.367-0.396L52.5,30.44l-0.244-0.03l-2.208-0.03
		L49.1,30.443l-0.154-0.03l-0.458-1.194v-0.062l0.061-0.366c-0.061-0.227-0.123-0.338-0.184-0.338L48.244,28.45L48.244,28.45z
		 M58.637,25.91c0.265,0.143,0.396,0.377,0.396,0.704c0.369,0.081,0.553,0.133,0.553,0.151l0.031,0.027
		c0,0.081-0.236,0.135-0.705,0.153c-0.144,0.081-0.297,0.244-0.459,0.485v0.123l0.092,0.095l0.459-0.03l0.582,0.063l0.123-0.027
		c0.529,0,0.795,0.109,0.795,0.337c0,0.163-0.266,0.354-0.795,0.581h-0.063V28.51l0.428-0.428V27.99
		c0-0.102-0.388-0.153-1.162-0.153c-0.285,0-0.836,0.122-1.652,0.367l-0.027-0.03V28.11c0.082-0.103,0.326-0.214,0.73-0.335
		l0.338-0.489v-0.031c0-0.122-0.063-0.183-0.186-0.183h-0.029c-0.164,0.061-0.512,0.121-1.041,0.183h-0.123l-0.062-0.062v-0.092
		c0.408-0.063,0.612-0.146,0.612-0.244l-0.092-0.398l0.029-0.091h0.092c0.041,0,0.108,0.11,0.215,0.336
		c0.267,0,0.396,0.052,0.396,0.153l0.153,0.027c0.227,0,0.388-0.15,0.486-0.459v-0.117c0-0.146-0.067-0.217-0.213-0.217
		l-0.151,0.027C58.473,26.021,58.554,25.951,58.637,25.91L58.637,25.91z M56.646,27.992c-0.122,0.102-0.184,0.202-0.184,0.307
		c-0.311,0.611-0.459,0.969-0.459,1.07c0.021,0.145,0.062,0.214,0.123,0.214h0.092c0.039,0,0.111-0.092,0.214-0.272
		c0.163-0.553,0.315-0.867,0.46-0.947c0-0.104-0.072-0.229-0.214-0.366L56.646,27.992L56.646,27.992z M58.666,28.45
		c-0.142,0.021-0.213,0.052-0.213,0.093v0.03c0.104,0.103,0.152,0.192,0.152,0.274c-0.143,0.285-0.286,0.459-0.43,0.521
		c-0.122,0-0.184-0.063-0.184-0.187v-0.365c0-0.162-0.041-0.258-0.121-0.274h-0.031c-0.104,0.041-0.152,0.175-0.152,0.397v0.459
		l-0.061,0.429l0.184,0.366l-0.123,0.979c0.021,0.163,0.063,0.245,0.123,0.245c0.102-0.063,0.152-0.163,0.152-0.309
		c0.062-0.511,0.408-0.767,1.041-0.767h0.062l0.093,0.094v0.093c-0.43,0.446-0.644,0.733-0.644,0.854
		c0.204,0.284,0.541,0.428,1.01,0.428c0.123,0,0.214-0.051,0.274-0.149v-0.03l-0.063-0.092c-0.487-0.104-0.731-0.215-0.731-0.337
		v-0.03c0.367-0.429,0.554-0.715,0.554-0.854v-0.029c-0.063-0.104-0.163-0.174-0.31-0.215l-0.028,0.029h-0.03
		c-0.285,0-0.568,0.063-0.854,0.186H58.3l-0.094-0.094l0.027-0.121l0.489-0.396l-0.095-0.273v-0.094
		c0.187-0.228,0.275-0.407,0.275-0.551v-0.096C58.851,28.561,58.769,28.492,58.666,28.45L58.666,28.45z M66.608,26.432
		c0.062,0.021,0.093,0.082,0.093,0.185s-0.193,0.429-0.582,0.979l-0.031,0.185v0.062l0.097,0.153
		c-0.104,0.326-0.151,0.929-0.151,1.808l0.029,0.028l-0.029,0.093c0.121,0.162,0.188,0.285,0.188,0.367
		c-0.104,0.571-0.188,0.855-0.246,0.855H65.91c-0.121,0-0.185-0.314-0.185-0.948l0.026-0.338l-0.063-0.336l0.063-0.552
		c-0.063,0-0.104-0.096-0.123-0.273c0.188-0.367,0.311-0.653,0.369-0.857v-0.123h-0.063c-0.226,0.187-0.377,0.274-0.46,0.274h-0.03
		V27.93h-0.028c0.551-0.674,0.918-1.174,1.104-1.5h0.09L66.608,26.432L66.608,26.432z M65.201,26.521l0.123,0.093v0.028
		c-0.103,0.369-0.359,0.797-0.767,1.287l-0.03,0.121c0.163,0.242,0.244,0.396,0.244,0.459l-0.307,0.854v0.028l0.063,0.58v0.123
		l0.092,0.094h0.063c0.405-0.553,0.61-0.866,0.61-0.947h0.031l0.061,0.063c0,0.164-0.256,0.662-0.766,1.5
		c-0.146,0.307-0.254,0.459-0.336,0.459c-0.146-0.063-0.219-0.162-0.219-0.309c0.164-0.324,0.245-0.686,0.245-1.068l-0.093-0.582
		c0.242-0.447,0.365-0.713,0.365-0.797c0-0.123-0.123-0.285-0.365-0.488l-0.029-0.027v-0.031c0.27-0.283,0.581-0.755,0.947-1.406
		h0.064v-0.033H65.201z M67.526,26.676c-0.103,0.063-0.173,0.164-0.214,0.31c0,0.202-0.184,0.323-0.553,0.366v0.121
		c0.268,0.104,0.398,0.215,0.398,0.336v0.152l-0.275,0.338l0.186,0.307l-0.092,0.31l0.061,0.459v0.554
		c-0.347,0.348-0.521,0.551-0.521,0.609c0.081,0.188,0.255,0.273,0.521,0.273c1.021-0.104,1.53-0.232,1.53-0.396v-0.063
		c0-0.041-0.051-0.068-0.151-0.092h-0.031l-0.026,0.03l-0.796,0.029c-0.04,0-0.082-0.052-0.122-0.152
		c0.326-0.407,0.5-0.684,0.521-0.825l-0.063-0.215c-0.122-0.144-0.188-0.246-0.188-0.308v-0.121l0.151-0.274V28.36l-0.364-0.366
		v-0.246l0.063-0.186c0.228-0.063,0.337-0.151,0.337-0.272C67.731,26.879,67.609,26.676,67.526,26.676L67.526,26.676z M75.47,26.094
		h0.063c0.569,0.063,0.855,0.234,0.855,0.521l-0.582,0.795v0.063l0.063,0.063l0.611-0.123c0.186,0.063,0.275,0.163,0.275,0.31
		l-0.461,0.646v0.063c0.268,0.225,0.396,0.377,0.396,0.459c-0.04,0.041-0.231,0.109-0.581,0.215c0,0.063-0.191,0.146-0.581,0.244
		c-0.063,0.082-0.134,0.313-0.216,0.705l0.031,0.701c0,0.245-0.309,0.555-0.92,0.92H74.36L74.3,31.61v-0.093
		c0.429-0.432,0.643-0.797,0.643-1.104l0.123-1.471c0-0.228-0.051-0.529-0.152-0.918c0.672-0.693,1.01-1.146,1.01-1.349
		c0-0.082-0.143-0.187-0.428-0.308l-0.092-0.123v-0.093L75.47,26.094L75.47,26.094z M73.664,26.275
		c-0.041,0-0.082,0.053-0.123,0.152l0.063,1.528l-0.063,0.123c-0.389,0.351-0.756,0.54-1.103,0.581l-0.336-0.063l-0.093,0.123
		c0.021,0.121,0.234,0.267,0.643,0.429l0.123-0.063c0.266-0.281,0.449-0.445,0.551-0.486h0.123l0.123,0.093l-0.031,0.185
		l0.031,0.676c0,0.188-0.389,0.686-1.164,1.5v0.094c0,0.144,0.112,0.244,0.338,0.308h0.029l0.031-0.03l1.01,0.275
		c0.143-0.082,0.214-0.154,0.214-0.217L74,31.451v-0.245l-0.062-1.315v-0.185c0-0.204,0.081-0.448,0.244-0.733
		c0-0.103-0.08-0.185-0.244-0.244l0.123-0.487c0.224-0.146,0.336-0.228,0.336-0.244v-0.028c-0.244-0.187-0.367-0.355-0.367-0.521
		v-0.061l0.031-0.029c-0.103-0.717-0.215-1.071-0.337-1.071h-0.061V26.275L73.664,26.275z M75.438,28.145v0.459l0.093,0.095h0.092
		c0.104-0.082,0.192-0.228,0.274-0.431c0.164-0.123,0.267-0.228,0.308-0.31c-0.041-0.104-0.082-0.149-0.123-0.149H76.05
		C75.642,27.95,75.438,28.061,75.438,28.145L75.438,28.145z M73.05,30.87c0.246-0.43,0.398-0.646,0.461-0.646l0.121,0.123v0.703
		c0,0.119-0.051,0.191-0.152,0.215c-0.286-0.063-0.43-0.133-0.43-0.215V30.87L73.05,30.87z M83.289,25.514
		c0.123,0,0.229,0.07,0.312,0.213v0.097c-0.392,0.347-0.582,0.567-0.582,0.673v0.094c0.104,0.145,0.214,0.215,0.336,0.215
		l0.312-0.029c0.24,0.021,0.363,0.111,0.363,0.273v0.03c-0.429,0.447-0.646,0.726-0.646,0.824l-0.062,0.366v0.121
		c0.062,0.104,0.121,0.152,0.185,0.152l0.918-0.093h0.154c0.119,0,0.242,0.104,0.365,0.308L84.85,28.85v0.029l-0.675-0.091
		c-0.592,0.04-0.887,0.133-0.887,0.274c-0.063,0.185-0.192,1.052-0.398,2.603l-0.121,0.49h-0.063l-0.031-0.03h-0.028l0.062-0.704
		l-0.031-0.03v-0.028l0.154-2.021v-0.123l-0.123-0.123H82.56c-1.021,0.325-1.653,0.57-1.896,0.733c-0.123,0-0.274,0.054-0.461,0.151
		c-0.162-0.04-0.244-0.163-0.244-0.365c0-0.104,0.108-0.175,0.336-0.216l0.028,0.03h0.03c0.755-0.104,1.296-0.256,1.622-0.459
		l0.151-0.153l0.186,0.063c0.391-0.121,0.581-0.244,0.581-0.365v-0.027l-0.121-0.123h-0.097l-0.213,0.123v-0.032
		c0.31-0.407,0.459-0.685,0.459-0.825c0-0.203-0.068-0.313-0.215-0.337l-0.766,0.308H81.88l-0.153-0.15
		c0-0.063,0.276-0.377,0.827-0.949l0.306-0.396V26.04l-0.062-0.063h-0.063l-0.887,0.121c-0.163,0-0.286-0.062-0.368-0.185
		l0.094-0.093v-0.032l0.151,0.03L83.289,25.514L83.289,25.514z M90.558,26.275c0.102,0,0.174,0.113,0.214,0.339
		c0,0.12-0.112,0.487-0.336,1.103l0.062,0.063h0.123c0.406-0.122,0.795-0.215,1.162-0.275c0.245,0,0.438,0.093,0.582,0.275v0.121
		l-1.041,0.827h-0.031v-0.063c0.312-0.407,0.461-0.644,0.461-0.704v-0.063l-0.094-0.09c-0.734,0-1.459,0.326-2.175,0.979
		c-0.429,0.305-0.661,0.459-0.704,0.459l-0.092-0.031v-0.063c0-0.104,0.204-0.305,0.613-0.61c0.51-0.407,0.867-1,1.07-1.774
		C90.395,26.439,90.457,26.275,90.558,26.275L90.558,26.275z M91.599,29.768h0.152c0.184,0.104,0.271,0.267,0.271,0.486l-0.214,0.34
		v0.123c0,0.021,0.146,0.118,0.433,0.305c0.062,0.082,0.092,0.152,0.092,0.217l-0.092,0.063l-1.016-0.215l-0.188-0.187
		c0-0.104,0.146-0.296,0.433-0.58l0.026-0.122v-0.03l-0.063-0.063H91.32c-0.652,0.123-0.979,0.393-0.979,0.798
		c0,0.284-0.063,0.461-0.188,0.521h-0.063c-0.104-0.063-0.176-0.16-0.215-0.308l0.152-0.554v-0.336c0-0.082,0.031-0.146,0.092-0.186
		l0.188,0.091h0.123C91.048,29.889,91.436,29.768,91.599,29.768z"/>
</g>
</svg>
