<?xml version="1.0" encoding="utf-8"?>
<!-- Generator: Adobe Illustrator 16.0.0, SVG Export Plug-In . SVG Version: 6.00 Build 0)  -->
<!DOCTYPE svg PUBLIC "-//W3C//DTD SVG 1.1//EN" "http://www.w3.org/Graphics/SVG/1.1/DTD/svg11.dtd">
<svg version="1.1" id="图层_1" xmlns="http://www.w3.org/2000/svg" xmlns:xlink="http://www.w3.org/1999/xlink" x="0px" y="0px"
	 width="70px" height="44px" viewBox="0 0 70 44" enable-background="new 0 0 70 44" xml:space="preserve">
<path fill-rule="evenodd" clip-rule="evenodd" fill="#5D5D5D" d="M39.73,29.72c0-0.29-0.209-0.526-0.467-0.526h-8.528
	c-0.26,0-0.467,0.236-0.467,0.526v2.096h-4.663v1.575h18.79v-1.575H39.73V29.72L39.73,29.72z M46.486,10.609H23.512
	c-0.87,0-1.572,0.702-1.572,1.57v14.685c0,0.868,0.703,1.572,1.572,1.572h22.974c0.871,0,1.574-0.704,1.574-1.572V12.18
	C48.061,11.312,47.357,10.609,46.486,10.609L46.486,10.609L46.486,10.609z M46.244,26.096c0,0.29-0.234,0.526-0.523,0.526H24.279
	c-0.293,0-0.527-0.236-0.527-0.526V12.946c0-0.291,0.234-0.524,0.527-0.524h21.442c0.289,0,0.523,0.233,0.523,0.524V26.096
	L46.244,26.096z M40.115,25.334v-8.259h2.838v8.259H40.115L40.115,25.334z M35.576,25.334V14.533h2.838v10.801H35.576L35.576,25.334
	z M27.065,25.334v-3.176h2.837v3.176H27.065L27.065,25.334z M31.037,25.334v-5.718h2.834v5.718H31.037z"/>
</svg>
