<?xml version="1.0" encoding="utf-8"?>
<!-- Generator: Adobe Illustrator 16.0.0, SVG Export Plug-In . SVG Version: 6.00 Build 0)  -->
<!DOCTYPE svg PUBLIC "-//W3C//DTD SVG 1.1//EN" "http://www.w3.org/Graphics/SVG/1.1/DTD/svg11.dtd">
<svg version="1.1" id="图层_1" xmlns="http://www.w3.org/2000/svg" xmlns:xlink="http://www.w3.org/1999/xlink" x="0px" y="0px"
	 width="70px" height="44px" viewBox="0 0 70 44" enable-background="new 0 0 70 44" xml:space="preserve">
<g>
	<path fill-rule="evenodd" clip-rule="evenodd" fill="#5D5D5D" d="M46.186,33.187h-3.729v-3.729h3.729V33.187L46.186,33.187z
		 M36.865,33.187h-3.729v-3.729h3.729V33.187L36.865,33.187z M27.544,33.187h-3.729v-3.729h3.729V33.187L27.544,33.187z
		 M28.478,10.813h13.046v8.391H28.478V10.813L28.478,10.813z M46.652,28.525H44.79v-4.196c0-0.254-0.213-0.463-0.468-0.463
		l-8.854-0.004v-3.725h6.525c0.254,0,0.463-0.212,0.463-0.467v-9.32c0-0.258-0.209-0.471-0.463-0.471H28.007
		c-0.254,0-0.463,0.212-0.463,0.471v9.32c0,0.255,0.209,0.467,0.463,0.467h6.528v3.725h-8.857c-0.254,0-0.467,0.213-0.467,0.471
		v4.192h-1.862c-0.258,0-0.467,0.208-0.467,0.466v4.663c0,0.257,0.209,0.466,0.467,0.466h4.658c0.262,0,0.467-0.209,0.467-0.466
		l0.004-4.663c0-0.258-0.209-0.463-0.471-0.463l-1.862-0.003v-3.729h8.391v3.729h-1.866c-0.258,0-0.466,0.208-0.466,0.466v4.663
		c0,0.257,0.208,0.466,0.466,0.466h4.662c0.259,0,0.463-0.209,0.463-0.466l0.005-4.663c0-0.258-0.209-0.463-0.468-0.463
		l-1.862-0.003v-3.729h8.388v3.729h-1.862c-0.259,0-0.471,0.208-0.471,0.466v4.663c0,0.257,0.212,0.466,0.471,0.466h4.658
		c0.258,0,0.466-0.209,0.466-0.466v-4.663C47.118,28.733,46.91,28.528,46.652,28.525z"/>
	<rect x="28.007" y="9.88" fill-rule="evenodd" clip-rule="evenodd" fill="#5D5D5D" width="13.976" height="9.537"/>
	<rect x="23.345" y="28.9" fill-rule="evenodd" clip-rule="evenodd" fill="#5D5D5D" width="4.692" height="4.817"/>
	<rect x="32.658" y="28.9" fill-rule="evenodd" clip-rule="evenodd" fill="#5D5D5D" width="4.696" height="4.817"/>
	<rect x="42.028" y="28.9" fill-rule="evenodd" clip-rule="evenodd" fill="#5D5D5D" width="4.691" height="4.817"/>
</g>
</svg>
